M48
; DRILL file {KiCad (5.99.0-1278-g350696ecd)} date 05/04/20 20:36:27
; FORMAT={-:-/ absolute / inch / decimal}
; #@! TF.CreationDate,2020-05-04T20:36:27-07:00
; #@! TF.GenerationSoftware,Kicad,Pcbnew,(5.99.0-1278-g350696ecd)
; #@! TF.FileFunction,Plated,1,2,PTH
FMAT,2
INCH
T1C0.0157
T2C0.0600
T3C0.0600
T4C0.0984
%
G90
G05
T1
X0.9449Y-5.0
X1.8819Y-4.9764
X2.8189Y-4.9248
X4.2913Y-5.0157
X4.9449Y-4.9843
X5.7559Y-4.937
X6.1024Y-4.4488
X6.3Y-3.51
X6.3622Y-4.5591
X6.4898Y-3.7004
X6.505Y-4.18
X6.505Y-4.625
X6.62Y-3.51
X6.645Y-4.08
X6.7929Y-3.7004
X6.9193Y-4.0256
X6.9437Y-4.8913
X7.08Y-3.515
X7.1094Y-4.3551
X7.1411Y-4.325
X7.1531Y-4.7567
X7.1531Y-4.8913
X7.1925Y-4.7571
X7.1925Y-4.8627
X7.2319Y-4.7571
X7.2319Y-4.8341
X7.2713Y-4.7571
X7.3106Y-4.7571
X7.4068Y-4.8055
X7.4425Y-4.7622
X8.937Y-4.5669
X9.7323Y-4.126
X11.8898Y-3.8819
T2
X0.943Y-4.6489
X1.193Y-4.5489
X10.9743Y-1.6489
X11.2243Y-1.5489
X1.8805Y-4.6489
X2.1305Y-4.5489
X10.8805Y-3.1489
X11.1305Y-3.0489
X1.318Y-3.8989
X1.568Y-3.7989
X1.0368Y-2.3989
X1.2868Y-2.2989
X10.318Y-3.8989
X10.568Y-3.7989
X5.6305Y-4.6489
X5.8805Y-4.5489
X11.1618Y-2.3989
X11.4118Y-2.2989
X2.818Y-4.6489
X3.068Y-4.5489
X1.1305Y-3.1489
X1.3805Y-3.0489
X14.3493Y-4.2739
X14.5993Y-4.1739
T3
X1.5993Y-1.6489
X1.8493Y-1.5489
X2.3493Y-1.6489
X2.5993Y-1.5489
X5.5368Y-3.8989
X5.7868Y-3.7989
X5.1618Y-3.1489
X5.4118Y-3.0489
X12.8493Y-3.1489
X13.0993Y-3.0489
X0.8493Y-1.6489
X1.0993Y-1.5489
X9.0993Y-1.6489
X9.3493Y-1.5489
X12.0993Y-3.8989
X12.3493Y-3.7989
X14.3493Y-1.6489
X14.5993Y-1.5489
X3.6618Y-3.1489
X3.9118Y-3.0489
X4.5993Y-0.8989
X4.8493Y-0.7989
X4.2243Y-2.3989
X4.4743Y-2.2989
X13.5993Y-2.3989
X13.8493Y-2.2989
X12.0993Y-3.1489
X12.3493Y-3.0489
X13.5993Y-4.6489
X13.8493Y-4.5489
X2.5368Y-3.8989
X2.7868Y-3.7989
X8.1618Y-3.1489
X8.4118Y-3.0489
X8.3493Y-0.8989
X8.5993Y-0.7989
X2.7243Y-2.3989
X2.9743Y-2.2989
X9.0993Y-0.8989
X9.3493Y-0.7989
X11.3493Y-4.6489
X11.5993Y-4.5489
X4.0368Y-3.8989
X4.2868Y-3.7989
X13.5993Y-3.8989
X13.8493Y-3.7989
X3.8493Y-1.6489
X4.0993Y-1.5489
X7.0368Y-3.8989
X7.2868Y-3.7989
X8.5368Y-3.8989
X8.7868Y-3.7989
X7.4118Y-3.1489
X7.6618Y-3.0489
X11.3493Y-0.8989
X11.5993Y-0.7989
X13.5993Y-3.1489
X13.8493Y-3.0489
X1.5993Y-0.8989
X1.8493Y-0.7989
X6.0993Y-1.6489
X6.3493Y-1.5489
X7.5993Y-1.6489
X7.8493Y-1.5489
X12.8493Y-1.6489
X13.0993Y-1.5489
X9.8493Y-4.6489
X10.0993Y-4.5489
X3.4743Y-2.3989
X3.7243Y-2.2989
X6.0993Y-0.8989
X6.3493Y-0.7989
X7.5993Y-0.8989
X7.8493Y-0.7989
X12.8493Y-0.8989
X13.0993Y-0.7989
X9.0993Y-4.6489
X9.3493Y-4.5489
X12.0993Y-1.6489
X12.3493Y-1.5489
X7.2243Y-2.3989
X7.4743Y-2.2989
X7.7868Y-3.8989
X8.0368Y-3.7989
X12.0993Y-4.6489
X12.3493Y-4.5489
X6.6618Y-3.1489
X6.9118Y-3.0489
X11.3493Y-3.8989
X11.5993Y-3.7989
X0.8493Y-0.8989
X1.0993Y-0.7989
X3.0993Y-1.6489
X3.3493Y-1.5489
X14.3493Y-3.1489
X14.5993Y-3.0489
X4.9743Y-2.3989
X5.2243Y-2.2989
X10.5993Y-4.6489
X10.8493Y-4.5489
X8.9118Y-3.1489
X9.1618Y-3.0489
X6.8493Y-0.8989
X7.0993Y-0.7989
X4.5993Y-1.6489
X4.8493Y-1.5489
X12.8493Y-4.6489
X13.0993Y-4.5489
X8.7243Y-2.3989
X8.9743Y-2.2989
X1.9743Y-2.3989
X2.2243Y-2.2989
X14.3493Y-2.3989
X14.5993Y-2.2989
X7.9743Y-2.3989
X8.2243Y-2.2989
X4.7868Y-3.8989
X5.0368Y-3.7989
X12.8493Y-3.8989
X13.0993Y-3.7989
X10.5993Y-0.8989
X10.8493Y-0.7989
X12.0993Y-0.8989
X12.3493Y-0.7989
X3.0993Y-0.8989
X3.3493Y-0.7989
X6.4743Y-2.3989
X6.7243Y-2.2989
X4.4118Y-3.1489
X4.6618Y-3.0489
X12.8493Y-2.3989
X13.0993Y-2.2989
X5.9118Y-3.1489
X6.1618Y-3.0489
X10.2243Y-2.3989
X10.4743Y-2.2989
X9.6618Y-3.1489
X9.9118Y-3.0489
X2.1618Y-3.1489
X2.4118Y-3.0489
X6.2868Y-3.8989
X6.5368Y-3.7989
X6.8493Y-1.6489
X7.0993Y-1.5489
X13.5993Y-1.6489
X13.8493Y-1.5489
X12.0993Y-2.3989
X12.3493Y-2.2989
X8.3493Y-1.6489
X8.5993Y-1.5489
X2.3493Y-0.8989
X2.5993Y-0.7989
X2.9118Y-3.1489
X3.1618Y-3.0489
X14.3493Y-0.8989
X14.5993Y-0.7989
X5.3493Y-1.6489
X5.5993Y-1.5489
X8.3493Y-4.6489
X8.5993Y-4.5489
X9.8493Y-1.6489
X10.0993Y-1.5489
X9.8493Y-0.8989
X10.0993Y-0.7989
X3.8493Y-0.8989
X4.0993Y-0.7989
X3.2868Y-3.8989
X3.5368Y-3.7989
X5.3493Y-0.8989
X5.5993Y-0.7989
X5.7243Y-2.3989
X5.9743Y-2.2989
X13.5993Y-0.8989
X13.8493Y-0.7989
X9.4743Y-2.3989
X9.7243Y-2.2989
X9.2868Y-3.8989
X9.5368Y-3.7989
T4
X5.315Y-4.1634
X13.376Y-4.2
X13.3701Y-1.2992
X2.185Y-4.0059
X10.0Y-3.8583
X9.6791Y-1.2894
X2.1791Y-1.2992
X5.8799Y-1.2894
T0
M30
