M48
; DRILL file {KiCad (5.99.0-1278-g350696ecd)} date 05/04/20 20:36:27
; FORMAT={-:-/ absolute / inch / decimal}
; #@! TF.CreationDate,2020-05-04T20:36:27-07:00
; #@! TF.GenerationSoftware,Kicad,Pcbnew,(5.99.0-1278-g350696ecd)
; #@! TF.FileFunction,NonPlated,1,2,NPTH
FMAT,2
INCH
T1C0.0670
T2C0.1200
T3C0.1570
%
G90
G05
T1
X1.5493Y-1.7489
X1.9493Y-1.7489
X14.2993Y-4.3739
X14.6993Y-4.3739
X2.2993Y-1.7489
X2.6993Y-1.7489
X5.4868Y-3.9989
X5.8868Y-3.9989
X5.1118Y-3.2489
X5.5118Y-3.2489
X12.7993Y-3.2489
X13.1993Y-3.2489
X0.7993Y-1.7489
X1.1993Y-1.7489
X9.0493Y-1.7489
X9.4493Y-1.7489
X12.0493Y-3.9989
X12.4493Y-3.9989
X0.893Y-4.7489
X1.293Y-4.7489
X14.2993Y-1.7489
X14.6993Y-1.7489
X3.6118Y-3.2489
X4.0118Y-3.2489
X4.5493Y-0.9989
X4.9493Y-0.9989
X4.1743Y-2.4989
X4.5743Y-2.4989
X13.5493Y-2.4989
X13.9493Y-2.4989
X10.9243Y-1.7489
X11.3243Y-1.7489
X12.0493Y-3.2489
X12.4493Y-3.2489
X1.8305Y-4.7489
X2.2305Y-4.7489
X13.5493Y-4.7489
X13.9493Y-4.7489
X2.4868Y-3.9989
X2.8868Y-3.9989
X8.1118Y-3.2489
X8.5118Y-3.2489
X8.2993Y-0.9989
X8.6993Y-0.9989
X2.6743Y-2.4989
X3.0743Y-2.4989
X9.0493Y-0.9989
X9.4493Y-0.9989
X11.2993Y-4.7489
X11.6993Y-4.7489
X3.9868Y-3.9989
X4.3868Y-3.9989
X13.5493Y-3.9989
X13.9493Y-3.9989
X3.7993Y-1.7489
X4.1993Y-1.7489
X6.9868Y-3.9989
X7.3868Y-3.9989
X8.4868Y-3.9989
X8.8868Y-3.9989
X7.3618Y-3.2489
X7.7618Y-3.2489
X11.2993Y-0.9989
X11.6993Y-0.9989
X10.8305Y-3.2489
X11.2305Y-3.2489
X1.268Y-3.9989
X1.668Y-3.9989
X13.5493Y-3.2489
X13.9493Y-3.2489
X1.5493Y-0.9989
X1.9493Y-0.9989
X6.0493Y-1.7489
X6.4493Y-1.7489
X7.5493Y-1.7489
X7.9493Y-1.7489
X12.7993Y-1.7489
X13.1993Y-1.7489
X0.9868Y-2.4989
X1.3868Y-2.4989
X9.7993Y-4.7489
X10.1993Y-4.7489
X10.268Y-3.9989
X10.668Y-3.9989
X3.4243Y-2.4989
X3.8243Y-2.4989
X6.0493Y-0.9989
X6.4493Y-0.9989
X7.5493Y-0.9989
X7.9493Y-0.9989
X12.7993Y-0.9989
X13.1993Y-0.9989
X9.0493Y-4.7489
X9.4493Y-4.7489
X12.0493Y-1.7489
X12.4493Y-1.7489
X7.1743Y-2.4989
X7.5743Y-2.4989
X7.7368Y-3.9989
X8.1368Y-3.9989
X12.0493Y-4.7489
X12.4493Y-4.7489
X6.6118Y-3.2489
X7.0118Y-3.2489
X11.2993Y-3.9989
X11.6993Y-3.9989
X0.7993Y-0.9989
X1.1993Y-0.9989
X3.0493Y-1.7489
X3.4493Y-1.7489
X14.2993Y-3.2489
X14.6993Y-3.2489
X4.9243Y-2.4989
X5.3243Y-2.4989
X5.5805Y-4.7489
X5.9805Y-4.7489
X10.5493Y-4.7489
X10.9493Y-4.7489
X8.8618Y-3.2489
X9.2618Y-3.2489
X6.7993Y-0.9989
X7.1993Y-0.9989
X4.5493Y-1.7489
X4.9493Y-1.7489
X12.7993Y-4.7489
X13.1993Y-4.7489
X11.1118Y-2.4989
X11.5118Y-2.4989
X8.6743Y-2.4989
X9.0743Y-2.4989
X1.9243Y-2.4989
X2.3243Y-2.4989
X14.2993Y-2.4989
X14.6993Y-2.4989
X7.9243Y-2.4989
X8.3243Y-2.4989
X4.7368Y-3.9989
X5.1368Y-3.9989
X12.7993Y-3.9989
X13.1993Y-3.9989
X10.5493Y-0.9989
X10.9493Y-0.9989
X12.0493Y-0.9989
X12.4493Y-0.9989
X3.0493Y-0.9989
X3.4493Y-0.9989
X6.4243Y-2.4989
X6.8243Y-2.4989
X4.3618Y-3.2489
X4.7618Y-3.2489
X12.7993Y-2.4989
X13.1993Y-2.4989
X5.8618Y-3.2489
X6.2618Y-3.2489
X10.1743Y-2.4989
X10.5743Y-2.4989
X9.6118Y-3.2489
X10.0118Y-3.2489
X2.1118Y-3.2489
X2.5118Y-3.2489
X2.768Y-4.7489
X3.168Y-4.7489
X6.2368Y-3.9989
X6.6368Y-3.9989
X6.7993Y-1.7489
X7.1993Y-1.7489
X13.5493Y-1.7489
X13.9493Y-1.7489
X12.0493Y-2.4989
X12.4493Y-2.4989
X8.2993Y-1.7489
X8.6993Y-1.7489
X2.2993Y-0.9989
X2.6993Y-0.9989
X2.8618Y-3.2489
X3.2618Y-3.2489
X14.2993Y-0.9989
X14.6993Y-0.9989
X5.2993Y-1.7489
X5.6993Y-1.7489
X8.2993Y-4.7489
X8.6993Y-4.7489
X1.0805Y-3.2489
X1.4805Y-3.2489
X9.7993Y-1.7489
X10.1993Y-1.7489
X9.7993Y-0.9989
X10.1993Y-0.9989
X3.7993Y-0.9989
X4.1993Y-0.9989
X3.2368Y-3.9989
X3.6368Y-3.9989
X5.2993Y-0.9989
X5.6993Y-0.9989
X5.6743Y-2.4989
X6.0743Y-2.4989
X13.5493Y-0.9989
X13.9493Y-0.9989
X9.4243Y-2.4989
X9.8243Y-2.4989
X9.2368Y-3.9989
X9.6368Y-3.9989
T2
X14.2243Y-3.9039
X14.2243Y-4.8439
X10.6543Y-1.4739
X11.5943Y-1.4739
X10.5605Y-2.9739
X11.5005Y-2.9739
X0.998Y-3.7239
X1.938Y-3.7239
X3.8105Y-5.0239
X7.7505Y-5.0239
T3
X6.4368Y-3.9989
X6.9993Y-1.7489
X13.7493Y-1.7489
X12.2493Y-2.4989
X8.4993Y-1.7489
X2.4993Y-0.9989
X3.0618Y-3.2489
X14.4993Y-0.9989
X5.4993Y-1.7489
X8.4993Y-4.7489
X1.2805Y-3.2489
X9.9993Y-1.7489
X9.9993Y-0.9989
X3.9993Y-0.9989
X3.4368Y-3.9989
X5.4993Y-0.9989
X5.8743Y-2.4989
X13.7493Y-0.9989
X9.6243Y-2.4989
X9.4368Y-3.9989
X1.7493Y-1.7489
X14.4993Y-4.3739
X14.8243Y-3.9039
X14.8243Y-4.8439
X2.4993Y-1.7489
X5.6868Y-3.9989
X5.3118Y-3.2489
X12.9993Y-3.2489
X0.9993Y-1.7489
X9.2493Y-1.7489
X12.2493Y-3.9989
X1.093Y-4.7489
X14.4993Y-1.7489
X3.8118Y-3.2489
X4.7493Y-0.9989
X4.3743Y-2.4989
X13.7493Y-2.4989
X10.6543Y-2.0739
X11.1243Y-1.7489
X11.5943Y-2.0739
X12.2493Y-3.2489
X2.0305Y-4.7489
X13.7493Y-4.7489
X2.6868Y-3.9989
X8.3118Y-3.2489
X8.4993Y-0.9989
X2.8743Y-2.4989
X9.2493Y-0.9989
X11.4993Y-4.7489
X4.1868Y-3.9989
X13.7493Y-3.9989
X3.9993Y-1.7489
X7.1868Y-3.9989
X8.6868Y-3.9989
X7.5618Y-3.2489
X11.4993Y-0.9989
X10.5605Y-3.5739
X11.0305Y-3.2489
X11.5005Y-3.5739
X0.998Y-4.3239
X1.468Y-3.9989
X1.938Y-4.3239
X13.7493Y-3.2489
X1.7493Y-0.9989
X6.2493Y-1.7489
X7.7493Y-1.7489
X12.9993Y-1.7489
X1.1868Y-2.4989
X9.9993Y-4.7489
X10.468Y-3.9989
X3.6243Y-2.4989
X6.2493Y-0.9989
X7.7493Y-0.9989
X12.9993Y-0.9989
X9.2493Y-4.7489
X12.2493Y-1.7489
X7.3743Y-2.4989
X7.9368Y-3.9989
X12.2493Y-4.7489
X6.8118Y-3.2489
X11.4993Y-3.9989
X0.9993Y-0.9989
X3.2493Y-1.7489
X14.4993Y-3.2489
X5.1243Y-2.4989
X3.8105Y-4.4239
X5.7805Y-4.7489
X7.7505Y-4.4239
X10.7493Y-4.7489
X9.0618Y-3.2489
X6.9993Y-0.9989
X4.7493Y-1.7489
X12.9993Y-4.7489
X11.3118Y-2.4989
X8.8743Y-2.4989
X2.1243Y-2.4989
X14.4993Y-2.4989
X8.1243Y-2.4989
X4.9368Y-3.9989
X12.9993Y-3.9989
X10.7493Y-0.9989
X12.2493Y-0.9989
X3.2493Y-0.9989
X6.6243Y-2.4989
X4.5618Y-3.2489
X12.9993Y-2.4989
X6.0618Y-3.2489
X10.3743Y-2.4989
X9.8118Y-3.2489
X2.3118Y-3.2489
X2.968Y-4.7489
T0
M30
