G04 #@! TF.GenerationSoftware,KiCad,Pcbnew,(5.99.0-1278-g350696ecd)*
G04 #@! TF.CreationDate,2020-05-04T20:37:44-07:00*
G04 #@! TF.ProjectId,Keyboard - 100 Key Custom,4b657962-6f61-4726-9420-2d2031303020,rev?*
G04 #@! TF.SameCoordinates,Original*
G04 #@! TF.FileFunction,Soldermask,Top*
G04 #@! TF.FilePolarity,Negative*
%FSLAX46Y46*%
G04 Gerber Fmt 4.6, Leading zero omitted, Abs format (unit mm)*
G04 Created by KiCad (PCBNEW (5.99.0-1278-g350696ecd)) date 2020-05-04 20:37:44*
%MOMM*%
%LPD*%
G01*
G04 APERTURE LIST*
%ADD10C,5.102000*%
%ADD11C,4.089800*%
%ADD12C,2.642000*%
%ADD13C,1.803800*%
%ADD14C,3.150000*%
G04 APERTURE END LIST*
D10*
X149350000Y-32750000D03*
X245850000Y-32750000D03*
X254000000Y-98000000D03*
X135000000Y-105750000D03*
X339750000Y-106680000D03*
X339600000Y-33000000D03*
X55500000Y-101750000D03*
X55350000Y-33000000D03*
D11*
X146825000Y-120621250D03*
D12*
X143015000Y-118081250D03*
X149365000Y-115541250D03*
D13*
X141745000Y-120621250D03*
X151905000Y-120621250D03*
D14*
X196863000Y-127606250D03*
X96787000Y-127606250D03*
D11*
X96787000Y-112366250D03*
X196863000Y-112366250D03*
X25381250Y-44421250D03*
D13*
X20301250Y-44421250D03*
X30461250Y-44421250D03*
D12*
X27921250Y-39341250D03*
X21571250Y-41881250D03*
D11*
X173018750Y-82521250D03*
D13*
X167938750Y-82521250D03*
X178098750Y-82521250D03*
D12*
X175558750Y-77441250D03*
X169208750Y-79981250D03*
D11*
X153968750Y-82521250D03*
D13*
X148888750Y-82521250D03*
X159048750Y-82521250D03*
D12*
X156508750Y-77441250D03*
X150158750Y-79981250D03*
D11*
X192068750Y-82521250D03*
D13*
X186988750Y-82521250D03*
X197148750Y-82521250D03*
D12*
X194608750Y-77441250D03*
X188258750Y-79981250D03*
D11*
X32525000Y-82521250D03*
D12*
X28715000Y-79981250D03*
X35065000Y-77441250D03*
D13*
X27445000Y-82521250D03*
X37605000Y-82521250D03*
D11*
X30143750Y-63471250D03*
D12*
X26333750Y-60931250D03*
X32683750Y-58391250D03*
D13*
X25063750Y-63471250D03*
X35223750Y-63471250D03*
D11*
X73006250Y-63471250D03*
D13*
X67926250Y-63471250D03*
X78086250Y-63471250D03*
D12*
X75546250Y-58391250D03*
X69196250Y-60931250D03*
D11*
X376536250Y-99158250D03*
X376536250Y-123034250D03*
D14*
X361296250Y-123034250D03*
X361296250Y-99158250D03*
D13*
X373361250Y-111096250D03*
X363201250Y-111096250D03*
D12*
X370821250Y-106016250D03*
X364471250Y-108556250D03*
D11*
X368281250Y-111096250D03*
X368281250Y-82521250D03*
D13*
X363201250Y-82521250D03*
X373361250Y-82521250D03*
D12*
X370821250Y-77441250D03*
X364471250Y-79981250D03*
D11*
X368281250Y-63471250D03*
D13*
X363201250Y-63471250D03*
X373361250Y-63471250D03*
D12*
X370821250Y-58391250D03*
X364471250Y-60931250D03*
D11*
X368281250Y-44421250D03*
D13*
X363201250Y-44421250D03*
X373361250Y-44421250D03*
D12*
X370821250Y-39341250D03*
X364471250Y-41881250D03*
D11*
X368281250Y-25371250D03*
D13*
X363201250Y-25371250D03*
X373361250Y-25371250D03*
D12*
X370821250Y-20291250D03*
X364471250Y-22831250D03*
D11*
X349231250Y-120621250D03*
D13*
X344151250Y-120621250D03*
X354311250Y-120621250D03*
D12*
X351771250Y-115541250D03*
X345421250Y-118081250D03*
D11*
X349231250Y-101571250D03*
D13*
X344151250Y-101571250D03*
X354311250Y-101571250D03*
D12*
X351771250Y-96491250D03*
X345421250Y-99031250D03*
D11*
X349231250Y-82521250D03*
D13*
X344151250Y-82521250D03*
X354311250Y-82521250D03*
D12*
X351771250Y-77441250D03*
X345421250Y-79981250D03*
D11*
X349231250Y-63471250D03*
D13*
X344151250Y-63471250D03*
X354311250Y-63471250D03*
D12*
X351771250Y-58391250D03*
X345421250Y-60931250D03*
D11*
X349231250Y-44421250D03*
D13*
X344151250Y-44421250D03*
X354311250Y-44421250D03*
D12*
X351771250Y-39341250D03*
X345421250Y-41881250D03*
D11*
X349231250Y-25371250D03*
D13*
X344151250Y-25371250D03*
X354311250Y-25371250D03*
D12*
X351771250Y-20291250D03*
X345421250Y-22831250D03*
D11*
X330181250Y-120621250D03*
D13*
X325101250Y-120621250D03*
X335261250Y-120621250D03*
D12*
X332721250Y-115541250D03*
X326371250Y-118081250D03*
D11*
X330181250Y-101571250D03*
D13*
X325101250Y-101571250D03*
X335261250Y-101571250D03*
D12*
X332721250Y-96491250D03*
X326371250Y-99031250D03*
D11*
X330181250Y-82521250D03*
D13*
X325101250Y-82521250D03*
X335261250Y-82521250D03*
D12*
X332721250Y-77441250D03*
X326371250Y-79981250D03*
D11*
X330181250Y-63471250D03*
D13*
X325101250Y-63471250D03*
X335261250Y-63471250D03*
D12*
X332721250Y-58391250D03*
X326371250Y-60931250D03*
D11*
X330181250Y-44421250D03*
D13*
X325101250Y-44421250D03*
X335261250Y-44421250D03*
D12*
X332721250Y-39341250D03*
X326371250Y-41881250D03*
D11*
X330181250Y-25371250D03*
D13*
X325101250Y-25371250D03*
X335261250Y-25371250D03*
D12*
X332721250Y-20291250D03*
X326371250Y-22831250D03*
D11*
X311131250Y-120621250D03*
D13*
X306051250Y-120621250D03*
X316211250Y-120621250D03*
D12*
X313671250Y-115541250D03*
X307321250Y-118081250D03*
D11*
X311131250Y-101571250D03*
D13*
X306051250Y-101571250D03*
X316211250Y-101571250D03*
D12*
X313671250Y-96491250D03*
X307321250Y-99031250D03*
D11*
X311131250Y-82521250D03*
D13*
X306051250Y-82521250D03*
X316211250Y-82521250D03*
D12*
X313671250Y-77441250D03*
X307321250Y-79981250D03*
D11*
X311131250Y-63471250D03*
D13*
X306051250Y-63471250D03*
X316211250Y-63471250D03*
D12*
X313671250Y-58391250D03*
X307321250Y-60931250D03*
D11*
X311131250Y-44421250D03*
D13*
X306051250Y-44421250D03*
X316211250Y-44421250D03*
D12*
X313671250Y-39341250D03*
X307321250Y-41881250D03*
D11*
X311131250Y-25371250D03*
D13*
X306051250Y-25371250D03*
X316211250Y-25371250D03*
D12*
X313671250Y-20291250D03*
X307321250Y-22831250D03*
D11*
X292081250Y-25371250D03*
D13*
X287001250Y-25371250D03*
X297161250Y-25371250D03*
D12*
X294621250Y-20291250D03*
X288271250Y-22831250D03*
D11*
X292081250Y-120621250D03*
D13*
X287001250Y-120621250D03*
X297161250Y-120621250D03*
D12*
X294621250Y-115541250D03*
X288271250Y-118081250D03*
D11*
X292081250Y-101571250D03*
D13*
X287001250Y-101571250D03*
X297161250Y-101571250D03*
D12*
X294621250Y-96491250D03*
X288271250Y-99031250D03*
D11*
X280175000Y-82521250D03*
D12*
X276365000Y-79981250D03*
X282715000Y-77441250D03*
D13*
X275095000Y-82521250D03*
X285255000Y-82521250D03*
D14*
X292113000Y-75536250D03*
X268237000Y-75536250D03*
D11*
X268237000Y-90776250D03*
X292113000Y-90776250D03*
X287318750Y-63471250D03*
D12*
X283508750Y-60931250D03*
X289858750Y-58391250D03*
D13*
X282238750Y-63471250D03*
X292398750Y-63471250D03*
D11*
X282556250Y-44421250D03*
D12*
X278746250Y-41881250D03*
X285096250Y-39341250D03*
D13*
X277476250Y-44421250D03*
X287636250Y-44421250D03*
D14*
X294494250Y-37436250D03*
X270618250Y-37436250D03*
D11*
X270618250Y-52676250D03*
X294494250Y-52676250D03*
X273031250Y-25371250D03*
D13*
X267951250Y-25371250D03*
X278111250Y-25371250D03*
D12*
X275571250Y-20291250D03*
X269221250Y-22831250D03*
D11*
X273031250Y-120621250D03*
D13*
X267951250Y-120621250D03*
X278111250Y-120621250D03*
D12*
X275571250Y-115541250D03*
X269221250Y-118081250D03*
D11*
X265887500Y-101571250D03*
D12*
X262077500Y-99031250D03*
X268427500Y-96491250D03*
D13*
X260807500Y-101571250D03*
X270967500Y-101571250D03*
D11*
X263506250Y-63471250D03*
D13*
X258426250Y-63471250D03*
X268586250Y-63471250D03*
D12*
X266046250Y-58391250D03*
X259696250Y-60931250D03*
D11*
X253981250Y-44421250D03*
D13*
X248901250Y-44421250D03*
X259061250Y-44421250D03*
D12*
X256521250Y-39341250D03*
X250171250Y-41881250D03*
D11*
X253981250Y-25371250D03*
D13*
X248901250Y-25371250D03*
X259061250Y-25371250D03*
D12*
X256521250Y-20291250D03*
X250171250Y-22831250D03*
D11*
X253981250Y-120621250D03*
D13*
X248901250Y-120621250D03*
X259061250Y-120621250D03*
D12*
X256521250Y-115541250D03*
X250171250Y-118081250D03*
D11*
X249218750Y-82521250D03*
D13*
X244138750Y-82521250D03*
X254298750Y-82521250D03*
D12*
X251758750Y-77441250D03*
X245408750Y-79981250D03*
D11*
X244456250Y-63471250D03*
D13*
X239376250Y-63471250D03*
X249536250Y-63471250D03*
D12*
X246996250Y-58391250D03*
X240646250Y-60931250D03*
D11*
X234931250Y-44421250D03*
D13*
X229851250Y-44421250D03*
X240011250Y-44421250D03*
D12*
X237471250Y-39341250D03*
X231121250Y-41881250D03*
D11*
X234931250Y-25371250D03*
D13*
X229851250Y-25371250D03*
X240011250Y-25371250D03*
D12*
X237471250Y-20291250D03*
X231121250Y-22831250D03*
D11*
X234931250Y-120621250D03*
D13*
X229851250Y-120621250D03*
X240011250Y-120621250D03*
D12*
X237471250Y-115541250D03*
X231121250Y-118081250D03*
D11*
X239693750Y-101571250D03*
D13*
X234613750Y-101571250D03*
X244773750Y-101571250D03*
D12*
X242233750Y-96491250D03*
X235883750Y-99031250D03*
D11*
X230168750Y-82521250D03*
D13*
X225088750Y-82521250D03*
X235248750Y-82521250D03*
D12*
X232708750Y-77441250D03*
X226358750Y-79981250D03*
D11*
X225406250Y-63471250D03*
D13*
X220326250Y-63471250D03*
X230486250Y-63471250D03*
D12*
X227946250Y-58391250D03*
X221596250Y-60931250D03*
D11*
X215881250Y-44421250D03*
D13*
X210801250Y-44421250D03*
X220961250Y-44421250D03*
D12*
X218421250Y-39341250D03*
X212071250Y-41881250D03*
D11*
X215881250Y-25371250D03*
D13*
X210801250Y-25371250D03*
X220961250Y-25371250D03*
D12*
X218421250Y-20291250D03*
X212071250Y-22831250D03*
D11*
X215881250Y-120621250D03*
D13*
X210801250Y-120621250D03*
X220961250Y-120621250D03*
D12*
X218421250Y-115541250D03*
X212071250Y-118081250D03*
D11*
X220643750Y-101571250D03*
D13*
X215563750Y-101571250D03*
X225723750Y-101571250D03*
D12*
X223183750Y-96491250D03*
X216833750Y-99031250D03*
D11*
X211118750Y-82521250D03*
D13*
X206038750Y-82521250D03*
X216198750Y-82521250D03*
D12*
X213658750Y-77441250D03*
X207308750Y-79981250D03*
D11*
X206356250Y-63471250D03*
D13*
X201276250Y-63471250D03*
X211436250Y-63471250D03*
D12*
X208896250Y-58391250D03*
X202546250Y-60931250D03*
D11*
X196831250Y-44421250D03*
D13*
X191751250Y-44421250D03*
X201911250Y-44421250D03*
D12*
X199371250Y-39341250D03*
X193021250Y-41881250D03*
D11*
X196831250Y-25371250D03*
D13*
X191751250Y-25371250D03*
X201911250Y-25371250D03*
D12*
X199371250Y-20291250D03*
X193021250Y-22831250D03*
D11*
X201593750Y-101571250D03*
D13*
X196513750Y-101571250D03*
X206673750Y-101571250D03*
D12*
X204133750Y-96491250D03*
X197783750Y-99031250D03*
D11*
X187306250Y-63471250D03*
D13*
X182226250Y-63471250D03*
X192386250Y-63471250D03*
D12*
X189846250Y-58391250D03*
X183496250Y-60931250D03*
D11*
X177781250Y-44421250D03*
D13*
X172701250Y-44421250D03*
X182861250Y-44421250D03*
D12*
X180321250Y-39341250D03*
X173971250Y-41881250D03*
D11*
X177781250Y-25371250D03*
D13*
X172701250Y-25371250D03*
X182861250Y-25371250D03*
D12*
X180321250Y-20291250D03*
X173971250Y-22831250D03*
D11*
X182543750Y-101571250D03*
D13*
X177463750Y-101571250D03*
X187623750Y-101571250D03*
D12*
X185083750Y-96491250D03*
X178733750Y-99031250D03*
D11*
X168256250Y-63471250D03*
D13*
X163176250Y-63471250D03*
X173336250Y-63471250D03*
D12*
X170796250Y-58391250D03*
X164446250Y-60931250D03*
D11*
X158731250Y-44421250D03*
D13*
X153651250Y-44421250D03*
X163811250Y-44421250D03*
D12*
X161271250Y-39341250D03*
X154921250Y-41881250D03*
D11*
X158731250Y-25371250D03*
D13*
X153651250Y-25371250D03*
X163811250Y-25371250D03*
D12*
X161271250Y-20291250D03*
X154921250Y-22831250D03*
D11*
X163493750Y-101571250D03*
D13*
X158413750Y-101571250D03*
X168573750Y-101571250D03*
D12*
X166033750Y-96491250D03*
X159683750Y-99031250D03*
D11*
X149206250Y-63471250D03*
D13*
X144126250Y-63471250D03*
X154286250Y-63471250D03*
D12*
X151746250Y-58391250D03*
X145396250Y-60931250D03*
D11*
X139681250Y-44421250D03*
D13*
X134601250Y-44421250D03*
X144761250Y-44421250D03*
D12*
X142221250Y-39341250D03*
X135871250Y-41881250D03*
D11*
X139681250Y-25371250D03*
D13*
X134601250Y-25371250D03*
X144761250Y-25371250D03*
D12*
X142221250Y-20291250D03*
X135871250Y-22831250D03*
D11*
X144443750Y-101571250D03*
D13*
X139363750Y-101571250D03*
X149523750Y-101571250D03*
D12*
X146983750Y-96491250D03*
X140633750Y-99031250D03*
D11*
X134918750Y-82521250D03*
D13*
X129838750Y-82521250D03*
X139998750Y-82521250D03*
D12*
X137458750Y-77441250D03*
X131108750Y-79981250D03*
D11*
X130156250Y-63471250D03*
D13*
X125076250Y-63471250D03*
X135236250Y-63471250D03*
D12*
X132696250Y-58391250D03*
X126346250Y-60931250D03*
D11*
X120631250Y-44421250D03*
D13*
X115551250Y-44421250D03*
X125711250Y-44421250D03*
D12*
X123171250Y-39341250D03*
X116821250Y-41881250D03*
D11*
X120631250Y-25371250D03*
D13*
X115551250Y-25371250D03*
X125711250Y-25371250D03*
D12*
X123171250Y-20291250D03*
X116821250Y-22831250D03*
D11*
X125393750Y-101571250D03*
D13*
X120313750Y-101571250D03*
X130473750Y-101571250D03*
D12*
X127933750Y-96491250D03*
X121583750Y-99031250D03*
D11*
X115868750Y-82521250D03*
D13*
X110788750Y-82521250D03*
X120948750Y-82521250D03*
D12*
X118408750Y-77441250D03*
X112058750Y-79981250D03*
D11*
X111106250Y-63471250D03*
D13*
X106026250Y-63471250D03*
X116186250Y-63471250D03*
D12*
X113646250Y-58391250D03*
X107296250Y-60931250D03*
D11*
X101581250Y-44421250D03*
D13*
X96501250Y-44421250D03*
X106661250Y-44421250D03*
D12*
X104121250Y-39341250D03*
X97771250Y-41881250D03*
D11*
X101581250Y-25371250D03*
D13*
X96501250Y-25371250D03*
X106661250Y-25371250D03*
D12*
X104121250Y-20291250D03*
X97771250Y-22831250D03*
D11*
X106343750Y-101571250D03*
D13*
X101263750Y-101571250D03*
X111423750Y-101571250D03*
D12*
X108883750Y-96491250D03*
X102533750Y-99031250D03*
D11*
X96818750Y-82521250D03*
D13*
X91738750Y-82521250D03*
X101898750Y-82521250D03*
D12*
X99358750Y-77441250D03*
X93008750Y-79981250D03*
D11*
X92056250Y-63471250D03*
D13*
X86976250Y-63471250D03*
X97136250Y-63471250D03*
D12*
X94596250Y-58391250D03*
X88246250Y-60931250D03*
D11*
X82531250Y-44421250D03*
D13*
X77451250Y-44421250D03*
X87611250Y-44421250D03*
D12*
X85071250Y-39341250D03*
X78721250Y-41881250D03*
D11*
X82531250Y-25371250D03*
D13*
X77451250Y-25371250D03*
X87611250Y-25371250D03*
D12*
X85071250Y-20291250D03*
X78721250Y-22831250D03*
D11*
X75387500Y-120621250D03*
D12*
X71577500Y-118081250D03*
X77927500Y-115541250D03*
D13*
X70307500Y-120621250D03*
X80467500Y-120621250D03*
D11*
X87293750Y-101571250D03*
D13*
X82213750Y-101571250D03*
X92373750Y-101571250D03*
D12*
X89833750Y-96491250D03*
X83483750Y-99031250D03*
D11*
X77768750Y-82521250D03*
D13*
X72688750Y-82521250D03*
X82848750Y-82521250D03*
D12*
X80308750Y-77441250D03*
X73958750Y-79981250D03*
D11*
X63481250Y-44421250D03*
D13*
X58401250Y-44421250D03*
X68561250Y-44421250D03*
D12*
X66021250Y-39341250D03*
X59671250Y-41881250D03*
D11*
X63481250Y-25371250D03*
D13*
X58401250Y-25371250D03*
X68561250Y-25371250D03*
D12*
X66021250Y-20291250D03*
X59671250Y-22831250D03*
D11*
X51575000Y-120621250D03*
D12*
X47765000Y-118081250D03*
X54115000Y-115541250D03*
D13*
X46495000Y-120621250D03*
X56655000Y-120621250D03*
D11*
X68243750Y-101571250D03*
D13*
X63163750Y-101571250D03*
X73323750Y-101571250D03*
D12*
X70783750Y-96491250D03*
X64433750Y-99031250D03*
D11*
X58718750Y-82521250D03*
D13*
X53638750Y-82521250D03*
X63798750Y-82521250D03*
D12*
X61258750Y-77441250D03*
X54908750Y-79981250D03*
D11*
X53956250Y-63471250D03*
D13*
X48876250Y-63471250D03*
X59036250Y-63471250D03*
D12*
X56496250Y-58391250D03*
X50146250Y-60931250D03*
D11*
X44431250Y-44421250D03*
D13*
X39351250Y-44421250D03*
X49511250Y-44421250D03*
D12*
X46971250Y-39341250D03*
X40621250Y-41881250D03*
D11*
X44431250Y-25371250D03*
D13*
X39351250Y-25371250D03*
X49511250Y-25371250D03*
D12*
X46971250Y-20291250D03*
X40621250Y-22831250D03*
D11*
X27762500Y-120621250D03*
D12*
X23952500Y-118081250D03*
X30302500Y-115541250D03*
D13*
X22682500Y-120621250D03*
X32842500Y-120621250D03*
D11*
X37287500Y-101571250D03*
D12*
X33477500Y-99031250D03*
X39827500Y-96491250D03*
D13*
X32207500Y-101571250D03*
X42367500Y-101571250D03*
D14*
X49225500Y-94586250D03*
X25349500Y-94586250D03*
D11*
X25349500Y-109826250D03*
X49225500Y-109826250D03*
X25381250Y-25371250D03*
D13*
X20301250Y-25371250D03*
X30461250Y-25371250D03*
D12*
X27921250Y-20291250D03*
X21571250Y-22831250D03*
M02*
