G04 #@! TF.GenerationSoftware,KiCad,Pcbnew,(5.99.0-1278-g350696ecd)*
G04 #@! TF.CreationDate,2020-05-04T20:37:44-07:00*
G04 #@! TF.ProjectId,Keyboard - 100 Key Custom,4b657962-6f61-4726-9420-2d2031303020,rev?*
G04 #@! TF.SameCoordinates,Original*
G04 #@! TF.FileFunction,Legend,Bot*
G04 #@! TF.FilePolarity,Positive*
%FSLAX46Y46*%
G04 Gerber Fmt 4.6, Leading zero omitted, Abs format (unit mm)*
G04 Created by KiCad (PCBNEW (5.99.0-1278-g350696ecd)) date 2020-05-04 20:37:44*
%MOMM*%
%LPD*%
G01*
G04 APERTURE LIST*
%ADD10C,0.100000*%
%ADD11C,0.120000*%
%ADD12C,0.150000*%
%ADD13C,5.102000*%
%ADD14C,4.089800*%
%ADD15C,2.642000*%
%ADD16C,1.803800*%
%ADD17C,3.150000*%
%ADD18O,0.652000X1.602000*%
G04 APERTURE END LIST*
D10*
X168720000Y-108220000D02*
X168120000Y-108820000D01*
D11*
X169667214Y-109220000D02*
G75*
G03*
X169667214Y-109220000I-447214J0D01*
G01*
G36*
X168020000Y-108020000D02*
G01*
X166620000Y-108020000D01*
X168020000Y-106620000D01*
X168020000Y-108020000D01*
G37*
D10*
X168020000Y-108020000D02*
X166620000Y-108020000D01*
X168020000Y-106620000D01*
X168020000Y-108020000D01*
D12*
X167845000Y-118195000D02*
X167845000Y-117520000D01*
X178195000Y-118195000D02*
X178195000Y-117520000D01*
X178195000Y-107845000D02*
X178195000Y-108520000D01*
X178195000Y-107845000D02*
X177520000Y-107845000D01*
X178195000Y-118195000D02*
X177520000Y-118195000D01*
X167845000Y-118195000D02*
X168520000Y-118195000D01*
D11*
X165544590Y-83662974D02*
X165544590Y-82458846D01*
X163724590Y-83662974D02*
X163724590Y-82458846D01*
X161471923Y-119290988D02*
X162323370Y-120142435D01*
X160184988Y-120577923D02*
X161036435Y-121429370D01*
X162672437Y-118210529D02*
X163041903Y-118579995D01*
X163676529Y-117206437D02*
X164045995Y-117575903D01*
G36*
X38700000Y-76980000D02*
G01*
X37500000Y-76980000D01*
X38100000Y-76180000D01*
X38700000Y-76980000D01*
G37*
D10*
X38700000Y-76980000D02*
X37500000Y-76980000D01*
X38100000Y-76180000D01*
X38700000Y-76980000D01*
D12*
X39000000Y-75179962D02*
X39000000Y-74680000D01*
X38500000Y-75680000D02*
G75*
G03*
X39000000Y-75180000I0J500000D01*
G01*
X39000000Y-74680000D02*
G75*
G03*
X38500000Y-74180000I-500000J0D01*
G01*
X37700000Y-74180000D02*
X38500000Y-74180000D01*
X37700000Y-74180000D02*
G75*
G03*
X37200000Y-74680000I0J-500000D01*
G01*
X37200000Y-74680038D02*
X37200000Y-75180000D01*
X37700000Y-75680000D02*
X38500000Y-75680000D01*
X37200000Y-75180000D02*
G75*
G03*
X37700000Y-75680000I500000J0D01*
G01*
D11*
X160194590Y-78058410D02*
X160194590Y-79308410D01*
X160194590Y-79308410D02*
X161444590Y-79308410D01*
X166694590Y-79308410D02*
X165444590Y-79308410D01*
X166694590Y-78058410D02*
X166694590Y-79308410D01*
X166694590Y-75558410D02*
X160194590Y-75558410D01*
X190659487Y-108082559D02*
X190659487Y-115332559D01*
X187059487Y-108082559D02*
X190659487Y-108082559D01*
X187059487Y-115332559D02*
X187059487Y-108082559D01*
X183560000Y-80380000D02*
X181480000Y-80380000D01*
X179800000Y-84550000D02*
X180290000Y-85040000D01*
X183560000Y-85820000D02*
X181480000Y-85820000D01*
X179800000Y-81650000D02*
X180290000Y-81160000D01*
X179800000Y-81650000D02*
X179800000Y-84550000D01*
X185240000Y-81650000D02*
X184750000Y-81160000D01*
X185240000Y-81650000D02*
X185240000Y-84550000D01*
X185240000Y-84550000D02*
X184750000Y-85040000D01*
X163126591Y-83658974D02*
X163126591Y-82454846D01*
X161306591Y-83658974D02*
X161306591Y-82454846D01*
X178540000Y-87045436D02*
X178540000Y-88249564D01*
X176720000Y-87045436D02*
X176720000Y-88249564D01*
X186350000Y-88249564D02*
X186350000Y-87045436D01*
X188170000Y-88249564D02*
X188170000Y-87045436D01*
X174960000Y-101093748D02*
X174960000Y-101616252D01*
X173540000Y-101093748D02*
X173540000Y-101616252D01*
X178961995Y-122662097D02*
X178592529Y-123031563D01*
X177957903Y-121658005D02*
X177588437Y-122027471D01*
X162762221Y-107595471D02*
X163131687Y-107226005D01*
X163766313Y-108599563D02*
X164135779Y-108230097D01*
X172772000Y-97029748D02*
X172772000Y-97552252D01*
X174192000Y-97029748D02*
X174192000Y-97552252D01*
X192169487Y-110148812D02*
X192169487Y-109626308D01*
X193589487Y-110148812D02*
X193589487Y-109626308D01*
X193589490Y-115126308D02*
X193589490Y-115648812D01*
X192169490Y-115126308D02*
X192169490Y-115648812D01*
X182298748Y-90060000D02*
X182821252Y-90060000D01*
X182298748Y-88640000D02*
X182821252Y-88640000D01*
G36*
X374444029Y-107131250D02*
G01*
X373244029Y-107131250D01*
X373844029Y-106331250D01*
X374444029Y-107131250D01*
G37*
D10*
X374444029Y-107131250D02*
X373244029Y-107131250D01*
X373844029Y-106331250D01*
X374444029Y-107131250D01*
D12*
X374744029Y-105331212D02*
X374744029Y-104831250D01*
X374244029Y-105831250D02*
G75*
G03*
X374744029Y-105331250I0J500000D01*
G01*
X374744029Y-104831250D02*
G75*
G03*
X374244029Y-104331250I-500000J0D01*
G01*
X373444029Y-104331250D02*
X374244029Y-104331250D01*
X373444029Y-104331250D02*
G75*
G03*
X372944029Y-104831250I0J-500000D01*
G01*
X372944029Y-104831288D02*
X372944029Y-105331250D01*
X373444029Y-105831250D02*
X374244029Y-105831250D01*
X372944029Y-105331250D02*
G75*
G03*
X373444029Y-105831250I500000J0D01*
G01*
G36*
X374451250Y-76980000D02*
G01*
X373251250Y-76980000D01*
X373851250Y-76180000D01*
X374451250Y-76980000D01*
G37*
D10*
X374451250Y-76980000D02*
X373251250Y-76980000D01*
X373851250Y-76180000D01*
X374451250Y-76980000D01*
D12*
X374751250Y-75179962D02*
X374751250Y-74680000D01*
X374251250Y-75680000D02*
G75*
G03*
X374751250Y-75180000I0J500000D01*
G01*
X374751250Y-74680000D02*
G75*
G03*
X374251250Y-74180000I-500000J0D01*
G01*
X373451250Y-74180000D02*
X374251250Y-74180000D01*
X373451250Y-74180000D02*
G75*
G03*
X372951250Y-74680000I0J-500000D01*
G01*
X372951250Y-74680038D02*
X372951250Y-75180000D01*
X373451250Y-75680000D02*
X374251250Y-75680000D01*
X372951250Y-75180000D02*
G75*
G03*
X373451250Y-75680000I500000J0D01*
G01*
G36*
X374451250Y-57940000D02*
G01*
X373251250Y-57940000D01*
X373851250Y-57140000D01*
X374451250Y-57940000D01*
G37*
D10*
X374451250Y-57940000D02*
X373251250Y-57940000D01*
X373851250Y-57140000D01*
X374451250Y-57940000D01*
D12*
X374751250Y-56139962D02*
X374751250Y-55640000D01*
X374251250Y-56640000D02*
G75*
G03*
X374751250Y-56140000I0J500000D01*
G01*
X374751250Y-55640000D02*
G75*
G03*
X374251250Y-55140000I-500000J0D01*
G01*
X373451250Y-55140000D02*
X374251250Y-55140000D01*
X373451250Y-55140000D02*
G75*
G03*
X372951250Y-55640000I0J-500000D01*
G01*
X372951250Y-55640038D02*
X372951250Y-56140000D01*
X373451250Y-56640000D02*
X374251250Y-56640000D01*
X372951250Y-56140000D02*
G75*
G03*
X373451250Y-56640000I500000J0D01*
G01*
G36*
X374461250Y-38808999D02*
G01*
X373261250Y-38808999D01*
X373861250Y-38008999D01*
X374461250Y-38808999D01*
G37*
D10*
X374461250Y-38808999D02*
X373261250Y-38808999D01*
X373861250Y-38008999D01*
X374461250Y-38808999D01*
D12*
X374761250Y-37008961D02*
X374761250Y-36508999D01*
X374261250Y-37508999D02*
G75*
G03*
X374761250Y-37008999I0J500000D01*
G01*
X374761250Y-36508999D02*
G75*
G03*
X374261250Y-36008999I-500000J0D01*
G01*
X373461250Y-36008999D02*
X374261250Y-36008999D01*
X373461250Y-36008999D02*
G75*
G03*
X372961250Y-36508999I0J-500000D01*
G01*
X372961250Y-36509037D02*
X372961250Y-37008999D01*
X373461250Y-37508999D02*
X374261250Y-37508999D01*
X372961250Y-37008999D02*
G75*
G03*
X373461250Y-37508999I500000J0D01*
G01*
G36*
X374471250Y-19632999D02*
G01*
X373271250Y-19632999D01*
X373871250Y-18832999D01*
X374471250Y-19632999D01*
G37*
D10*
X374471250Y-19632999D02*
X373271250Y-19632999D01*
X373871250Y-18832999D01*
X374471250Y-19632999D01*
D12*
X374771250Y-17832961D02*
X374771250Y-17332999D01*
X374271250Y-18332999D02*
G75*
G03*
X374771250Y-17832999I0J500000D01*
G01*
X374771250Y-17332999D02*
G75*
G03*
X374271250Y-16832999I-500000J0D01*
G01*
X373471250Y-16832999D02*
X374271250Y-16832999D01*
X373471250Y-16832999D02*
G75*
G03*
X372971250Y-17332999I0J-500000D01*
G01*
X372971250Y-17333037D02*
X372971250Y-17832999D01*
X373471250Y-18332999D02*
X374271250Y-18332999D01*
X372971250Y-17832999D02*
G75*
G03*
X373471250Y-18332999I500000J0D01*
G01*
X353901250Y-113408000D02*
G75*
G03*
X354401250Y-113908000I500000J0D01*
G01*
X354401250Y-113908000D02*
X355201250Y-113908000D01*
X353901250Y-112908038D02*
X353901250Y-113408000D01*
X354401250Y-112408000D02*
G75*
G03*
X353901250Y-112908000I0J-500000D01*
G01*
X354401250Y-112408000D02*
X355201250Y-112408000D01*
X355701250Y-112908000D02*
G75*
G03*
X355201250Y-112408000I-500000J0D01*
G01*
X355201250Y-113908000D02*
G75*
G03*
X355701250Y-113408000I0J500000D01*
G01*
X355701250Y-113407962D02*
X355701250Y-112908000D01*
G36*
X355401250Y-115208000D02*
G01*
X354201250Y-115208000D01*
X354801250Y-114408000D01*
X355401250Y-115208000D01*
G37*
D10*
X355401250Y-115208000D02*
X354201250Y-115208000D01*
X354801250Y-114408000D01*
X355401250Y-115208000D01*
G36*
X355404166Y-96030000D02*
G01*
X354204166Y-96030000D01*
X354804166Y-95230000D01*
X355404166Y-96030000D01*
G37*
X355404166Y-96030000D02*
X354204166Y-96030000D01*
X354804166Y-95230000D01*
X355404166Y-96030000D01*
D12*
X355704166Y-94229962D02*
X355704166Y-93730000D01*
X355204166Y-94730000D02*
G75*
G03*
X355704166Y-94230000I0J500000D01*
G01*
X355704166Y-93730000D02*
G75*
G03*
X355204166Y-93230000I-500000J0D01*
G01*
X354404166Y-93230000D02*
X355204166Y-93230000D01*
X354404166Y-93230000D02*
G75*
G03*
X353904166Y-93730000I0J-500000D01*
G01*
X353904166Y-93730038D02*
X353904166Y-94230000D01*
X354404166Y-94730000D02*
X355204166Y-94730000D01*
X353904166Y-94230000D02*
G75*
G03*
X354404166Y-94730000I500000J0D01*
G01*
G36*
X355391250Y-76980000D02*
G01*
X354191250Y-76980000D01*
X354791250Y-76180000D01*
X355391250Y-76980000D01*
G37*
D10*
X355391250Y-76980000D02*
X354191250Y-76980000D01*
X354791250Y-76180000D01*
X355391250Y-76980000D01*
D12*
X355691250Y-75179962D02*
X355691250Y-74680000D01*
X355191250Y-75680000D02*
G75*
G03*
X355691250Y-75180000I0J500000D01*
G01*
X355691250Y-74680000D02*
G75*
G03*
X355191250Y-74180000I-500000J0D01*
G01*
X354391250Y-74180000D02*
X355191250Y-74180000D01*
X354391250Y-74180000D02*
G75*
G03*
X353891250Y-74680000I0J-500000D01*
G01*
X353891250Y-74680038D02*
X353891250Y-75180000D01*
X354391250Y-75680000D02*
X355191250Y-75680000D01*
X353891250Y-75180000D02*
G75*
G03*
X354391250Y-75680000I500000J0D01*
G01*
G36*
X355391250Y-57940000D02*
G01*
X354191250Y-57940000D01*
X354791250Y-57140000D01*
X355391250Y-57940000D01*
G37*
D10*
X355391250Y-57940000D02*
X354191250Y-57940000D01*
X354791250Y-57140000D01*
X355391250Y-57940000D01*
D12*
X355691250Y-56139962D02*
X355691250Y-55640000D01*
X355191250Y-56640000D02*
G75*
G03*
X355691250Y-56140000I0J500000D01*
G01*
X355691250Y-55640000D02*
G75*
G03*
X355191250Y-55140000I-500000J0D01*
G01*
X354391250Y-55140000D02*
X355191250Y-55140000D01*
X354391250Y-55140000D02*
G75*
G03*
X353891250Y-55640000I0J-500000D01*
G01*
X353891250Y-55640038D02*
X353891250Y-56140000D01*
X354391250Y-56640000D02*
X355191250Y-56640000D01*
X353891250Y-56140000D02*
G75*
G03*
X354391250Y-56640000I500000J0D01*
G01*
G36*
X355421250Y-38808999D02*
G01*
X354221250Y-38808999D01*
X354821250Y-38008999D01*
X355421250Y-38808999D01*
G37*
D10*
X355421250Y-38808999D02*
X354221250Y-38808999D01*
X354821250Y-38008999D01*
X355421250Y-38808999D01*
D12*
X355721250Y-37008961D02*
X355721250Y-36508999D01*
X355221250Y-37508999D02*
G75*
G03*
X355721250Y-37008999I0J500000D01*
G01*
X355721250Y-36508999D02*
G75*
G03*
X355221250Y-36008999I-500000J0D01*
G01*
X354421250Y-36008999D02*
X355221250Y-36008999D01*
X354421250Y-36008999D02*
G75*
G03*
X353921250Y-36508999I0J-500000D01*
G01*
X353921250Y-36509037D02*
X353921250Y-37008999D01*
X354421250Y-37508999D02*
X355221250Y-37508999D01*
X353921250Y-37008999D02*
G75*
G03*
X354421250Y-37508999I500000J0D01*
G01*
G36*
X355421250Y-19632999D02*
G01*
X354221250Y-19632999D01*
X354821250Y-18832999D01*
X355421250Y-19632999D01*
G37*
D10*
X355421250Y-19632999D02*
X354221250Y-19632999D01*
X354821250Y-18832999D01*
X355421250Y-19632999D01*
D12*
X355721250Y-17832961D02*
X355721250Y-17332999D01*
X355221250Y-18332999D02*
G75*
G03*
X355721250Y-17832999I0J500000D01*
G01*
X355721250Y-17332999D02*
G75*
G03*
X355221250Y-16832999I-500000J0D01*
G01*
X354421250Y-16832999D02*
X355221250Y-16832999D01*
X354421250Y-16832999D02*
G75*
G03*
X353921250Y-17332999I0J-500000D01*
G01*
X353921250Y-17333037D02*
X353921250Y-17832999D01*
X354421250Y-18332999D02*
X355221250Y-18332999D01*
X353921250Y-17832999D02*
G75*
G03*
X354421250Y-18332999I500000J0D01*
G01*
X334851250Y-113418000D02*
G75*
G03*
X335351250Y-113918000I500000J0D01*
G01*
X335351250Y-113918000D02*
X336151250Y-113918000D01*
X334851250Y-112918038D02*
X334851250Y-113418000D01*
X335351250Y-112418000D02*
G75*
G03*
X334851250Y-112918000I0J-500000D01*
G01*
X335351250Y-112418000D02*
X336151250Y-112418000D01*
X336651250Y-112918000D02*
G75*
G03*
X336151250Y-112418000I-500000J0D01*
G01*
X336151250Y-113918000D02*
G75*
G03*
X336651250Y-113418000I0J500000D01*
G01*
X336651250Y-113417962D02*
X336651250Y-112918000D01*
G36*
X336351250Y-115218000D02*
G01*
X335151250Y-115218000D01*
X335751250Y-114418000D01*
X336351250Y-115218000D01*
G37*
D10*
X336351250Y-115218000D02*
X335151250Y-115218000D01*
X335751250Y-114418000D01*
X336351250Y-115218000D01*
G36*
X336351250Y-96030000D02*
G01*
X335151250Y-96030000D01*
X335751250Y-95230000D01*
X336351250Y-96030000D01*
G37*
X336351250Y-96030000D02*
X335151250Y-96030000D01*
X335751250Y-95230000D01*
X336351250Y-96030000D01*
D12*
X336651250Y-94229962D02*
X336651250Y-93730000D01*
X336151250Y-94730000D02*
G75*
G03*
X336651250Y-94230000I0J500000D01*
G01*
X336651250Y-93730000D02*
G75*
G03*
X336151250Y-93230000I-500000J0D01*
G01*
X335351250Y-93230000D02*
X336151250Y-93230000D01*
X335351250Y-93230000D02*
G75*
G03*
X334851250Y-93730000I0J-500000D01*
G01*
X334851250Y-93730038D02*
X334851250Y-94230000D01*
X335351250Y-94730000D02*
X336151250Y-94730000D01*
X334851250Y-94230000D02*
G75*
G03*
X335351250Y-94730000I500000J0D01*
G01*
G36*
X336351250Y-76980000D02*
G01*
X335151250Y-76980000D01*
X335751250Y-76180000D01*
X336351250Y-76980000D01*
G37*
D10*
X336351250Y-76980000D02*
X335151250Y-76980000D01*
X335751250Y-76180000D01*
X336351250Y-76980000D01*
D12*
X336651250Y-75179962D02*
X336651250Y-74680000D01*
X336151250Y-75680000D02*
G75*
G03*
X336651250Y-75180000I0J500000D01*
G01*
X336651250Y-74680000D02*
G75*
G03*
X336151250Y-74180000I-500000J0D01*
G01*
X335351250Y-74180000D02*
X336151250Y-74180000D01*
X335351250Y-74180000D02*
G75*
G03*
X334851250Y-74680000I0J-500000D01*
G01*
X334851250Y-74680038D02*
X334851250Y-75180000D01*
X335351250Y-75680000D02*
X336151250Y-75680000D01*
X334851250Y-75180000D02*
G75*
G03*
X335351250Y-75680000I500000J0D01*
G01*
G36*
X336351250Y-57940000D02*
G01*
X335151250Y-57940000D01*
X335751250Y-57140000D01*
X336351250Y-57940000D01*
G37*
D10*
X336351250Y-57940000D02*
X335151250Y-57940000D01*
X335751250Y-57140000D01*
X336351250Y-57940000D01*
D12*
X336651250Y-56139962D02*
X336651250Y-55640000D01*
X336151250Y-56640000D02*
G75*
G03*
X336651250Y-56140000I0J500000D01*
G01*
X336651250Y-55640000D02*
G75*
G03*
X336151250Y-55140000I-500000J0D01*
G01*
X335351250Y-55140000D02*
X336151250Y-55140000D01*
X335351250Y-55140000D02*
G75*
G03*
X334851250Y-55640000I0J-500000D01*
G01*
X334851250Y-55640038D02*
X334851250Y-56140000D01*
X335351250Y-56640000D02*
X336151250Y-56640000D01*
X334851250Y-56140000D02*
G75*
G03*
X335351250Y-56640000I500000J0D01*
G01*
G36*
X336361250Y-38808999D02*
G01*
X335161250Y-38808999D01*
X335761250Y-38008999D01*
X336361250Y-38808999D01*
G37*
D10*
X336361250Y-38808999D02*
X335161250Y-38808999D01*
X335761250Y-38008999D01*
X336361250Y-38808999D01*
D12*
X336661250Y-37008961D02*
X336661250Y-36508999D01*
X336161250Y-37508999D02*
G75*
G03*
X336661250Y-37008999I0J500000D01*
G01*
X336661250Y-36508999D02*
G75*
G03*
X336161250Y-36008999I-500000J0D01*
G01*
X335361250Y-36008999D02*
X336161250Y-36008999D01*
X335361250Y-36008999D02*
G75*
G03*
X334861250Y-36508999I0J-500000D01*
G01*
X334861250Y-36509037D02*
X334861250Y-37008999D01*
X335361250Y-37508999D02*
X336161250Y-37508999D01*
X334861250Y-37008999D02*
G75*
G03*
X335361250Y-37508999I500000J0D01*
G01*
G36*
X336371250Y-19632999D02*
G01*
X335171250Y-19632999D01*
X335771250Y-18832999D01*
X336371250Y-19632999D01*
G37*
D10*
X336371250Y-19632999D02*
X335171250Y-19632999D01*
X335771250Y-18832999D01*
X336371250Y-19632999D01*
D12*
X336671250Y-17832961D02*
X336671250Y-17332999D01*
X336171250Y-18332999D02*
G75*
G03*
X336671250Y-17832999I0J500000D01*
G01*
X336671250Y-17332999D02*
G75*
G03*
X336171250Y-16832999I-500000J0D01*
G01*
X335371250Y-16832999D02*
X336171250Y-16832999D01*
X335371250Y-16832999D02*
G75*
G03*
X334871250Y-17332999I0J-500000D01*
G01*
X334871250Y-17333037D02*
X334871250Y-17832999D01*
X335371250Y-18332999D02*
X336171250Y-18332999D01*
X334871250Y-17832999D02*
G75*
G03*
X335371250Y-18332999I500000J0D01*
G01*
X315791250Y-113418000D02*
G75*
G03*
X316291250Y-113918000I500000J0D01*
G01*
X316291250Y-113918000D02*
X317091250Y-113918000D01*
X315791250Y-112918038D02*
X315791250Y-113418000D01*
X316291250Y-112418000D02*
G75*
G03*
X315791250Y-112918000I0J-500000D01*
G01*
X316291250Y-112418000D02*
X317091250Y-112418000D01*
X317591250Y-112918000D02*
G75*
G03*
X317091250Y-112418000I-500000J0D01*
G01*
X317091250Y-113918000D02*
G75*
G03*
X317591250Y-113418000I0J500000D01*
G01*
X317591250Y-113417962D02*
X317591250Y-112918000D01*
G36*
X317291250Y-115218000D02*
G01*
X316091250Y-115218000D01*
X316691250Y-114418000D01*
X317291250Y-115218000D01*
G37*
D10*
X317291250Y-115218000D02*
X316091250Y-115218000D01*
X316691250Y-114418000D01*
X317291250Y-115218000D01*
G36*
X317291250Y-96030000D02*
G01*
X316091250Y-96030000D01*
X316691250Y-95230000D01*
X317291250Y-96030000D01*
G37*
X317291250Y-96030000D02*
X316091250Y-96030000D01*
X316691250Y-95230000D01*
X317291250Y-96030000D01*
D12*
X317591250Y-94229962D02*
X317591250Y-93730000D01*
X317091250Y-94730000D02*
G75*
G03*
X317591250Y-94230000I0J500000D01*
G01*
X317591250Y-93730000D02*
G75*
G03*
X317091250Y-93230000I-500000J0D01*
G01*
X316291250Y-93230000D02*
X317091250Y-93230000D01*
X316291250Y-93230000D02*
G75*
G03*
X315791250Y-93730000I0J-500000D01*
G01*
X315791250Y-93730038D02*
X315791250Y-94230000D01*
X316291250Y-94730000D02*
X317091250Y-94730000D01*
X315791250Y-94230000D02*
G75*
G03*
X316291250Y-94730000I500000J0D01*
G01*
G36*
X317301250Y-76980000D02*
G01*
X316101250Y-76980000D01*
X316701250Y-76180000D01*
X317301250Y-76980000D01*
G37*
D10*
X317301250Y-76980000D02*
X316101250Y-76980000D01*
X316701250Y-76180000D01*
X317301250Y-76980000D01*
D12*
X317601250Y-75179962D02*
X317601250Y-74680000D01*
X317101250Y-75680000D02*
G75*
G03*
X317601250Y-75180000I0J500000D01*
G01*
X317601250Y-74680000D02*
G75*
G03*
X317101250Y-74180000I-500000J0D01*
G01*
X316301250Y-74180000D02*
X317101250Y-74180000D01*
X316301250Y-74180000D02*
G75*
G03*
X315801250Y-74680000I0J-500000D01*
G01*
X315801250Y-74680038D02*
X315801250Y-75180000D01*
X316301250Y-75680000D02*
X317101250Y-75680000D01*
X315801250Y-75180000D02*
G75*
G03*
X316301250Y-75680000I500000J0D01*
G01*
G36*
X317301250Y-57940000D02*
G01*
X316101250Y-57940000D01*
X316701250Y-57140000D01*
X317301250Y-57940000D01*
G37*
D10*
X317301250Y-57940000D02*
X316101250Y-57940000D01*
X316701250Y-57140000D01*
X317301250Y-57940000D01*
D12*
X317601250Y-56139962D02*
X317601250Y-55640000D01*
X317101250Y-56640000D02*
G75*
G03*
X317601250Y-56140000I0J500000D01*
G01*
X317601250Y-55640000D02*
G75*
G03*
X317101250Y-55140000I-500000J0D01*
G01*
X316301250Y-55140000D02*
X317101250Y-55140000D01*
X316301250Y-55140000D02*
G75*
G03*
X315801250Y-55640000I0J-500000D01*
G01*
X315801250Y-55640038D02*
X315801250Y-56140000D01*
X316301250Y-56640000D02*
X317101250Y-56640000D01*
X315801250Y-56140000D02*
G75*
G03*
X316301250Y-56640000I500000J0D01*
G01*
G36*
X317321250Y-38808999D02*
G01*
X316121250Y-38808999D01*
X316721250Y-38008999D01*
X317321250Y-38808999D01*
G37*
D10*
X317321250Y-38808999D02*
X316121250Y-38808999D01*
X316721250Y-38008999D01*
X317321250Y-38808999D01*
D12*
X317621250Y-37008961D02*
X317621250Y-36508999D01*
X317121250Y-37508999D02*
G75*
G03*
X317621250Y-37008999I0J500000D01*
G01*
X317621250Y-36508999D02*
G75*
G03*
X317121250Y-36008999I-500000J0D01*
G01*
X316321250Y-36008999D02*
X317121250Y-36008999D01*
X316321250Y-36008999D02*
G75*
G03*
X315821250Y-36508999I0J-500000D01*
G01*
X315821250Y-36509037D02*
X315821250Y-37008999D01*
X316321250Y-37508999D02*
X317121250Y-37508999D01*
X315821250Y-37008999D02*
G75*
G03*
X316321250Y-37508999I500000J0D01*
G01*
G36*
X317311250Y-19632999D02*
G01*
X316111250Y-19632999D01*
X316711250Y-18832999D01*
X317311250Y-19632999D01*
G37*
D10*
X317311250Y-19632999D02*
X316111250Y-19632999D01*
X316711250Y-18832999D01*
X317311250Y-19632999D01*
D12*
X317611250Y-17832961D02*
X317611250Y-17332999D01*
X317111250Y-18332999D02*
G75*
G03*
X317611250Y-17832999I0J500000D01*
G01*
X317611250Y-17332999D02*
G75*
G03*
X317111250Y-16832999I-500000J0D01*
G01*
X316311250Y-16832999D02*
X317111250Y-16832999D01*
X316311250Y-16832999D02*
G75*
G03*
X315811250Y-17332999I0J-500000D01*
G01*
X315811250Y-17333037D02*
X315811250Y-17832999D01*
X316311250Y-18332999D02*
X317111250Y-18332999D01*
X315811250Y-17832999D02*
G75*
G03*
X316311250Y-18332999I500000J0D01*
G01*
G36*
X298261250Y-19632999D02*
G01*
X297061250Y-19632999D01*
X297661250Y-18832999D01*
X298261250Y-19632999D01*
G37*
D10*
X298261250Y-19632999D02*
X297061250Y-19632999D01*
X297661250Y-18832999D01*
X298261250Y-19632999D01*
D12*
X298561250Y-17832961D02*
X298561250Y-17332999D01*
X298061250Y-18332999D02*
G75*
G03*
X298561250Y-17832999I0J500000D01*
G01*
X298561250Y-17332999D02*
G75*
G03*
X298061250Y-16832999I-500000J0D01*
G01*
X297261250Y-16832999D02*
X298061250Y-16832999D01*
X297261250Y-16832999D02*
G75*
G03*
X296761250Y-17332999I0J-500000D01*
G01*
X296761250Y-17333037D02*
X296761250Y-17832999D01*
X297261250Y-18332999D02*
X298061250Y-18332999D01*
X296761250Y-17832999D02*
G75*
G03*
X297261250Y-18332999I500000J0D01*
G01*
X296741250Y-113418000D02*
G75*
G03*
X297241250Y-113918000I500000J0D01*
G01*
X297241250Y-113918000D02*
X298041250Y-113918000D01*
X296741250Y-112918038D02*
X296741250Y-113418000D01*
X297241250Y-112418000D02*
G75*
G03*
X296741250Y-112918000I0J-500000D01*
G01*
X297241250Y-112418000D02*
X298041250Y-112418000D01*
X298541250Y-112918000D02*
G75*
G03*
X298041250Y-112418000I-500000J0D01*
G01*
X298041250Y-113918000D02*
G75*
G03*
X298541250Y-113418000I0J500000D01*
G01*
X298541250Y-113417962D02*
X298541250Y-112918000D01*
G36*
X298241250Y-115218000D02*
G01*
X297041250Y-115218000D01*
X297641250Y-114418000D01*
X298241250Y-115218000D01*
G37*
D10*
X298241250Y-115218000D02*
X297041250Y-115218000D01*
X297641250Y-114418000D01*
X298241250Y-115218000D01*
G36*
X298241250Y-96030000D02*
G01*
X297041250Y-96030000D01*
X297641250Y-95230000D01*
X298241250Y-96030000D01*
G37*
X298241250Y-96030000D02*
X297041250Y-96030000D01*
X297641250Y-95230000D01*
X298241250Y-96030000D01*
D12*
X298541250Y-94229962D02*
X298541250Y-93730000D01*
X298041250Y-94730000D02*
G75*
G03*
X298541250Y-94230000I0J500000D01*
G01*
X298541250Y-93730000D02*
G75*
G03*
X298041250Y-93230000I-500000J0D01*
G01*
X297241250Y-93230000D02*
X298041250Y-93230000D01*
X297241250Y-93230000D02*
G75*
G03*
X296741250Y-93730000I0J-500000D01*
G01*
X296741250Y-93730038D02*
X296741250Y-94230000D01*
X297241250Y-94730000D02*
X298041250Y-94730000D01*
X296741250Y-94230000D02*
G75*
G03*
X297241250Y-94730000I500000J0D01*
G01*
G36*
X286351250Y-76980000D02*
G01*
X285151250Y-76980000D01*
X285751250Y-76180000D01*
X286351250Y-76980000D01*
G37*
D10*
X286351250Y-76980000D02*
X285151250Y-76980000D01*
X285751250Y-76180000D01*
X286351250Y-76980000D01*
D12*
X286651250Y-75179962D02*
X286651250Y-74680000D01*
X286151250Y-75680000D02*
G75*
G03*
X286651250Y-75180000I0J500000D01*
G01*
X286651250Y-74680000D02*
G75*
G03*
X286151250Y-74180000I-500000J0D01*
G01*
X285351250Y-74180000D02*
X286151250Y-74180000D01*
X285351250Y-74180000D02*
G75*
G03*
X284851250Y-74680000I0J-500000D01*
G01*
X284851250Y-74680038D02*
X284851250Y-75180000D01*
X285351250Y-75680000D02*
X286151250Y-75680000D01*
X284851250Y-75180000D02*
G75*
G03*
X285351250Y-75680000I500000J0D01*
G01*
G36*
X293491250Y-57940000D02*
G01*
X292291250Y-57940000D01*
X292891250Y-57140000D01*
X293491250Y-57940000D01*
G37*
D10*
X293491250Y-57940000D02*
X292291250Y-57940000D01*
X292891250Y-57140000D01*
X293491250Y-57940000D01*
D12*
X293791250Y-56139962D02*
X293791250Y-55640000D01*
X293291250Y-56640000D02*
G75*
G03*
X293791250Y-56140000I0J500000D01*
G01*
X293791250Y-55640000D02*
G75*
G03*
X293291250Y-55140000I-500000J0D01*
G01*
X292491250Y-55140000D02*
X293291250Y-55140000D01*
X292491250Y-55140000D02*
G75*
G03*
X291991250Y-55640000I0J-500000D01*
G01*
X291991250Y-55640038D02*
X291991250Y-56140000D01*
X292491250Y-56640000D02*
X293291250Y-56640000D01*
X291991250Y-56140000D02*
G75*
G03*
X292491250Y-56640000I500000J0D01*
G01*
G36*
X288741250Y-38808999D02*
G01*
X287541250Y-38808999D01*
X288141250Y-38008999D01*
X288741250Y-38808999D01*
G37*
D10*
X288741250Y-38808999D02*
X287541250Y-38808999D01*
X288141250Y-38008999D01*
X288741250Y-38808999D01*
D12*
X289041250Y-37008961D02*
X289041250Y-36508999D01*
X288541250Y-37508999D02*
G75*
G03*
X289041250Y-37008999I0J500000D01*
G01*
X289041250Y-36508999D02*
G75*
G03*
X288541250Y-36008999I-500000J0D01*
G01*
X287741250Y-36008999D02*
X288541250Y-36008999D01*
X287741250Y-36008999D02*
G75*
G03*
X287241250Y-36508999I0J-500000D01*
G01*
X287241250Y-36509037D02*
X287241250Y-37008999D01*
X287741250Y-37508999D02*
X288541250Y-37508999D01*
X287241250Y-37008999D02*
G75*
G03*
X287741250Y-37508999I500000J0D01*
G01*
G36*
X279211250Y-19632999D02*
G01*
X278011250Y-19632999D01*
X278611250Y-18832999D01*
X279211250Y-19632999D01*
G37*
D10*
X279211250Y-19632999D02*
X278011250Y-19632999D01*
X278611250Y-18832999D01*
X279211250Y-19632999D01*
D12*
X279511250Y-17832961D02*
X279511250Y-17332999D01*
X279011250Y-18332999D02*
G75*
G03*
X279511250Y-17832999I0J500000D01*
G01*
X279511250Y-17332999D02*
G75*
G03*
X279011250Y-16832999I-500000J0D01*
G01*
X278211250Y-16832999D02*
X279011250Y-16832999D01*
X278211250Y-16832999D02*
G75*
G03*
X277711250Y-17332999I0J-500000D01*
G01*
X277711250Y-17333037D02*
X277711250Y-17832999D01*
X278211250Y-18332999D02*
X279011250Y-18332999D01*
X277711250Y-17832999D02*
G75*
G03*
X278211250Y-18332999I500000J0D01*
G01*
X277701250Y-113418000D02*
G75*
G03*
X278201250Y-113918000I500000J0D01*
G01*
X278201250Y-113918000D02*
X279001250Y-113918000D01*
X277701250Y-112918038D02*
X277701250Y-113418000D01*
X278201250Y-112418000D02*
G75*
G03*
X277701250Y-112918000I0J-500000D01*
G01*
X278201250Y-112418000D02*
X279001250Y-112418000D01*
X279501250Y-112918000D02*
G75*
G03*
X279001250Y-112418000I-500000J0D01*
G01*
X279001250Y-113918000D02*
G75*
G03*
X279501250Y-113418000I0J500000D01*
G01*
X279501250Y-113417962D02*
X279501250Y-112918000D01*
G36*
X279201250Y-115218000D02*
G01*
X278001250Y-115218000D01*
X278601250Y-114418000D01*
X279201250Y-115218000D01*
G37*
D10*
X279201250Y-115218000D02*
X278001250Y-115218000D01*
X278601250Y-114418000D01*
X279201250Y-115218000D01*
G36*
X272051250Y-96030000D02*
G01*
X270851250Y-96030000D01*
X271451250Y-95230000D01*
X272051250Y-96030000D01*
G37*
X272051250Y-96030000D02*
X270851250Y-96030000D01*
X271451250Y-95230000D01*
X272051250Y-96030000D01*
D12*
X272351250Y-94229962D02*
X272351250Y-93730000D01*
X271851250Y-94730000D02*
G75*
G03*
X272351250Y-94230000I0J500000D01*
G01*
X272351250Y-93730000D02*
G75*
G03*
X271851250Y-93230000I-500000J0D01*
G01*
X271051250Y-93230000D02*
X271851250Y-93230000D01*
X271051250Y-93230000D02*
G75*
G03*
X270551250Y-93730000I0J-500000D01*
G01*
X270551250Y-93730038D02*
X270551250Y-94230000D01*
X271051250Y-94730000D02*
X271851250Y-94730000D01*
X270551250Y-94230000D02*
G75*
G03*
X271051250Y-94730000I500000J0D01*
G01*
G36*
X269681250Y-57940000D02*
G01*
X268481250Y-57940000D01*
X269081250Y-57140000D01*
X269681250Y-57940000D01*
G37*
D10*
X269681250Y-57940000D02*
X268481250Y-57940000D01*
X269081250Y-57140000D01*
X269681250Y-57940000D01*
D12*
X269981250Y-56139962D02*
X269981250Y-55640000D01*
X269481250Y-56640000D02*
G75*
G03*
X269981250Y-56140000I0J500000D01*
G01*
X269981250Y-55640000D02*
G75*
G03*
X269481250Y-55140000I-500000J0D01*
G01*
X268681250Y-55140000D02*
X269481250Y-55140000D01*
X268681250Y-55140000D02*
G75*
G03*
X268181250Y-55640000I0J-500000D01*
G01*
X268181250Y-55640038D02*
X268181250Y-56140000D01*
X268681250Y-56640000D02*
X269481250Y-56640000D01*
X268181250Y-56140000D02*
G75*
G03*
X268681250Y-56640000I500000J0D01*
G01*
G36*
X260161250Y-38808999D02*
G01*
X258961250Y-38808999D01*
X259561250Y-38008999D01*
X260161250Y-38808999D01*
G37*
D10*
X260161250Y-38808999D02*
X258961250Y-38808999D01*
X259561250Y-38008999D01*
X260161250Y-38808999D01*
D12*
X260461250Y-37008961D02*
X260461250Y-36508999D01*
X259961250Y-37508999D02*
G75*
G03*
X260461250Y-37008999I0J500000D01*
G01*
X260461250Y-36508999D02*
G75*
G03*
X259961250Y-36008999I-500000J0D01*
G01*
X259161250Y-36008999D02*
X259961250Y-36008999D01*
X259161250Y-36008999D02*
G75*
G03*
X258661250Y-36508999I0J-500000D01*
G01*
X258661250Y-36509037D02*
X258661250Y-37008999D01*
X259161250Y-37508999D02*
X259961250Y-37508999D01*
X258661250Y-37008999D02*
G75*
G03*
X259161250Y-37508999I500000J0D01*
G01*
G36*
X260161250Y-19632999D02*
G01*
X258961250Y-19632999D01*
X259561250Y-18832999D01*
X260161250Y-19632999D01*
G37*
D10*
X260161250Y-19632999D02*
X258961250Y-19632999D01*
X259561250Y-18832999D01*
X260161250Y-19632999D01*
D12*
X260461250Y-17832961D02*
X260461250Y-17332999D01*
X259961250Y-18332999D02*
G75*
G03*
X260461250Y-17832999I0J500000D01*
G01*
X260461250Y-17332999D02*
G75*
G03*
X259961250Y-16832999I-500000J0D01*
G01*
X259161250Y-16832999D02*
X259961250Y-16832999D01*
X259161250Y-16832999D02*
G75*
G03*
X258661250Y-17332999I0J-500000D01*
G01*
X258661250Y-17333037D02*
X258661250Y-17832999D01*
X259161250Y-18332999D02*
X259961250Y-18332999D01*
X258661250Y-17832999D02*
G75*
G03*
X259161250Y-18332999I500000J0D01*
G01*
X258651250Y-113418000D02*
G75*
G03*
X259151250Y-113918000I500000J0D01*
G01*
X259151250Y-113918000D02*
X259951250Y-113918000D01*
X258651250Y-112918038D02*
X258651250Y-113418000D01*
X259151250Y-112418000D02*
G75*
G03*
X258651250Y-112918000I0J-500000D01*
G01*
X259151250Y-112418000D02*
X259951250Y-112418000D01*
X260451250Y-112918000D02*
G75*
G03*
X259951250Y-112418000I-500000J0D01*
G01*
X259951250Y-113918000D02*
G75*
G03*
X260451250Y-113418000I0J500000D01*
G01*
X260451250Y-113417962D02*
X260451250Y-112918000D01*
G36*
X260151250Y-115218000D02*
G01*
X258951250Y-115218000D01*
X259551250Y-114418000D01*
X260151250Y-115218000D01*
G37*
D10*
X260151250Y-115218000D02*
X258951250Y-115218000D01*
X259551250Y-114418000D01*
X260151250Y-115218000D01*
G36*
X255381250Y-76960000D02*
G01*
X254181250Y-76960000D01*
X254781250Y-76160000D01*
X255381250Y-76960000D01*
G37*
X255381250Y-76960000D02*
X254181250Y-76960000D01*
X254781250Y-76160000D01*
X255381250Y-76960000D01*
D12*
X255681250Y-75159962D02*
X255681250Y-74660000D01*
X255181250Y-75660000D02*
G75*
G03*
X255681250Y-75160000I0J500000D01*
G01*
X255681250Y-74660000D02*
G75*
G03*
X255181250Y-74160000I-500000J0D01*
G01*
X254381250Y-74160000D02*
X255181250Y-74160000D01*
X254381250Y-74160000D02*
G75*
G03*
X253881250Y-74660000I0J-500000D01*
G01*
X253881250Y-74660038D02*
X253881250Y-75160000D01*
X254381250Y-75660000D02*
X255181250Y-75660000D01*
X253881250Y-75160000D02*
G75*
G03*
X254381250Y-75660000I500000J0D01*
G01*
G36*
X250621250Y-57940000D02*
G01*
X249421250Y-57940000D01*
X250021250Y-57140000D01*
X250621250Y-57940000D01*
G37*
D10*
X250621250Y-57940000D02*
X249421250Y-57940000D01*
X250021250Y-57140000D01*
X250621250Y-57940000D01*
D12*
X250921250Y-56139962D02*
X250921250Y-55640000D01*
X250421250Y-56640000D02*
G75*
G03*
X250921250Y-56140000I0J500000D01*
G01*
X250921250Y-55640000D02*
G75*
G03*
X250421250Y-55140000I-500000J0D01*
G01*
X249621250Y-55140000D02*
X250421250Y-55140000D01*
X249621250Y-55140000D02*
G75*
G03*
X249121250Y-55640000I0J-500000D01*
G01*
X249121250Y-55640038D02*
X249121250Y-56140000D01*
X249621250Y-56640000D02*
X250421250Y-56640000D01*
X249121250Y-56140000D02*
G75*
G03*
X249621250Y-56640000I500000J0D01*
G01*
G36*
X241111250Y-38808999D02*
G01*
X239911250Y-38808999D01*
X240511250Y-38008999D01*
X241111250Y-38808999D01*
G37*
D10*
X241111250Y-38808999D02*
X239911250Y-38808999D01*
X240511250Y-38008999D01*
X241111250Y-38808999D01*
D12*
X241411250Y-37008961D02*
X241411250Y-36508999D01*
X240911250Y-37508999D02*
G75*
G03*
X241411250Y-37008999I0J500000D01*
G01*
X241411250Y-36508999D02*
G75*
G03*
X240911250Y-36008999I-500000J0D01*
G01*
X240111250Y-36008999D02*
X240911250Y-36008999D01*
X240111250Y-36008999D02*
G75*
G03*
X239611250Y-36508999I0J-500000D01*
G01*
X239611250Y-36509037D02*
X239611250Y-37008999D01*
X240111250Y-37508999D02*
X240911250Y-37508999D01*
X239611250Y-37008999D02*
G75*
G03*
X240111250Y-37508999I500000J0D01*
G01*
G36*
X241111250Y-19632999D02*
G01*
X239911250Y-19632999D01*
X240511250Y-18832999D01*
X241111250Y-19632999D01*
G37*
D10*
X241111250Y-19632999D02*
X239911250Y-19632999D01*
X240511250Y-18832999D01*
X241111250Y-19632999D01*
D12*
X241411250Y-17832961D02*
X241411250Y-17332999D01*
X240911250Y-18332999D02*
G75*
G03*
X241411250Y-17832999I0J500000D01*
G01*
X241411250Y-17332999D02*
G75*
G03*
X240911250Y-16832999I-500000J0D01*
G01*
X240111250Y-16832999D02*
X240911250Y-16832999D01*
X240111250Y-16832999D02*
G75*
G03*
X239611250Y-17332999I0J-500000D01*
G01*
X239611250Y-17333037D02*
X239611250Y-17832999D01*
X240111250Y-18332999D02*
X240911250Y-18332999D01*
X239611250Y-17832999D02*
G75*
G03*
X240111250Y-18332999I500000J0D01*
G01*
X239601250Y-113418000D02*
G75*
G03*
X240101250Y-113918000I500000J0D01*
G01*
X240101250Y-113918000D02*
X240901250Y-113918000D01*
X239601250Y-112918038D02*
X239601250Y-113418000D01*
X240101250Y-112418000D02*
G75*
G03*
X239601250Y-112918000I0J-500000D01*
G01*
X240101250Y-112418000D02*
X240901250Y-112418000D01*
X241401250Y-112918000D02*
G75*
G03*
X240901250Y-112418000I-500000J0D01*
G01*
X240901250Y-113918000D02*
G75*
G03*
X241401250Y-113418000I0J500000D01*
G01*
X241401250Y-113417962D02*
X241401250Y-112918000D01*
G36*
X241101250Y-115218000D02*
G01*
X239901250Y-115218000D01*
X240501250Y-114418000D01*
X241101250Y-115218000D01*
G37*
D10*
X241101250Y-115218000D02*
X239901250Y-115218000D01*
X240501250Y-114418000D01*
X241101250Y-115218000D01*
G36*
X245851250Y-96030000D02*
G01*
X244651250Y-96030000D01*
X245251250Y-95230000D01*
X245851250Y-96030000D01*
G37*
X245851250Y-96030000D02*
X244651250Y-96030000D01*
X245251250Y-95230000D01*
X245851250Y-96030000D01*
D12*
X246151250Y-94229962D02*
X246151250Y-93730000D01*
X245651250Y-94730000D02*
G75*
G03*
X246151250Y-94230000I0J500000D01*
G01*
X246151250Y-93730000D02*
G75*
G03*
X245651250Y-93230000I-500000J0D01*
G01*
X244851250Y-93230000D02*
X245651250Y-93230000D01*
X244851250Y-93230000D02*
G75*
G03*
X244351250Y-93730000I0J-500000D01*
G01*
X244351250Y-93730038D02*
X244351250Y-94230000D01*
X244851250Y-94730000D02*
X245651250Y-94730000D01*
X244351250Y-94230000D02*
G75*
G03*
X244851250Y-94730000I500000J0D01*
G01*
G36*
X236341250Y-76980000D02*
G01*
X235141250Y-76980000D01*
X235741250Y-76180000D01*
X236341250Y-76980000D01*
G37*
D10*
X236341250Y-76980000D02*
X235141250Y-76980000D01*
X235741250Y-76180000D01*
X236341250Y-76980000D01*
D12*
X236641250Y-75179962D02*
X236641250Y-74680000D01*
X236141250Y-75680000D02*
G75*
G03*
X236641250Y-75180000I0J500000D01*
G01*
X236641250Y-74680000D02*
G75*
G03*
X236141250Y-74180000I-500000J0D01*
G01*
X235341250Y-74180000D02*
X236141250Y-74180000D01*
X235341250Y-74180000D02*
G75*
G03*
X234841250Y-74680000I0J-500000D01*
G01*
X234841250Y-74680038D02*
X234841250Y-75180000D01*
X235341250Y-75680000D02*
X236141250Y-75680000D01*
X234841250Y-75180000D02*
G75*
G03*
X235341250Y-75680000I500000J0D01*
G01*
G36*
X231571250Y-57940000D02*
G01*
X230371250Y-57940000D01*
X230971250Y-57140000D01*
X231571250Y-57940000D01*
G37*
D10*
X231571250Y-57940000D02*
X230371250Y-57940000D01*
X230971250Y-57140000D01*
X231571250Y-57940000D01*
D12*
X231871250Y-56139962D02*
X231871250Y-55640000D01*
X231371250Y-56640000D02*
G75*
G03*
X231871250Y-56140000I0J500000D01*
G01*
X231871250Y-55640000D02*
G75*
G03*
X231371250Y-55140000I-500000J0D01*
G01*
X230571250Y-55140000D02*
X231371250Y-55140000D01*
X230571250Y-55140000D02*
G75*
G03*
X230071250Y-55640000I0J-500000D01*
G01*
X230071250Y-55640038D02*
X230071250Y-56140000D01*
X230571250Y-56640000D02*
X231371250Y-56640000D01*
X230071250Y-56140000D02*
G75*
G03*
X230571250Y-56640000I500000J0D01*
G01*
G36*
X222071250Y-38808999D02*
G01*
X220871250Y-38808999D01*
X221471250Y-38008999D01*
X222071250Y-38808999D01*
G37*
D10*
X222071250Y-38808999D02*
X220871250Y-38808999D01*
X221471250Y-38008999D01*
X222071250Y-38808999D01*
D12*
X222371250Y-37008961D02*
X222371250Y-36508999D01*
X221871250Y-37508999D02*
G75*
G03*
X222371250Y-37008999I0J500000D01*
G01*
X222371250Y-36508999D02*
G75*
G03*
X221871250Y-36008999I-500000J0D01*
G01*
X221071250Y-36008999D02*
X221871250Y-36008999D01*
X221071250Y-36008999D02*
G75*
G03*
X220571250Y-36508999I0J-500000D01*
G01*
X220571250Y-36509037D02*
X220571250Y-37008999D01*
X221071250Y-37508999D02*
X221871250Y-37508999D01*
X220571250Y-37008999D02*
G75*
G03*
X221071250Y-37508999I500000J0D01*
G01*
G36*
X222061250Y-19632999D02*
G01*
X220861250Y-19632999D01*
X221461250Y-18832999D01*
X222061250Y-19632999D01*
G37*
D10*
X222061250Y-19632999D02*
X220861250Y-19632999D01*
X221461250Y-18832999D01*
X222061250Y-19632999D01*
D12*
X222361250Y-17832961D02*
X222361250Y-17332999D01*
X221861250Y-18332999D02*
G75*
G03*
X222361250Y-17832999I0J500000D01*
G01*
X222361250Y-17332999D02*
G75*
G03*
X221861250Y-16832999I-500000J0D01*
G01*
X221061250Y-16832999D02*
X221861250Y-16832999D01*
X221061250Y-16832999D02*
G75*
G03*
X220561250Y-17332999I0J-500000D01*
G01*
X220561250Y-17333037D02*
X220561250Y-17832999D01*
X221061250Y-18332999D02*
X221861250Y-18332999D01*
X220561250Y-17832999D02*
G75*
G03*
X221061250Y-18332999I500000J0D01*
G01*
X220551250Y-113408000D02*
G75*
G03*
X221051250Y-113908000I500000J0D01*
G01*
X221051250Y-113908000D02*
X221851250Y-113908000D01*
X220551250Y-112908038D02*
X220551250Y-113408000D01*
X221051250Y-112408000D02*
G75*
G03*
X220551250Y-112908000I0J-500000D01*
G01*
X221051250Y-112408000D02*
X221851250Y-112408000D01*
X222351250Y-112908000D02*
G75*
G03*
X221851250Y-112408000I-500000J0D01*
G01*
X221851250Y-113908000D02*
G75*
G03*
X222351250Y-113408000I0J500000D01*
G01*
X222351250Y-113407962D02*
X222351250Y-112908000D01*
G36*
X222051250Y-115208000D02*
G01*
X220851250Y-115208000D01*
X221451250Y-114408000D01*
X222051250Y-115208000D01*
G37*
D10*
X222051250Y-115208000D02*
X220851250Y-115208000D01*
X221451250Y-114408000D01*
X222051250Y-115208000D01*
G36*
X226821250Y-96030000D02*
G01*
X225621250Y-96030000D01*
X226221250Y-95230000D01*
X226821250Y-96030000D01*
G37*
X226821250Y-96030000D02*
X225621250Y-96030000D01*
X226221250Y-95230000D01*
X226821250Y-96030000D01*
D12*
X227121250Y-94229962D02*
X227121250Y-93730000D01*
X226621250Y-94730000D02*
G75*
G03*
X227121250Y-94230000I0J500000D01*
G01*
X227121250Y-93730000D02*
G75*
G03*
X226621250Y-93230000I-500000J0D01*
G01*
X225821250Y-93230000D02*
X226621250Y-93230000D01*
X225821250Y-93230000D02*
G75*
G03*
X225321250Y-93730000I0J-500000D01*
G01*
X225321250Y-93730038D02*
X225321250Y-94230000D01*
X225821250Y-94730000D02*
X226621250Y-94730000D01*
X225321250Y-94230000D02*
G75*
G03*
X225821250Y-94730000I500000J0D01*
G01*
G36*
X217281250Y-76980000D02*
G01*
X216081250Y-76980000D01*
X216681250Y-76180000D01*
X217281250Y-76980000D01*
G37*
D10*
X217281250Y-76980000D02*
X216081250Y-76980000D01*
X216681250Y-76180000D01*
X217281250Y-76980000D01*
D12*
X217581250Y-75179962D02*
X217581250Y-74680000D01*
X217081250Y-75680000D02*
G75*
G03*
X217581250Y-75180000I0J500000D01*
G01*
X217581250Y-74680000D02*
G75*
G03*
X217081250Y-74180000I-500000J0D01*
G01*
X216281250Y-74180000D02*
X217081250Y-74180000D01*
X216281250Y-74180000D02*
G75*
G03*
X215781250Y-74680000I0J-500000D01*
G01*
X215781250Y-74680038D02*
X215781250Y-75180000D01*
X216281250Y-75680000D02*
X217081250Y-75680000D01*
X215781250Y-75180000D02*
G75*
G03*
X216281250Y-75680000I500000J0D01*
G01*
G36*
X212531250Y-57940000D02*
G01*
X211331250Y-57940000D01*
X211931250Y-57140000D01*
X212531250Y-57940000D01*
G37*
D10*
X212531250Y-57940000D02*
X211331250Y-57940000D01*
X211931250Y-57140000D01*
X212531250Y-57940000D01*
D12*
X212831250Y-56139962D02*
X212831250Y-55640000D01*
X212331250Y-56640000D02*
G75*
G03*
X212831250Y-56140000I0J500000D01*
G01*
X212831250Y-55640000D02*
G75*
G03*
X212331250Y-55140000I-500000J0D01*
G01*
X211531250Y-55140000D02*
X212331250Y-55140000D01*
X211531250Y-55140000D02*
G75*
G03*
X211031250Y-55640000I0J-500000D01*
G01*
X211031250Y-55640038D02*
X211031250Y-56140000D01*
X211531250Y-56640000D02*
X212331250Y-56640000D01*
X211031250Y-56140000D02*
G75*
G03*
X211531250Y-56640000I500000J0D01*
G01*
G36*
X203011250Y-38808999D02*
G01*
X201811250Y-38808999D01*
X202411250Y-38008999D01*
X203011250Y-38808999D01*
G37*
D10*
X203011250Y-38808999D02*
X201811250Y-38808999D01*
X202411250Y-38008999D01*
X203011250Y-38808999D01*
D12*
X203311250Y-37008961D02*
X203311250Y-36508999D01*
X202811250Y-37508999D02*
G75*
G03*
X203311250Y-37008999I0J500000D01*
G01*
X203311250Y-36508999D02*
G75*
G03*
X202811250Y-36008999I-500000J0D01*
G01*
X202011250Y-36008999D02*
X202811250Y-36008999D01*
X202011250Y-36008999D02*
G75*
G03*
X201511250Y-36508999I0J-500000D01*
G01*
X201511250Y-36509037D02*
X201511250Y-37008999D01*
X202011250Y-37508999D02*
X202811250Y-37508999D01*
X201511250Y-37008999D02*
G75*
G03*
X202011250Y-37508999I500000J0D01*
G01*
X201521250Y-17832999D02*
G75*
G03*
X202021250Y-18332999I500000J0D01*
G01*
X202021250Y-18332999D02*
X202821250Y-18332999D01*
X201521250Y-17333037D02*
X201521250Y-17832999D01*
X202021250Y-16832999D02*
G75*
G03*
X201521250Y-17332999I0J-500000D01*
G01*
X202021250Y-16832999D02*
X202821250Y-16832999D01*
X203321250Y-17332999D02*
G75*
G03*
X202821250Y-16832999I-500000J0D01*
G01*
X202821250Y-18332999D02*
G75*
G03*
X203321250Y-17832999I0J500000D01*
G01*
X203321250Y-17832961D02*
X203321250Y-17332999D01*
G36*
X203021250Y-19632999D02*
G01*
X201821250Y-19632999D01*
X202421250Y-18832999D01*
X203021250Y-19632999D01*
G37*
D10*
X203021250Y-19632999D02*
X201821250Y-19632999D01*
X202421250Y-18832999D01*
X203021250Y-19632999D01*
G36*
X207761250Y-96030000D02*
G01*
X206561250Y-96030000D01*
X207161250Y-95230000D01*
X207761250Y-96030000D01*
G37*
X207761250Y-96030000D02*
X206561250Y-96030000D01*
X207161250Y-95230000D01*
X207761250Y-96030000D01*
D12*
X208061250Y-94229962D02*
X208061250Y-93730000D01*
X207561250Y-94730000D02*
G75*
G03*
X208061250Y-94230000I0J500000D01*
G01*
X208061250Y-93730000D02*
G75*
G03*
X207561250Y-93230000I-500000J0D01*
G01*
X206761250Y-93230000D02*
X207561250Y-93230000D01*
X206761250Y-93230000D02*
G75*
G03*
X206261250Y-93730000I0J-500000D01*
G01*
X206261250Y-93730038D02*
X206261250Y-94230000D01*
X206761250Y-94730000D02*
X207561250Y-94730000D01*
X206261250Y-94230000D02*
G75*
G03*
X206761250Y-94730000I500000J0D01*
G01*
G36*
X198250000Y-76980000D02*
G01*
X197050000Y-76980000D01*
X197650000Y-76180000D01*
X198250000Y-76980000D01*
G37*
D10*
X198250000Y-76980000D02*
X197050000Y-76980000D01*
X197650000Y-76180000D01*
X198250000Y-76980000D01*
D12*
X198550000Y-75179962D02*
X198550000Y-74680000D01*
X198050000Y-75680000D02*
G75*
G03*
X198550000Y-75180000I0J500000D01*
G01*
X198550000Y-74680000D02*
G75*
G03*
X198050000Y-74180000I-500000J0D01*
G01*
X197250000Y-74180000D02*
X198050000Y-74180000D01*
X197250000Y-74180000D02*
G75*
G03*
X196750000Y-74680000I0J-500000D01*
G01*
X196750000Y-74680038D02*
X196750000Y-75180000D01*
X197250000Y-75680000D02*
X198050000Y-75680000D01*
X196750000Y-75180000D02*
G75*
G03*
X197250000Y-75680000I500000J0D01*
G01*
G36*
X193491250Y-57930000D02*
G01*
X192291250Y-57930000D01*
X192891250Y-57130000D01*
X193491250Y-57930000D01*
G37*
D10*
X193491250Y-57930000D02*
X192291250Y-57930000D01*
X192891250Y-57130000D01*
X193491250Y-57930000D01*
D12*
X193791250Y-56129962D02*
X193791250Y-55630000D01*
X193291250Y-56630000D02*
G75*
G03*
X193791250Y-56130000I0J500000D01*
G01*
X193791250Y-55630000D02*
G75*
G03*
X193291250Y-55130000I-500000J0D01*
G01*
X192491250Y-55130000D02*
X193291250Y-55130000D01*
X192491250Y-55130000D02*
G75*
G03*
X191991250Y-55630000I0J-500000D01*
G01*
X191991250Y-55630038D02*
X191991250Y-56130000D01*
X192491250Y-56630000D02*
X193291250Y-56630000D01*
X191991250Y-56130000D02*
G75*
G03*
X192491250Y-56630000I500000J0D01*
G01*
G36*
X183971250Y-38808999D02*
G01*
X182771250Y-38808999D01*
X183371250Y-38008999D01*
X183971250Y-38808999D01*
G37*
D10*
X183971250Y-38808999D02*
X182771250Y-38808999D01*
X183371250Y-38008999D01*
X183971250Y-38808999D01*
D12*
X184271250Y-37008961D02*
X184271250Y-36508999D01*
X183771250Y-37508999D02*
G75*
G03*
X184271250Y-37008999I0J500000D01*
G01*
X184271250Y-36508999D02*
G75*
G03*
X183771250Y-36008999I-500000J0D01*
G01*
X182971250Y-36008999D02*
X183771250Y-36008999D01*
X182971250Y-36008999D02*
G75*
G03*
X182471250Y-36508999I0J-500000D01*
G01*
X182471250Y-36509037D02*
X182471250Y-37008999D01*
X182971250Y-37508999D02*
X183771250Y-37508999D01*
X182471250Y-37008999D02*
G75*
G03*
X182971250Y-37508999I500000J0D01*
G01*
G36*
X183971250Y-19632999D02*
G01*
X182771250Y-19632999D01*
X183371250Y-18832999D01*
X183971250Y-19632999D01*
G37*
D10*
X183971250Y-19632999D02*
X182771250Y-19632999D01*
X183371250Y-18832999D01*
X183971250Y-19632999D01*
D12*
X184271250Y-17832961D02*
X184271250Y-17332999D01*
X183771250Y-18332999D02*
G75*
G03*
X184271250Y-17832999I0J500000D01*
G01*
X184271250Y-17332999D02*
G75*
G03*
X183771250Y-16832999I-500000J0D01*
G01*
X182971250Y-16832999D02*
X183771250Y-16832999D01*
X182971250Y-16832999D02*
G75*
G03*
X182471250Y-17332999I0J-500000D01*
G01*
X182471250Y-17333037D02*
X182471250Y-17832999D01*
X182971250Y-18332999D02*
X183771250Y-18332999D01*
X182471250Y-17832999D02*
G75*
G03*
X182971250Y-18332999I500000J0D01*
G01*
G36*
X188711250Y-96030000D02*
G01*
X187511250Y-96030000D01*
X188111250Y-95230000D01*
X188711250Y-96030000D01*
G37*
D10*
X188711250Y-96030000D02*
X187511250Y-96030000D01*
X188111250Y-95230000D01*
X188711250Y-96030000D01*
D12*
X189011250Y-94229962D02*
X189011250Y-93730000D01*
X188511250Y-94730000D02*
G75*
G03*
X189011250Y-94230000I0J500000D01*
G01*
X189011250Y-93730000D02*
G75*
G03*
X188511250Y-93230000I-500000J0D01*
G01*
X187711250Y-93230000D02*
X188511250Y-93230000D01*
X187711250Y-93230000D02*
G75*
G03*
X187211250Y-93730000I0J-500000D01*
G01*
X187211250Y-93730038D02*
X187211250Y-94230000D01*
X187711250Y-94730000D02*
X188511250Y-94730000D01*
X187211250Y-94230000D02*
G75*
G03*
X187711250Y-94730000I500000J0D01*
G01*
G36*
X179188602Y-76960000D02*
G01*
X177988602Y-76960000D01*
X178588602Y-76160000D01*
X179188602Y-76960000D01*
G37*
D10*
X179188602Y-76960000D02*
X177988602Y-76960000D01*
X178588602Y-76160000D01*
X179188602Y-76960000D01*
D12*
X179488602Y-75159962D02*
X179488602Y-74660000D01*
X178988602Y-75660000D02*
G75*
G03*
X179488602Y-75160000I0J500000D01*
G01*
X179488602Y-74660000D02*
G75*
G03*
X178988602Y-74160000I-500000J0D01*
G01*
X178188602Y-74160000D02*
X178988602Y-74160000D01*
X178188602Y-74160000D02*
G75*
G03*
X177688602Y-74660000I0J-500000D01*
G01*
X177688602Y-74660038D02*
X177688602Y-75160000D01*
X178188602Y-75660000D02*
X178988602Y-75660000D01*
X177688602Y-75160000D02*
G75*
G03*
X178188602Y-75660000I500000J0D01*
G01*
G36*
X174431250Y-57930000D02*
G01*
X173231250Y-57930000D01*
X173831250Y-57130000D01*
X174431250Y-57930000D01*
G37*
D10*
X174431250Y-57930000D02*
X173231250Y-57930000D01*
X173831250Y-57130000D01*
X174431250Y-57930000D01*
D12*
X174731250Y-56129962D02*
X174731250Y-55630000D01*
X174231250Y-56630000D02*
G75*
G03*
X174731250Y-56130000I0J500000D01*
G01*
X174731250Y-55630000D02*
G75*
G03*
X174231250Y-55130000I-500000J0D01*
G01*
X173431250Y-55130000D02*
X174231250Y-55130000D01*
X173431250Y-55130000D02*
G75*
G03*
X172931250Y-55630000I0J-500000D01*
G01*
X172931250Y-55630038D02*
X172931250Y-56130000D01*
X173431250Y-56630000D02*
X174231250Y-56630000D01*
X172931250Y-56130000D02*
G75*
G03*
X173431250Y-56630000I500000J0D01*
G01*
G36*
X164911250Y-38808999D02*
G01*
X163711250Y-38808999D01*
X164311250Y-38008999D01*
X164911250Y-38808999D01*
G37*
D10*
X164911250Y-38808999D02*
X163711250Y-38808999D01*
X164311250Y-38008999D01*
X164911250Y-38808999D01*
D12*
X165211250Y-37008961D02*
X165211250Y-36508999D01*
X164711250Y-37508999D02*
G75*
G03*
X165211250Y-37008999I0J500000D01*
G01*
X165211250Y-36508999D02*
G75*
G03*
X164711250Y-36008999I-500000J0D01*
G01*
X163911250Y-36008999D02*
X164711250Y-36008999D01*
X163911250Y-36008999D02*
G75*
G03*
X163411250Y-36508999I0J-500000D01*
G01*
X163411250Y-36509037D02*
X163411250Y-37008999D01*
X163911250Y-37508999D02*
X164711250Y-37508999D01*
X163411250Y-37008999D02*
G75*
G03*
X163911250Y-37508999I500000J0D01*
G01*
X163421250Y-17832999D02*
G75*
G03*
X163921250Y-18332999I500000J0D01*
G01*
X163921250Y-18332999D02*
X164721250Y-18332999D01*
X163421250Y-17333037D02*
X163421250Y-17832999D01*
X163921250Y-16832999D02*
G75*
G03*
X163421250Y-17332999I0J-500000D01*
G01*
X163921250Y-16832999D02*
X164721250Y-16832999D01*
X165221250Y-17332999D02*
G75*
G03*
X164721250Y-16832999I-500000J0D01*
G01*
X164721250Y-18332999D02*
G75*
G03*
X165221250Y-17832999I0J500000D01*
G01*
X165221250Y-17832961D02*
X165221250Y-17332999D01*
G36*
X164921250Y-19632999D02*
G01*
X163721250Y-19632999D01*
X164321250Y-18832999D01*
X164921250Y-19632999D01*
G37*
D10*
X164921250Y-19632999D02*
X163721250Y-19632999D01*
X164321250Y-18832999D01*
X164921250Y-19632999D01*
G36*
X163414000Y-96030000D02*
G01*
X162214000Y-96030000D01*
X162814000Y-95230000D01*
X163414000Y-96030000D01*
G37*
X163414000Y-96030000D02*
X162214000Y-96030000D01*
X162814000Y-95230000D01*
X163414000Y-96030000D01*
D12*
X163714000Y-94229962D02*
X163714000Y-93730000D01*
X163214000Y-94730000D02*
G75*
G03*
X163714000Y-94230000I0J500000D01*
G01*
X163714000Y-93730000D02*
G75*
G03*
X163214000Y-93230000I-500000J0D01*
G01*
X162414000Y-93230000D02*
X163214000Y-93230000D01*
X162414000Y-93230000D02*
G75*
G03*
X161914000Y-93730000I0J-500000D01*
G01*
X161914000Y-93730038D02*
X161914000Y-94230000D01*
X162414000Y-94730000D02*
X163214000Y-94730000D01*
X161914000Y-94230000D02*
G75*
G03*
X162414000Y-94730000I500000J0D01*
G01*
G36*
X153762000Y-76980000D02*
G01*
X152562000Y-76980000D01*
X153162000Y-76180000D01*
X153762000Y-76980000D01*
G37*
D10*
X153762000Y-76980000D02*
X152562000Y-76980000D01*
X153162000Y-76180000D01*
X153762000Y-76980000D01*
D12*
X154062000Y-75179962D02*
X154062000Y-74680000D01*
X153562000Y-75680000D02*
G75*
G03*
X154062000Y-75180000I0J500000D01*
G01*
X154062000Y-74680000D02*
G75*
G03*
X153562000Y-74180000I-500000J0D01*
G01*
X152762000Y-74180000D02*
X153562000Y-74180000D01*
X152762000Y-74180000D02*
G75*
G03*
X152262000Y-74680000I0J-500000D01*
G01*
X152262000Y-74680038D02*
X152262000Y-75180000D01*
X152762000Y-75680000D02*
X153562000Y-75680000D01*
X152262000Y-75180000D02*
G75*
G03*
X152762000Y-75680000I500000J0D01*
G01*
G36*
X155391250Y-57930000D02*
G01*
X154191250Y-57930000D01*
X154791250Y-57130000D01*
X155391250Y-57930000D01*
G37*
D10*
X155391250Y-57930000D02*
X154191250Y-57930000D01*
X154791250Y-57130000D01*
X155391250Y-57930000D01*
D12*
X155691250Y-56129962D02*
X155691250Y-55630000D01*
X155191250Y-56630000D02*
G75*
G03*
X155691250Y-56130000I0J500000D01*
G01*
X155691250Y-55630000D02*
G75*
G03*
X155191250Y-55130000I-500000J0D01*
G01*
X154391250Y-55130000D02*
X155191250Y-55130000D01*
X154391250Y-55130000D02*
G75*
G03*
X153891250Y-55630000I0J-500000D01*
G01*
X153891250Y-55630038D02*
X153891250Y-56130000D01*
X154391250Y-56630000D02*
X155191250Y-56630000D01*
X153891250Y-56130000D02*
G75*
G03*
X154391250Y-56630000I500000J0D01*
G01*
G36*
X145861250Y-38808999D02*
G01*
X144661250Y-38808999D01*
X145261250Y-38008999D01*
X145861250Y-38808999D01*
G37*
D10*
X145861250Y-38808999D02*
X144661250Y-38808999D01*
X145261250Y-38008999D01*
X145861250Y-38808999D01*
D12*
X146161250Y-37008961D02*
X146161250Y-36508999D01*
X145661250Y-37508999D02*
G75*
G03*
X146161250Y-37008999I0J500000D01*
G01*
X146161250Y-36508999D02*
G75*
G03*
X145661250Y-36008999I-500000J0D01*
G01*
X144861250Y-36008999D02*
X145661250Y-36008999D01*
X144861250Y-36008999D02*
G75*
G03*
X144361250Y-36508999I0J-500000D01*
G01*
X144361250Y-36509037D02*
X144361250Y-37008999D01*
X144861250Y-37508999D02*
X145661250Y-37508999D01*
X144361250Y-37008999D02*
G75*
G03*
X144861250Y-37508999I500000J0D01*
G01*
G36*
X145861250Y-19632999D02*
G01*
X144661250Y-19632999D01*
X145261250Y-18832999D01*
X145861250Y-19632999D01*
G37*
D10*
X145861250Y-19632999D02*
X144661250Y-19632999D01*
X145261250Y-18832999D01*
X145861250Y-19632999D01*
D12*
X146161250Y-17832961D02*
X146161250Y-17332999D01*
X145661250Y-18332999D02*
G75*
G03*
X146161250Y-17832999I0J500000D01*
G01*
X146161250Y-17332999D02*
G75*
G03*
X145661250Y-16832999I-500000J0D01*
G01*
X144861250Y-16832999D02*
X145661250Y-16832999D01*
X144861250Y-16832999D02*
G75*
G03*
X144361250Y-17332999I0J-500000D01*
G01*
X144361250Y-17333037D02*
X144361250Y-17832999D01*
X144861250Y-18332999D02*
X145661250Y-18332999D01*
X144361250Y-17832999D02*
G75*
G03*
X144861250Y-18332999I500000J0D01*
G01*
X151491250Y-113408000D02*
G75*
G03*
X151991250Y-113908000I500000J0D01*
G01*
X151991250Y-113908000D02*
X152791250Y-113908000D01*
X151491250Y-112908038D02*
X151491250Y-113408000D01*
X151991250Y-112408000D02*
G75*
G03*
X151491250Y-112908000I0J-500000D01*
G01*
X151991250Y-112408000D02*
X152791250Y-112408000D01*
X153291250Y-112908000D02*
G75*
G03*
X152791250Y-112408000I-500000J0D01*
G01*
X152791250Y-113908000D02*
G75*
G03*
X153291250Y-113408000I0J500000D01*
G01*
X153291250Y-113407962D02*
X153291250Y-112908000D01*
G36*
X152991250Y-115208000D02*
G01*
X151791250Y-115208000D01*
X152391250Y-114408000D01*
X152991250Y-115208000D01*
G37*
D10*
X152991250Y-115208000D02*
X151791250Y-115208000D01*
X152391250Y-114408000D01*
X152991250Y-115208000D01*
G36*
X150611250Y-96030000D02*
G01*
X149411250Y-96030000D01*
X150011250Y-95230000D01*
X150611250Y-96030000D01*
G37*
X150611250Y-96030000D02*
X149411250Y-96030000D01*
X150011250Y-95230000D01*
X150611250Y-96030000D01*
D12*
X150911250Y-94229962D02*
X150911250Y-93730000D01*
X150411250Y-94730000D02*
G75*
G03*
X150911250Y-94230000I0J500000D01*
G01*
X150911250Y-93730000D02*
G75*
G03*
X150411250Y-93230000I-500000J0D01*
G01*
X149611250Y-93230000D02*
X150411250Y-93230000D01*
X149611250Y-93230000D02*
G75*
G03*
X149111250Y-93730000I0J-500000D01*
G01*
X149111250Y-93730038D02*
X149111250Y-94230000D01*
X149611250Y-94730000D02*
X150411250Y-94730000D01*
X149111250Y-94230000D02*
G75*
G03*
X149611250Y-94730000I500000J0D01*
G01*
G36*
X141081250Y-76980000D02*
G01*
X139881250Y-76980000D01*
X140481250Y-76180000D01*
X141081250Y-76980000D01*
G37*
D10*
X141081250Y-76980000D02*
X139881250Y-76980000D01*
X140481250Y-76180000D01*
X141081250Y-76980000D01*
D12*
X141381250Y-75179962D02*
X141381250Y-74680000D01*
X140881250Y-75680000D02*
G75*
G03*
X141381250Y-75180000I0J500000D01*
G01*
X141381250Y-74680000D02*
G75*
G03*
X140881250Y-74180000I-500000J0D01*
G01*
X140081250Y-74180000D02*
X140881250Y-74180000D01*
X140081250Y-74180000D02*
G75*
G03*
X139581250Y-74680000I0J-500000D01*
G01*
X139581250Y-74680038D02*
X139581250Y-75180000D01*
X140081250Y-75680000D02*
X140881250Y-75680000D01*
X139581250Y-75180000D02*
G75*
G03*
X140081250Y-75680000I500000J0D01*
G01*
G36*
X136331250Y-57930000D02*
G01*
X135131250Y-57930000D01*
X135731250Y-57130000D01*
X136331250Y-57930000D01*
G37*
D10*
X136331250Y-57930000D02*
X135131250Y-57930000D01*
X135731250Y-57130000D01*
X136331250Y-57930000D01*
D12*
X136631250Y-56129962D02*
X136631250Y-55630000D01*
X136131250Y-56630000D02*
G75*
G03*
X136631250Y-56130000I0J500000D01*
G01*
X136631250Y-55630000D02*
G75*
G03*
X136131250Y-55130000I-500000J0D01*
G01*
X135331250Y-55130000D02*
X136131250Y-55130000D01*
X135331250Y-55130000D02*
G75*
G03*
X134831250Y-55630000I0J-500000D01*
G01*
X134831250Y-55630038D02*
X134831250Y-56130000D01*
X135331250Y-56630000D02*
X136131250Y-56630000D01*
X134831250Y-56130000D02*
G75*
G03*
X135331250Y-56630000I500000J0D01*
G01*
G36*
X126811250Y-38808999D02*
G01*
X125611250Y-38808999D01*
X126211250Y-38008999D01*
X126811250Y-38808999D01*
G37*
D10*
X126811250Y-38808999D02*
X125611250Y-38808999D01*
X126211250Y-38008999D01*
X126811250Y-38808999D01*
D12*
X127111250Y-37008961D02*
X127111250Y-36508999D01*
X126611250Y-37508999D02*
G75*
G03*
X127111250Y-37008999I0J500000D01*
G01*
X127111250Y-36508999D02*
G75*
G03*
X126611250Y-36008999I-500000J0D01*
G01*
X125811250Y-36008999D02*
X126611250Y-36008999D01*
X125811250Y-36008999D02*
G75*
G03*
X125311250Y-36508999I0J-500000D01*
G01*
X125311250Y-36509037D02*
X125311250Y-37008999D01*
X125811250Y-37508999D02*
X126611250Y-37508999D01*
X125311250Y-37008999D02*
G75*
G03*
X125811250Y-37508999I500000J0D01*
G01*
G36*
X126811250Y-19632999D02*
G01*
X125611250Y-19632999D01*
X126211250Y-18832999D01*
X126811250Y-19632999D01*
G37*
D10*
X126811250Y-19632999D02*
X125611250Y-19632999D01*
X126211250Y-18832999D01*
X126811250Y-19632999D01*
D12*
X127111250Y-17832961D02*
X127111250Y-17332999D01*
X126611250Y-18332999D02*
G75*
G03*
X127111250Y-17832999I0J500000D01*
G01*
X127111250Y-17332999D02*
G75*
G03*
X126611250Y-16832999I-500000J0D01*
G01*
X125811250Y-16832999D02*
X126611250Y-16832999D01*
X125811250Y-16832999D02*
G75*
G03*
X125311250Y-17332999I0J-500000D01*
G01*
X125311250Y-17333037D02*
X125311250Y-17832999D01*
X125811250Y-18332999D02*
X126611250Y-18332999D01*
X125311250Y-17832999D02*
G75*
G03*
X125811250Y-18332999I500000J0D01*
G01*
G36*
X131561250Y-96030000D02*
G01*
X130361250Y-96030000D01*
X130961250Y-95230000D01*
X131561250Y-96030000D01*
G37*
D10*
X131561250Y-96030000D02*
X130361250Y-96030000D01*
X130961250Y-95230000D01*
X131561250Y-96030000D01*
D12*
X131861250Y-94229962D02*
X131861250Y-93730000D01*
X131361250Y-94730000D02*
G75*
G03*
X131861250Y-94230000I0J500000D01*
G01*
X131861250Y-93730000D02*
G75*
G03*
X131361250Y-93230000I-500000J0D01*
G01*
X130561250Y-93230000D02*
X131361250Y-93230000D01*
X130561250Y-93230000D02*
G75*
G03*
X130061250Y-93730000I0J-500000D01*
G01*
X130061250Y-93730038D02*
X130061250Y-94230000D01*
X130561250Y-94730000D02*
X131361250Y-94730000D01*
X130061250Y-94230000D02*
G75*
G03*
X130561250Y-94730000I500000J0D01*
G01*
G36*
X122041250Y-76980000D02*
G01*
X120841250Y-76980000D01*
X121441250Y-76180000D01*
X122041250Y-76980000D01*
G37*
D10*
X122041250Y-76980000D02*
X120841250Y-76980000D01*
X121441250Y-76180000D01*
X122041250Y-76980000D01*
D12*
X122341250Y-75179962D02*
X122341250Y-74680000D01*
X121841250Y-75680000D02*
G75*
G03*
X122341250Y-75180000I0J500000D01*
G01*
X122341250Y-74680000D02*
G75*
G03*
X121841250Y-74180000I-500000J0D01*
G01*
X121041250Y-74180000D02*
X121841250Y-74180000D01*
X121041250Y-74180000D02*
G75*
G03*
X120541250Y-74680000I0J-500000D01*
G01*
X120541250Y-74680038D02*
X120541250Y-75180000D01*
X121041250Y-75680000D02*
X121841250Y-75680000D01*
X120541250Y-75180000D02*
G75*
G03*
X121041250Y-75680000I500000J0D01*
G01*
G36*
X117291250Y-57930000D02*
G01*
X116091250Y-57930000D01*
X116691250Y-57130000D01*
X117291250Y-57930000D01*
G37*
D10*
X117291250Y-57930000D02*
X116091250Y-57930000D01*
X116691250Y-57130000D01*
X117291250Y-57930000D01*
D12*
X117591250Y-56129962D02*
X117591250Y-55630000D01*
X117091250Y-56630000D02*
G75*
G03*
X117591250Y-56130000I0J500000D01*
G01*
X117591250Y-55630000D02*
G75*
G03*
X117091250Y-55130000I-500000J0D01*
G01*
X116291250Y-55130000D02*
X117091250Y-55130000D01*
X116291250Y-55130000D02*
G75*
G03*
X115791250Y-55630000I0J-500000D01*
G01*
X115791250Y-55630038D02*
X115791250Y-56130000D01*
X116291250Y-56630000D02*
X117091250Y-56630000D01*
X115791250Y-56130000D02*
G75*
G03*
X116291250Y-56630000I500000J0D01*
G01*
G36*
X107761250Y-38808999D02*
G01*
X106561250Y-38808999D01*
X107161250Y-38008999D01*
X107761250Y-38808999D01*
G37*
D10*
X107761250Y-38808999D02*
X106561250Y-38808999D01*
X107161250Y-38008999D01*
X107761250Y-38808999D01*
D12*
X108061250Y-37008961D02*
X108061250Y-36508999D01*
X107561250Y-37508999D02*
G75*
G03*
X108061250Y-37008999I0J500000D01*
G01*
X108061250Y-36508999D02*
G75*
G03*
X107561250Y-36008999I-500000J0D01*
G01*
X106761250Y-36008999D02*
X107561250Y-36008999D01*
X106761250Y-36008999D02*
G75*
G03*
X106261250Y-36508999I0J-500000D01*
G01*
X106261250Y-36509037D02*
X106261250Y-37008999D01*
X106761250Y-37508999D02*
X107561250Y-37508999D01*
X106261250Y-37008999D02*
G75*
G03*
X106761250Y-37508999I500000J0D01*
G01*
G36*
X107761250Y-19632999D02*
G01*
X106561250Y-19632999D01*
X107161250Y-18832999D01*
X107761250Y-19632999D01*
G37*
D10*
X107761250Y-19632999D02*
X106561250Y-19632999D01*
X107161250Y-18832999D01*
X107761250Y-19632999D01*
D12*
X108061250Y-17832961D02*
X108061250Y-17332999D01*
X107561250Y-18332999D02*
G75*
G03*
X108061250Y-17832999I0J500000D01*
G01*
X108061250Y-17332999D02*
G75*
G03*
X107561250Y-16832999I-500000J0D01*
G01*
X106761250Y-16832999D02*
X107561250Y-16832999D01*
X106761250Y-16832999D02*
G75*
G03*
X106261250Y-17332999I0J-500000D01*
G01*
X106261250Y-17333037D02*
X106261250Y-17832999D01*
X106761250Y-18332999D02*
X107561250Y-18332999D01*
X106261250Y-17832999D02*
G75*
G03*
X106761250Y-18332999I500000J0D01*
G01*
G36*
X112501250Y-96030000D02*
G01*
X111301250Y-96030000D01*
X111901250Y-95230000D01*
X112501250Y-96030000D01*
G37*
D10*
X112501250Y-96030000D02*
X111301250Y-96030000D01*
X111901250Y-95230000D01*
X112501250Y-96030000D01*
D12*
X112801250Y-94229962D02*
X112801250Y-93730000D01*
X112301250Y-94730000D02*
G75*
G03*
X112801250Y-94230000I0J500000D01*
G01*
X112801250Y-93730000D02*
G75*
G03*
X112301250Y-93230000I-500000J0D01*
G01*
X111501250Y-93230000D02*
X112301250Y-93230000D01*
X111501250Y-93230000D02*
G75*
G03*
X111001250Y-93730000I0J-500000D01*
G01*
X111001250Y-93730038D02*
X111001250Y-94230000D01*
X111501250Y-94730000D02*
X112301250Y-94730000D01*
X111001250Y-94230000D02*
G75*
G03*
X111501250Y-94730000I500000J0D01*
G01*
G36*
X102991250Y-76970000D02*
G01*
X101791250Y-76970000D01*
X102391250Y-76170000D01*
X102991250Y-76970000D01*
G37*
D10*
X102991250Y-76970000D02*
X101791250Y-76970000D01*
X102391250Y-76170000D01*
X102991250Y-76970000D01*
D12*
X103291250Y-75169962D02*
X103291250Y-74670000D01*
X102791250Y-75670000D02*
G75*
G03*
X103291250Y-75170000I0J500000D01*
G01*
X103291250Y-74670000D02*
G75*
G03*
X102791250Y-74170000I-500000J0D01*
G01*
X101991250Y-74170000D02*
X102791250Y-74170000D01*
X101991250Y-74170000D02*
G75*
G03*
X101491250Y-74670000I0J-500000D01*
G01*
X101491250Y-74670038D02*
X101491250Y-75170000D01*
X101991250Y-75670000D02*
X102791250Y-75670000D01*
X101491250Y-75170000D02*
G75*
G03*
X101991250Y-75670000I500000J0D01*
G01*
G36*
X98241250Y-57930000D02*
G01*
X97041250Y-57930000D01*
X97641250Y-57130000D01*
X98241250Y-57930000D01*
G37*
D10*
X98241250Y-57930000D02*
X97041250Y-57930000D01*
X97641250Y-57130000D01*
X98241250Y-57930000D01*
D12*
X98541250Y-56129962D02*
X98541250Y-55630000D01*
X98041250Y-56630000D02*
G75*
G03*
X98541250Y-56130000I0J500000D01*
G01*
X98541250Y-55630000D02*
G75*
G03*
X98041250Y-55130000I-500000J0D01*
G01*
X97241250Y-55130000D02*
X98041250Y-55130000D01*
X97241250Y-55130000D02*
G75*
G03*
X96741250Y-55630000I0J-500000D01*
G01*
X96741250Y-55630038D02*
X96741250Y-56130000D01*
X97241250Y-56630000D02*
X98041250Y-56630000D01*
X96741250Y-56130000D02*
G75*
G03*
X97241250Y-56630000I500000J0D01*
G01*
G36*
X88721250Y-38808999D02*
G01*
X87521250Y-38808999D01*
X88121250Y-38008999D01*
X88721250Y-38808999D01*
G37*
D10*
X88721250Y-38808999D02*
X87521250Y-38808999D01*
X88121250Y-38008999D01*
X88721250Y-38808999D01*
D12*
X89021250Y-37008961D02*
X89021250Y-36508999D01*
X88521250Y-37508999D02*
G75*
G03*
X89021250Y-37008999I0J500000D01*
G01*
X89021250Y-36508999D02*
G75*
G03*
X88521250Y-36008999I-500000J0D01*
G01*
X87721250Y-36008999D02*
X88521250Y-36008999D01*
X87721250Y-36008999D02*
G75*
G03*
X87221250Y-36508999I0J-500000D01*
G01*
X87221250Y-36509037D02*
X87221250Y-37008999D01*
X87721250Y-37508999D02*
X88521250Y-37508999D01*
X87221250Y-37008999D02*
G75*
G03*
X87721250Y-37508999I500000J0D01*
G01*
G36*
X88711250Y-19632999D02*
G01*
X87511250Y-19632999D01*
X88111250Y-18832999D01*
X88711250Y-19632999D01*
G37*
D10*
X88711250Y-19632999D02*
X87511250Y-19632999D01*
X88111250Y-18832999D01*
X88711250Y-19632999D01*
D12*
X89011250Y-17832961D02*
X89011250Y-17332999D01*
X88511250Y-18332999D02*
G75*
G03*
X89011250Y-17832999I0J500000D01*
G01*
X89011250Y-17332999D02*
G75*
G03*
X88511250Y-16832999I-500000J0D01*
G01*
X87711250Y-16832999D02*
X88511250Y-16832999D01*
X87711250Y-16832999D02*
G75*
G03*
X87211250Y-17332999I0J-500000D01*
G01*
X87211250Y-17333037D02*
X87211250Y-17832999D01*
X87711250Y-18332999D02*
X88511250Y-18332999D01*
X87211250Y-17832999D02*
G75*
G03*
X87711250Y-18332999I500000J0D01*
G01*
X80061250Y-113408000D02*
G75*
G03*
X80561250Y-113908000I500000J0D01*
G01*
X80561250Y-113908000D02*
X81361250Y-113908000D01*
X80061250Y-112908038D02*
X80061250Y-113408000D01*
X80561250Y-112408000D02*
G75*
G03*
X80061250Y-112908000I0J-500000D01*
G01*
X80561250Y-112408000D02*
X81361250Y-112408000D01*
X81861250Y-112908000D02*
G75*
G03*
X81361250Y-112408000I-500000J0D01*
G01*
X81361250Y-113908000D02*
G75*
G03*
X81861250Y-113408000I0J500000D01*
G01*
X81861250Y-113407962D02*
X81861250Y-112908000D01*
G36*
X81561250Y-115208000D02*
G01*
X80361250Y-115208000D01*
X80961250Y-114408000D01*
X81561250Y-115208000D01*
G37*
D10*
X81561250Y-115208000D02*
X80361250Y-115208000D01*
X80961250Y-114408000D01*
X81561250Y-115208000D01*
G36*
X93451250Y-96030000D02*
G01*
X92251250Y-96030000D01*
X92851250Y-95230000D01*
X93451250Y-96030000D01*
G37*
X93451250Y-96030000D02*
X92251250Y-96030000D01*
X92851250Y-95230000D01*
X93451250Y-96030000D01*
D12*
X93751250Y-94229962D02*
X93751250Y-93730000D01*
X93251250Y-94730000D02*
G75*
G03*
X93751250Y-94230000I0J500000D01*
G01*
X93751250Y-93730000D02*
G75*
G03*
X93251250Y-93230000I-500000J0D01*
G01*
X92451250Y-93230000D02*
X93251250Y-93230000D01*
X92451250Y-93230000D02*
G75*
G03*
X91951250Y-93730000I0J-500000D01*
G01*
X91951250Y-93730038D02*
X91951250Y-94230000D01*
X92451250Y-94730000D02*
X93251250Y-94730000D01*
X91951250Y-94230000D02*
G75*
G03*
X92451250Y-94730000I500000J0D01*
G01*
G36*
X83931250Y-76980000D02*
G01*
X82731250Y-76980000D01*
X83331250Y-76180000D01*
X83931250Y-76980000D01*
G37*
D10*
X83931250Y-76980000D02*
X82731250Y-76980000D01*
X83331250Y-76180000D01*
X83931250Y-76980000D01*
D12*
X84231250Y-75179962D02*
X84231250Y-74680000D01*
X83731250Y-75680000D02*
G75*
G03*
X84231250Y-75180000I0J500000D01*
G01*
X84231250Y-74680000D02*
G75*
G03*
X83731250Y-74180000I-500000J0D01*
G01*
X82931250Y-74180000D02*
X83731250Y-74180000D01*
X82931250Y-74180000D02*
G75*
G03*
X82431250Y-74680000I0J-500000D01*
G01*
X82431250Y-74680038D02*
X82431250Y-75180000D01*
X82931250Y-75680000D02*
X83731250Y-75680000D01*
X82431250Y-75180000D02*
G75*
G03*
X82931250Y-75680000I500000J0D01*
G01*
G36*
X79181250Y-57930000D02*
G01*
X77981250Y-57930000D01*
X78581250Y-57130000D01*
X79181250Y-57930000D01*
G37*
D10*
X79181250Y-57930000D02*
X77981250Y-57930000D01*
X78581250Y-57130000D01*
X79181250Y-57930000D01*
D12*
X79481250Y-56129962D02*
X79481250Y-55630000D01*
X78981250Y-56630000D02*
G75*
G03*
X79481250Y-56130000I0J500000D01*
G01*
X79481250Y-55630000D02*
G75*
G03*
X78981250Y-55130000I-500000J0D01*
G01*
X78181250Y-55130000D02*
X78981250Y-55130000D01*
X78181250Y-55130000D02*
G75*
G03*
X77681250Y-55630000I0J-500000D01*
G01*
X77681250Y-55630038D02*
X77681250Y-56130000D01*
X78181250Y-56630000D02*
X78981250Y-56630000D01*
X77681250Y-56130000D02*
G75*
G03*
X78181250Y-56630000I500000J0D01*
G01*
G36*
X69661250Y-38808999D02*
G01*
X68461250Y-38808999D01*
X69061250Y-38008999D01*
X69661250Y-38808999D01*
G37*
D10*
X69661250Y-38808999D02*
X68461250Y-38808999D01*
X69061250Y-38008999D01*
X69661250Y-38808999D01*
D12*
X69961250Y-37008961D02*
X69961250Y-36508999D01*
X69461250Y-37508999D02*
G75*
G03*
X69961250Y-37008999I0J500000D01*
G01*
X69961250Y-36508999D02*
G75*
G03*
X69461250Y-36008999I-500000J0D01*
G01*
X68661250Y-36008999D02*
X69461250Y-36008999D01*
X68661250Y-36008999D02*
G75*
G03*
X68161250Y-36508999I0J-500000D01*
G01*
X68161250Y-36509037D02*
X68161250Y-37008999D01*
X68661250Y-37508999D02*
X69461250Y-37508999D01*
X68161250Y-37008999D02*
G75*
G03*
X68661250Y-37508999I500000J0D01*
G01*
X68161250Y-17832999D02*
G75*
G03*
X68661250Y-18332999I500000J0D01*
G01*
X68661250Y-18332999D02*
X69461250Y-18332999D01*
X68161250Y-17333037D02*
X68161250Y-17832999D01*
X68661250Y-16832999D02*
G75*
G03*
X68161250Y-17332999I0J-500000D01*
G01*
X68661250Y-16832999D02*
X69461250Y-16832999D01*
X69961250Y-17332999D02*
G75*
G03*
X69461250Y-16832999I-500000J0D01*
G01*
X69461250Y-18332999D02*
G75*
G03*
X69961250Y-17832999I0J500000D01*
G01*
X69961250Y-17832961D02*
X69961250Y-17332999D01*
G36*
X69661250Y-19632999D02*
G01*
X68461250Y-19632999D01*
X69061250Y-18832999D01*
X69661250Y-19632999D01*
G37*
D10*
X69661250Y-19632999D02*
X68461250Y-19632999D01*
X69061250Y-18832999D01*
X69661250Y-19632999D01*
D12*
X56251250Y-113408000D02*
G75*
G03*
X56751250Y-113908000I500000J0D01*
G01*
X56751250Y-113908000D02*
X57551250Y-113908000D01*
X56251250Y-112908038D02*
X56251250Y-113408000D01*
X56751250Y-112408000D02*
G75*
G03*
X56251250Y-112908000I0J-500000D01*
G01*
X56751250Y-112408000D02*
X57551250Y-112408000D01*
X58051250Y-112908000D02*
G75*
G03*
X57551250Y-112408000I-500000J0D01*
G01*
X57551250Y-113908000D02*
G75*
G03*
X58051250Y-113408000I0J500000D01*
G01*
X58051250Y-113407962D02*
X58051250Y-112908000D01*
G36*
X57751250Y-115208000D02*
G01*
X56551250Y-115208000D01*
X57151250Y-114408000D01*
X57751250Y-115208000D01*
G37*
D10*
X57751250Y-115208000D02*
X56551250Y-115208000D01*
X57151250Y-114408000D01*
X57751250Y-115208000D01*
G36*
X74411250Y-96030000D02*
G01*
X73211250Y-96030000D01*
X73811250Y-95230000D01*
X74411250Y-96030000D01*
G37*
X74411250Y-96030000D02*
X73211250Y-96030000D01*
X73811250Y-95230000D01*
X74411250Y-96030000D01*
D12*
X74711250Y-94229962D02*
X74711250Y-93730000D01*
X74211250Y-94730000D02*
G75*
G03*
X74711250Y-94230000I0J500000D01*
G01*
X74711250Y-93730000D02*
G75*
G03*
X74211250Y-93230000I-500000J0D01*
G01*
X73411250Y-93230000D02*
X74211250Y-93230000D01*
X73411250Y-93230000D02*
G75*
G03*
X72911250Y-93730000I0J-500000D01*
G01*
X72911250Y-93730038D02*
X72911250Y-94230000D01*
X73411250Y-94730000D02*
X74211250Y-94730000D01*
X72911250Y-94230000D02*
G75*
G03*
X73411250Y-94730000I500000J0D01*
G01*
G36*
X64891250Y-76980000D02*
G01*
X63691250Y-76980000D01*
X64291250Y-76180000D01*
X64891250Y-76980000D01*
G37*
D10*
X64891250Y-76980000D02*
X63691250Y-76980000D01*
X64291250Y-76180000D01*
X64891250Y-76980000D01*
D12*
X65191250Y-75179962D02*
X65191250Y-74680000D01*
X64691250Y-75680000D02*
G75*
G03*
X65191250Y-75180000I0J500000D01*
G01*
X65191250Y-74680000D02*
G75*
G03*
X64691250Y-74180000I-500000J0D01*
G01*
X63891250Y-74180000D02*
X64691250Y-74180000D01*
X63891250Y-74180000D02*
G75*
G03*
X63391250Y-74680000I0J-500000D01*
G01*
X63391250Y-74680038D02*
X63391250Y-75180000D01*
X63891250Y-75680000D02*
X64691250Y-75680000D01*
X63391250Y-75180000D02*
G75*
G03*
X63891250Y-75680000I500000J0D01*
G01*
G36*
X60141250Y-57930000D02*
G01*
X58941250Y-57930000D01*
X59541250Y-57130000D01*
X60141250Y-57930000D01*
G37*
D10*
X60141250Y-57930000D02*
X58941250Y-57930000D01*
X59541250Y-57130000D01*
X60141250Y-57930000D01*
D12*
X60441250Y-56129962D02*
X60441250Y-55630000D01*
X59941250Y-56630000D02*
G75*
G03*
X60441250Y-56130000I0J500000D01*
G01*
X60441250Y-55630000D02*
G75*
G03*
X59941250Y-55130000I-500000J0D01*
G01*
X59141250Y-55130000D02*
X59941250Y-55130000D01*
X59141250Y-55130000D02*
G75*
G03*
X58641250Y-55630000I0J-500000D01*
G01*
X58641250Y-55630038D02*
X58641250Y-56130000D01*
X59141250Y-56630000D02*
X59941250Y-56630000D01*
X58641250Y-56130000D02*
G75*
G03*
X59141250Y-56630000I500000J0D01*
G01*
G36*
X50621250Y-38808999D02*
G01*
X49421250Y-38808999D01*
X50021250Y-38008999D01*
X50621250Y-38808999D01*
G37*
D10*
X50621250Y-38808999D02*
X49421250Y-38808999D01*
X50021250Y-38008999D01*
X50621250Y-38808999D01*
D12*
X50921250Y-37008961D02*
X50921250Y-36508999D01*
X50421250Y-37508999D02*
G75*
G03*
X50921250Y-37008999I0J500000D01*
G01*
X50921250Y-36508999D02*
G75*
G03*
X50421250Y-36008999I-500000J0D01*
G01*
X49621250Y-36008999D02*
X50421250Y-36008999D01*
X49621250Y-36008999D02*
G75*
G03*
X49121250Y-36508999I0J-500000D01*
G01*
X49121250Y-36509037D02*
X49121250Y-37008999D01*
X49621250Y-37508999D02*
X50421250Y-37508999D01*
X49121250Y-37008999D02*
G75*
G03*
X49621250Y-37508999I500000J0D01*
G01*
G36*
X50611250Y-19632999D02*
G01*
X49411250Y-19632999D01*
X50011250Y-18832999D01*
X50611250Y-19632999D01*
G37*
D10*
X50611250Y-19632999D02*
X49411250Y-19632999D01*
X50011250Y-18832999D01*
X50611250Y-19632999D01*
D12*
X50911250Y-17832961D02*
X50911250Y-17332999D01*
X50411250Y-18332999D02*
G75*
G03*
X50911250Y-17832999I0J500000D01*
G01*
X50911250Y-17332999D02*
G75*
G03*
X50411250Y-16832999I-500000J0D01*
G01*
X49611250Y-16832999D02*
X50411250Y-16832999D01*
X49611250Y-16832999D02*
G75*
G03*
X49111250Y-17332999I0J-500000D01*
G01*
X49111250Y-17333037D02*
X49111250Y-17832999D01*
X49611250Y-18332999D02*
X50411250Y-18332999D01*
X49111250Y-17832999D02*
G75*
G03*
X49611250Y-18332999I500000J0D01*
G01*
X32421250Y-113408000D02*
G75*
G03*
X32921250Y-113908000I500000J0D01*
G01*
X32921250Y-113908000D02*
X33721250Y-113908000D01*
X32421250Y-112908038D02*
X32421250Y-113408000D01*
X32921250Y-112408000D02*
G75*
G03*
X32421250Y-112908000I0J-500000D01*
G01*
X32921250Y-112408000D02*
X33721250Y-112408000D01*
X34221250Y-112908000D02*
G75*
G03*
X33721250Y-112408000I-500000J0D01*
G01*
X33721250Y-113908000D02*
G75*
G03*
X34221250Y-113408000I0J500000D01*
G01*
X34221250Y-113407962D02*
X34221250Y-112908000D01*
G36*
X33921250Y-115208000D02*
G01*
X32721250Y-115208000D01*
X33321250Y-114408000D01*
X33921250Y-115208000D01*
G37*
D10*
X33921250Y-115208000D02*
X32721250Y-115208000D01*
X33321250Y-114408000D01*
X33921250Y-115208000D01*
G36*
X43461250Y-96020000D02*
G01*
X42261250Y-96020000D01*
X42861250Y-95220000D01*
X43461250Y-96020000D01*
G37*
X43461250Y-96020000D02*
X42261250Y-96020000D01*
X42861250Y-95220000D01*
X43461250Y-96020000D01*
D12*
X43761250Y-94219962D02*
X43761250Y-93720000D01*
X43261250Y-94720000D02*
G75*
G03*
X43761250Y-94220000I0J500000D01*
G01*
X43761250Y-93720000D02*
G75*
G03*
X43261250Y-93220000I-500000J0D01*
G01*
X42461250Y-93220000D02*
X43261250Y-93220000D01*
X42461250Y-93220000D02*
G75*
G03*
X41961250Y-93720000I0J-500000D01*
G01*
X41961250Y-93720038D02*
X41961250Y-94220000D01*
X42461250Y-94720000D02*
X43261250Y-94720000D01*
X41961250Y-94220000D02*
G75*
G03*
X42461250Y-94720000I500000J0D01*
G01*
G36*
X36321250Y-57930000D02*
G01*
X35121250Y-57930000D01*
X35721250Y-57130000D01*
X36321250Y-57930000D01*
G37*
D10*
X36321250Y-57930000D02*
X35121250Y-57930000D01*
X35721250Y-57130000D01*
X36321250Y-57930000D01*
D12*
X36621250Y-56129962D02*
X36621250Y-55630000D01*
X36121250Y-56630000D02*
G75*
G03*
X36621250Y-56130000I0J500000D01*
G01*
X36621250Y-55630000D02*
G75*
G03*
X36121250Y-55130000I-500000J0D01*
G01*
X35321250Y-55130000D02*
X36121250Y-55130000D01*
X35321250Y-55130000D02*
G75*
G03*
X34821250Y-55630000I0J-500000D01*
G01*
X34821250Y-55630038D02*
X34821250Y-56130000D01*
X35321250Y-56630000D02*
X36121250Y-56630000D01*
X34821250Y-56130000D02*
G75*
G03*
X35321250Y-56630000I500000J0D01*
G01*
G36*
X31561250Y-38808999D02*
G01*
X30361250Y-38808999D01*
X30961250Y-38008999D01*
X31561250Y-38808999D01*
G37*
D10*
X31561250Y-38808999D02*
X30361250Y-38808999D01*
X30961250Y-38008999D01*
X31561250Y-38808999D01*
D12*
X31861250Y-37008961D02*
X31861250Y-36508999D01*
X31361250Y-37508999D02*
G75*
G03*
X31861250Y-37008999I0J500000D01*
G01*
X31861250Y-36508999D02*
G75*
G03*
X31361250Y-36008999I-500000J0D01*
G01*
X30561250Y-36008999D02*
X31361250Y-36008999D01*
X30561250Y-36008999D02*
G75*
G03*
X30061250Y-36508999I0J-500000D01*
G01*
X30061250Y-36509037D02*
X30061250Y-37008999D01*
X30561250Y-37508999D02*
X31361250Y-37508999D01*
X30061250Y-37008999D02*
G75*
G03*
X30561250Y-37508999I500000J0D01*
G01*
G36*
X31561250Y-19632999D02*
G01*
X30361250Y-19632999D01*
X30961250Y-18832999D01*
X31561250Y-19632999D01*
G37*
D10*
X31561250Y-19632999D02*
X30361250Y-19632999D01*
X30961250Y-18832999D01*
X31561250Y-19632999D01*
D12*
X31861250Y-17832961D02*
X31861250Y-17332999D01*
X31361250Y-18332999D02*
G75*
G03*
X31861250Y-17832999I0J500000D01*
G01*
X31861250Y-17332999D02*
G75*
G03*
X31361250Y-16832999I-500000J0D01*
G01*
X30561250Y-16832999D02*
X31361250Y-16832999D01*
X30561250Y-16832999D02*
G75*
G03*
X30061250Y-17332999I0J-500000D01*
G01*
X30061250Y-17333037D02*
X30061250Y-17832999D01*
X30561250Y-18332999D02*
X31361250Y-18332999D01*
X30061250Y-17832999D02*
G75*
G03*
X30561250Y-18332999I500000J0D01*
G01*
X167652380Y-112258095D02*
X168461904Y-112258095D01*
X168557142Y-112305714D01*
X168604761Y-112353333D01*
X168652380Y-112448571D01*
X168652380Y-112639047D01*
X168604761Y-112734285D01*
X168557142Y-112781904D01*
X168461904Y-112829523D01*
X167652380Y-112829523D01*
X168652380Y-113829523D02*
X168652380Y-113258095D01*
X168652380Y-113543809D02*
X167652380Y-113543809D01*
X167795238Y-113448571D01*
X167890476Y-113353333D01*
X167938095Y-113258095D01*
X167336666Y-85082380D02*
X167670000Y-84606190D01*
X167908095Y-85082380D02*
X167908095Y-84082380D01*
X167527142Y-84082380D01*
X167431904Y-84130000D01*
X167384285Y-84177619D01*
X167336666Y-84272857D01*
X167336666Y-84415714D01*
X167384285Y-84510952D01*
X167431904Y-84558571D01*
X167527142Y-84606190D01*
X167908095Y-84606190D01*
X166431904Y-84082380D02*
X166908095Y-84082380D01*
X166955714Y-84558571D01*
X166908095Y-84510952D01*
X166812857Y-84463333D01*
X166574761Y-84463333D01*
X166479523Y-84510952D01*
X166431904Y-84558571D01*
X166384285Y-84653809D01*
X166384285Y-84891904D01*
X166431904Y-84987142D01*
X166479523Y-85034761D01*
X166574761Y-85082380D01*
X166812857Y-85082380D01*
X166908095Y-85034761D01*
X166955714Y-84987142D01*
X159666667Y-122452380D02*
X160000001Y-121976190D01*
X160238096Y-122452380D02*
X160238096Y-121452380D01*
X159857143Y-121452380D01*
X159761905Y-121500000D01*
X159714286Y-121547619D01*
X159666667Y-121642857D01*
X159666667Y-121785714D01*
X159714286Y-121880952D01*
X159761905Y-121928571D01*
X159857143Y-121976190D01*
X160238096Y-121976190D01*
X159333334Y-121452380D02*
X158666667Y-121452380D01*
X159095239Y-122452380D01*
X165536257Y-120354558D02*
X165583876Y-120402177D01*
X165726733Y-120449796D01*
X165821971Y-120449796D01*
X165964829Y-120402177D01*
X166060067Y-120306939D01*
X166107686Y-120211701D01*
X166155305Y-120021225D01*
X166155305Y-119878368D01*
X166107686Y-119687892D01*
X166060067Y-119592654D01*
X165964829Y-119497416D01*
X165821971Y-119449796D01*
X165726733Y-119449796D01*
X165583876Y-119497416D01*
X165536257Y-119545035D01*
X164679114Y-119449796D02*
X164869591Y-119449796D01*
X164964829Y-119497416D01*
X165012448Y-119545035D01*
X165107686Y-119687892D01*
X165155305Y-119878368D01*
X165155305Y-120259320D01*
X165107686Y-120354558D01*
X165060067Y-120402177D01*
X164964829Y-120449796D01*
X164774352Y-120449796D01*
X164679114Y-120402177D01*
X164631495Y-120354558D01*
X164583876Y-120259320D01*
X164583876Y-120021225D01*
X164631495Y-119925987D01*
X164679114Y-119878368D01*
X164774352Y-119830749D01*
X164964829Y-119830749D01*
X165060067Y-119878368D01*
X165107686Y-119925987D01*
X165155305Y-120021225D01*
X163777923Y-76770790D02*
X163777923Y-77485076D01*
X163825542Y-77627933D01*
X163920780Y-77723171D01*
X164063637Y-77770790D01*
X164158875Y-77770790D01*
X162777923Y-77770790D02*
X163349351Y-77770790D01*
X163063637Y-77770790D02*
X163063637Y-76770790D01*
X163158875Y-76913648D01*
X163254113Y-77008886D01*
X163349351Y-77056505D01*
X186226190Y-112476190D02*
X186226190Y-112952380D01*
X186559523Y-111952380D02*
X186226190Y-112476190D01*
X185892857Y-111952380D01*
X185035714Y-112952380D02*
X185607142Y-112952380D01*
X185321428Y-112952380D02*
X185321428Y-111952380D01*
X185416666Y-112095238D01*
X185511904Y-112190476D01*
X185607142Y-112238095D01*
X183453333Y-83483333D02*
X183353333Y-83516666D01*
X183186666Y-83516666D01*
X183120000Y-83483333D01*
X183086666Y-83450000D01*
X183053333Y-83383333D01*
X183053333Y-83316666D01*
X183086666Y-83250000D01*
X183120000Y-83216666D01*
X183186666Y-83183333D01*
X183320000Y-83150000D01*
X183386666Y-83116666D01*
X183420000Y-83083333D01*
X183453333Y-83016666D01*
X183453333Y-82950000D01*
X183420000Y-82883333D01*
X183386666Y-82850000D01*
X183320000Y-82816666D01*
X183153333Y-82816666D01*
X183053333Y-82850000D01*
X182820000Y-82816666D02*
X182653333Y-83516666D01*
X182520000Y-83016666D01*
X182386666Y-83516666D01*
X182220000Y-82816666D01*
X181586666Y-83516666D02*
X181986666Y-83516666D01*
X181786666Y-83516666D02*
X181786666Y-82816666D01*
X181853333Y-82916666D01*
X181920000Y-82983333D01*
X181986666Y-83016666D01*
X159936666Y-85062380D02*
X160270000Y-84586190D01*
X160508095Y-85062380D02*
X160508095Y-84062380D01*
X160127142Y-84062380D01*
X160031904Y-84110000D01*
X159984285Y-84157619D01*
X159936666Y-84252857D01*
X159936666Y-84395714D01*
X159984285Y-84490952D01*
X160031904Y-84538571D01*
X160127142Y-84586190D01*
X160508095Y-84586190D01*
X159079523Y-84062380D02*
X159270000Y-84062380D01*
X159365238Y-84110000D01*
X159412857Y-84157619D01*
X159508095Y-84300476D01*
X159555714Y-84490952D01*
X159555714Y-84871904D01*
X159508095Y-84967142D01*
X159460476Y-85014761D01*
X159365238Y-85062380D01*
X159174761Y-85062380D01*
X159079523Y-85014761D01*
X159031904Y-84967142D01*
X158984285Y-84871904D01*
X158984285Y-84633809D01*
X159031904Y-84538571D01*
X159079523Y-84490952D01*
X159174761Y-84443333D01*
X159365238Y-84443333D01*
X159460476Y-84490952D01*
X159508095Y-84538571D01*
X159555714Y-84633809D01*
X175576666Y-88052380D02*
X175910000Y-87576190D01*
X176148095Y-88052380D02*
X176148095Y-87052380D01*
X175767142Y-87052380D01*
X175671904Y-87100000D01*
X175624285Y-87147619D01*
X175576666Y-87242857D01*
X175576666Y-87385714D01*
X175624285Y-87480952D01*
X175671904Y-87528571D01*
X175767142Y-87576190D01*
X176148095Y-87576190D01*
X174719523Y-87385714D02*
X174719523Y-88052380D01*
X174957619Y-87004761D02*
X175195714Y-87719047D01*
X174576666Y-87719047D01*
X189676666Y-88092380D02*
X190010000Y-87616190D01*
X190248095Y-88092380D02*
X190248095Y-87092380D01*
X189867142Y-87092380D01*
X189771904Y-87140000D01*
X189724285Y-87187619D01*
X189676666Y-87282857D01*
X189676666Y-87425714D01*
X189724285Y-87520952D01*
X189771904Y-87568571D01*
X189867142Y-87616190D01*
X190248095Y-87616190D01*
X189343333Y-87092380D02*
X188724285Y-87092380D01*
X189057619Y-87473333D01*
X188914761Y-87473333D01*
X188819523Y-87520952D01*
X188771904Y-87568571D01*
X188724285Y-87663809D01*
X188724285Y-87901904D01*
X188771904Y-87997142D01*
X188819523Y-88044761D01*
X188914761Y-88092380D01*
X189200476Y-88092380D01*
X189295714Y-88044761D01*
X189343333Y-87997142D01*
X172166666Y-101857142D02*
X172214285Y-101904761D01*
X172357142Y-101952380D01*
X172452380Y-101952380D01*
X172595238Y-101904761D01*
X172690476Y-101809523D01*
X172738095Y-101714285D01*
X172785714Y-101523809D01*
X172785714Y-101380952D01*
X172738095Y-101190476D01*
X172690476Y-101095238D01*
X172595238Y-101000000D01*
X172452380Y-100952380D01*
X172357142Y-100952380D01*
X172214285Y-101000000D01*
X172166666Y-101047619D01*
X171595238Y-101380952D02*
X171690476Y-101333333D01*
X171738095Y-101285714D01*
X171785714Y-101190476D01*
X171785714Y-101142857D01*
X171738095Y-101047619D01*
X171690476Y-101000000D01*
X171595238Y-100952380D01*
X171404761Y-100952380D01*
X171309523Y-101000000D01*
X171261904Y-101047619D01*
X171214285Y-101142857D01*
X171214285Y-101190476D01*
X171261904Y-101285714D01*
X171309523Y-101333333D01*
X171404761Y-101380952D01*
X171595238Y-101380952D01*
X171690476Y-101428571D01*
X171738095Y-101476190D01*
X171785714Y-101571428D01*
X171785714Y-101761904D01*
X171738095Y-101857142D01*
X171690476Y-101904761D01*
X171595238Y-101952380D01*
X171404761Y-101952380D01*
X171309523Y-101904761D01*
X171261904Y-101857142D01*
X171214285Y-101761904D01*
X171214285Y-101571428D01*
X171261904Y-101476190D01*
X171309523Y-101428571D01*
X171404761Y-101380952D01*
X180166666Y-124107142D02*
X180214285Y-124154761D01*
X180357142Y-124202380D01*
X180452380Y-124202380D01*
X180595238Y-124154761D01*
X180690476Y-124059523D01*
X180738095Y-123964285D01*
X180785714Y-123773809D01*
X180785714Y-123630952D01*
X180738095Y-123440476D01*
X180690476Y-123345238D01*
X180595238Y-123250000D01*
X180452380Y-123202380D01*
X180357142Y-123202380D01*
X180214285Y-123250000D01*
X180166666Y-123297619D01*
X179833333Y-123202380D02*
X179166666Y-123202380D01*
X179595238Y-124202380D01*
X162166666Y-106857142D02*
X162214285Y-106904761D01*
X162357142Y-106952380D01*
X162452380Y-106952380D01*
X162595238Y-106904761D01*
X162690476Y-106809523D01*
X162738095Y-106714285D01*
X162785714Y-106523809D01*
X162785714Y-106380952D01*
X162738095Y-106190476D01*
X162690476Y-106095238D01*
X162595238Y-106000000D01*
X162452380Y-105952380D01*
X162357142Y-105952380D01*
X162214285Y-106000000D01*
X162166666Y-106047619D01*
X161261904Y-105952380D02*
X161738095Y-105952380D01*
X161785714Y-106428571D01*
X161738095Y-106380952D01*
X161642857Y-106333333D01*
X161404761Y-106333333D01*
X161309523Y-106380952D01*
X161261904Y-106428571D01*
X161214285Y-106523809D01*
X161214285Y-106761904D01*
X161261904Y-106857142D01*
X161309523Y-106904761D01*
X161404761Y-106952380D01*
X161642857Y-106952380D01*
X161738095Y-106904761D01*
X161785714Y-106857142D01*
X171616666Y-97547142D02*
X171664285Y-97594761D01*
X171807142Y-97642380D01*
X171902380Y-97642380D01*
X172045238Y-97594761D01*
X172140476Y-97499523D01*
X172188095Y-97404285D01*
X172235714Y-97213809D01*
X172235714Y-97070952D01*
X172188095Y-96880476D01*
X172140476Y-96785238D01*
X172045238Y-96690000D01*
X171902380Y-96642380D01*
X171807142Y-96642380D01*
X171664285Y-96690000D01*
X171616666Y-96737619D01*
X170759523Y-96975714D02*
X170759523Y-97642380D01*
X170997619Y-96594761D02*
X171235714Y-97309047D01*
X170616666Y-97309047D01*
X195166666Y-110107142D02*
X195214285Y-110154761D01*
X195357142Y-110202380D01*
X195452380Y-110202380D01*
X195595238Y-110154761D01*
X195690476Y-110059523D01*
X195738095Y-109964285D01*
X195785714Y-109773809D01*
X195785714Y-109630952D01*
X195738095Y-109440476D01*
X195690476Y-109345238D01*
X195595238Y-109250000D01*
X195452380Y-109202380D01*
X195357142Y-109202380D01*
X195214285Y-109250000D01*
X195166666Y-109297619D01*
X194833333Y-109202380D02*
X194214285Y-109202380D01*
X194547619Y-109583333D01*
X194404761Y-109583333D01*
X194309523Y-109630952D01*
X194261904Y-109678571D01*
X194214285Y-109773809D01*
X194214285Y-110011904D01*
X194261904Y-110107142D01*
X194309523Y-110154761D01*
X194404761Y-110202380D01*
X194690476Y-110202380D01*
X194785714Y-110154761D01*
X194833333Y-110107142D01*
X195166666Y-115857142D02*
X195214285Y-115904761D01*
X195357142Y-115952380D01*
X195452380Y-115952380D01*
X195595238Y-115904761D01*
X195690476Y-115809523D01*
X195738095Y-115714285D01*
X195785714Y-115523809D01*
X195785714Y-115380952D01*
X195738095Y-115190476D01*
X195690476Y-115095238D01*
X195595238Y-115000000D01*
X195452380Y-114952380D01*
X195357142Y-114952380D01*
X195214285Y-115000000D01*
X195166666Y-115047619D01*
X194785714Y-115047619D02*
X194738095Y-115000000D01*
X194642857Y-114952380D01*
X194404761Y-114952380D01*
X194309523Y-115000000D01*
X194261904Y-115047619D01*
X194214285Y-115142857D01*
X194214285Y-115238095D01*
X194261904Y-115380952D01*
X194833333Y-115952380D01*
X194214285Y-115952380D01*
X182726666Y-91357142D02*
X182774285Y-91404761D01*
X182917142Y-91452380D01*
X183012380Y-91452380D01*
X183155238Y-91404761D01*
X183250476Y-91309523D01*
X183298095Y-91214285D01*
X183345714Y-91023809D01*
X183345714Y-90880952D01*
X183298095Y-90690476D01*
X183250476Y-90595238D01*
X183155238Y-90500000D01*
X183012380Y-90452380D01*
X182917142Y-90452380D01*
X182774285Y-90500000D01*
X182726666Y-90547619D01*
X181774285Y-91452380D02*
X182345714Y-91452380D01*
X182060000Y-91452380D02*
X182060000Y-90452380D01*
X182155238Y-90595238D01*
X182250476Y-90690476D01*
X182345714Y-90738095D01*
%LPC*%
D13*
X149350000Y-32750000D03*
X245850000Y-32750000D03*
X254000000Y-98000000D03*
X135000000Y-105750000D03*
X339750000Y-106680000D03*
X339600000Y-33000000D03*
X55500000Y-101750000D03*
X55350000Y-33000000D03*
D14*
X146825000Y-120621250D03*
D15*
X143015000Y-118081250D03*
X149365000Y-115541250D03*
D16*
X141745000Y-120621250D03*
X151905000Y-120621250D03*
D17*
X196863000Y-127606250D03*
X96787000Y-127606250D03*
D14*
X96787000Y-112366250D03*
X196863000Y-112366250D03*
G36*
X168121000Y-108719000D02*
G01*
X168121000Y-109321000D01*
X166519000Y-109321000D01*
X166519000Y-108719000D01*
X168121000Y-108719000D01*
G37*
G36*
X168121000Y-109494000D02*
G01*
X168121000Y-110146000D01*
X166519000Y-110146000D01*
X166519000Y-109494000D01*
X168121000Y-109494000D01*
G37*
G36*
X168121000Y-110294000D02*
G01*
X168121000Y-110946000D01*
X166519000Y-110946000D01*
X166519000Y-110294000D01*
X168121000Y-110294000D01*
G37*
G36*
X168121000Y-111094000D02*
G01*
X168121000Y-111746000D01*
X166519000Y-111746000D01*
X166519000Y-111094000D01*
X168121000Y-111094000D01*
G37*
G36*
X168121000Y-111894000D02*
G01*
X168121000Y-112546000D01*
X166519000Y-112546000D01*
X166519000Y-111894000D01*
X168121000Y-111894000D01*
G37*
G36*
X168121000Y-112694000D02*
G01*
X168121000Y-113346000D01*
X166519000Y-113346000D01*
X166519000Y-112694000D01*
X168121000Y-112694000D01*
G37*
G36*
X168121000Y-113494000D02*
G01*
X168121000Y-114146000D01*
X166519000Y-114146000D01*
X166519000Y-113494000D01*
X168121000Y-113494000D01*
G37*
G36*
X168121000Y-114294000D02*
G01*
X168121000Y-114946000D01*
X166519000Y-114946000D01*
X166519000Y-114294000D01*
X168121000Y-114294000D01*
G37*
G36*
X168121000Y-115094000D02*
G01*
X168121000Y-115746000D01*
X166519000Y-115746000D01*
X166519000Y-115094000D01*
X168121000Y-115094000D01*
G37*
G36*
X168121000Y-115894000D02*
G01*
X168121000Y-116546000D01*
X166519000Y-116546000D01*
X166519000Y-115894000D01*
X168121000Y-115894000D01*
G37*
G36*
X168121000Y-116694000D02*
G01*
X168121000Y-117346000D01*
X166519000Y-117346000D01*
X166519000Y-116694000D01*
X168121000Y-116694000D01*
G37*
G36*
X168694000Y-117919000D02*
G01*
X169346000Y-117919000D01*
X169346000Y-119521000D01*
X168694000Y-119521000D01*
X168694000Y-117919000D01*
G37*
G36*
X169494000Y-117919000D02*
G01*
X170146000Y-117919000D01*
X170146000Y-119521000D01*
X169494000Y-119521000D01*
X169494000Y-117919000D01*
G37*
G36*
X170294000Y-117919000D02*
G01*
X170946000Y-117919000D01*
X170946000Y-119521000D01*
X170294000Y-119521000D01*
X170294000Y-117919000D01*
G37*
G36*
X171094000Y-117919000D02*
G01*
X171746000Y-117919000D01*
X171746000Y-119521000D01*
X171094000Y-119521000D01*
X171094000Y-117919000D01*
G37*
G36*
X171894000Y-117919000D02*
G01*
X172546000Y-117919000D01*
X172546000Y-119521000D01*
X171894000Y-119521000D01*
X171894000Y-117919000D01*
G37*
G36*
X172694000Y-117919000D02*
G01*
X173346000Y-117919000D01*
X173346000Y-119521000D01*
X172694000Y-119521000D01*
X172694000Y-117919000D01*
G37*
G36*
X173494000Y-117919000D02*
G01*
X174146000Y-117919000D01*
X174146000Y-119521000D01*
X173494000Y-119521000D01*
X173494000Y-117919000D01*
G37*
G36*
X174294000Y-117919000D02*
G01*
X174946000Y-117919000D01*
X174946000Y-119521000D01*
X174294000Y-119521000D01*
X174294000Y-117919000D01*
G37*
G36*
X175094000Y-117919000D02*
G01*
X175746000Y-117919000D01*
X175746000Y-119521000D01*
X175094000Y-119521000D01*
X175094000Y-117919000D01*
G37*
G36*
X175894000Y-117919000D02*
G01*
X176546000Y-117919000D01*
X176546000Y-119521000D01*
X175894000Y-119521000D01*
X175894000Y-117919000D01*
G37*
G36*
X176694000Y-117919000D02*
G01*
X177346000Y-117919000D01*
X177346000Y-119521000D01*
X176694000Y-119521000D01*
X176694000Y-117919000D01*
G37*
G36*
X179521000Y-116694000D02*
G01*
X179521000Y-117346000D01*
X177919000Y-117346000D01*
X177919000Y-116694000D01*
X179521000Y-116694000D01*
G37*
G36*
X179521000Y-115894000D02*
G01*
X179521000Y-116546000D01*
X177919000Y-116546000D01*
X177919000Y-115894000D01*
X179521000Y-115894000D01*
G37*
G36*
X179521000Y-115094000D02*
G01*
X179521000Y-115746000D01*
X177919000Y-115746000D01*
X177919000Y-115094000D01*
X179521000Y-115094000D01*
G37*
G36*
X179521000Y-114294000D02*
G01*
X179521000Y-114946000D01*
X177919000Y-114946000D01*
X177919000Y-114294000D01*
X179521000Y-114294000D01*
G37*
G36*
X179521000Y-113494000D02*
G01*
X179521000Y-114146000D01*
X177919000Y-114146000D01*
X177919000Y-113494000D01*
X179521000Y-113494000D01*
G37*
G36*
X179521000Y-112694000D02*
G01*
X179521000Y-113346000D01*
X177919000Y-113346000D01*
X177919000Y-112694000D01*
X179521000Y-112694000D01*
G37*
G36*
X179521000Y-111894000D02*
G01*
X179521000Y-112546000D01*
X177919000Y-112546000D01*
X177919000Y-111894000D01*
X179521000Y-111894000D01*
G37*
G36*
X179521000Y-111094000D02*
G01*
X179521000Y-111746000D01*
X177919000Y-111746000D01*
X177919000Y-111094000D01*
X179521000Y-111094000D01*
G37*
G36*
X179521000Y-110294000D02*
G01*
X179521000Y-110946000D01*
X177919000Y-110946000D01*
X177919000Y-110294000D01*
X179521000Y-110294000D01*
G37*
G36*
X179521000Y-109494000D02*
G01*
X179521000Y-110146000D01*
X177919000Y-110146000D01*
X177919000Y-109494000D01*
X179521000Y-109494000D01*
G37*
G36*
X179521000Y-108694000D02*
G01*
X179521000Y-109346000D01*
X177919000Y-109346000D01*
X177919000Y-108694000D01*
X179521000Y-108694000D01*
G37*
G36*
X176694000Y-106519000D02*
G01*
X177346000Y-106519000D01*
X177346000Y-108121000D01*
X176694000Y-108121000D01*
X176694000Y-106519000D01*
G37*
G36*
X175894000Y-106519000D02*
G01*
X176546000Y-106519000D01*
X176546000Y-108121000D01*
X175894000Y-108121000D01*
X175894000Y-106519000D01*
G37*
G36*
X175094000Y-106519000D02*
G01*
X175746000Y-106519000D01*
X175746000Y-108121000D01*
X175094000Y-108121000D01*
X175094000Y-106519000D01*
G37*
G36*
X174294000Y-106519000D02*
G01*
X174946000Y-106519000D01*
X174946000Y-108121000D01*
X174294000Y-108121000D01*
X174294000Y-106519000D01*
G37*
G36*
X173494000Y-106519000D02*
G01*
X174146000Y-106519000D01*
X174146000Y-108121000D01*
X173494000Y-108121000D01*
X173494000Y-106519000D01*
G37*
G36*
X172694000Y-106519000D02*
G01*
X173346000Y-106519000D01*
X173346000Y-108121000D01*
X172694000Y-108121000D01*
X172694000Y-106519000D01*
G37*
G36*
X171894000Y-106519000D02*
G01*
X172546000Y-106519000D01*
X172546000Y-108121000D01*
X171894000Y-108121000D01*
X171894000Y-106519000D01*
G37*
G36*
X171094000Y-106519000D02*
G01*
X171746000Y-106519000D01*
X171746000Y-108121000D01*
X171094000Y-108121000D01*
X171094000Y-106519000D01*
G37*
G36*
X170319000Y-106519000D02*
G01*
X170921000Y-106519000D01*
X170921000Y-108121000D01*
X170319000Y-108121000D01*
X170319000Y-106519000D01*
G37*
G36*
X169519000Y-106519000D02*
G01*
X170121000Y-106519000D01*
X170121000Y-108121000D01*
X169519000Y-108121000D01*
X169519000Y-106519000D01*
G37*
D18*
X169020000Y-107320000D03*
D14*
X25381250Y-44421250D03*
D16*
X20301250Y-44421250D03*
X30461250Y-44421250D03*
D15*
X27921250Y-39341250D03*
X21571250Y-41881250D03*
G36*
G01*
X165292696Y-85311910D02*
X163976484Y-85311910D01*
G75*
G02*
X163708590Y-85044016I0J267894D01*
G01*
X163708590Y-84052804D01*
G75*
G02*
X163976484Y-83784910I267894J0D01*
G01*
X165292696Y-83784910D01*
G75*
G02*
X165560590Y-84052804I0J-267894D01*
G01*
X165560590Y-85044016D01*
G75*
G02*
X165292696Y-85311910I-267894J0D01*
G01*
G37*
G36*
G01*
X165292696Y-82336910D02*
X163976484Y-82336910D01*
G75*
G02*
X163708590Y-82069016I0J267894D01*
G01*
X163708590Y-81077804D01*
G75*
G02*
X163976484Y-80809910I267894J0D01*
G01*
X165292696Y-80809910D01*
G75*
G02*
X165560590Y-81077804I0J-267894D01*
G01*
X165560590Y-82069016D01*
G75*
G02*
X165292696Y-82336910I-267894J0D01*
G01*
G37*
D14*
X173018750Y-82521250D03*
D16*
X167938750Y-82521250D03*
X178098750Y-82521250D03*
D15*
X175558750Y-77441250D03*
X169208750Y-79981250D03*
G36*
G01*
X161300773Y-121337475D02*
X162231475Y-120406772D01*
G75*
G02*
X162610335Y-120406772I189430J-189430D01*
G01*
X163311228Y-121107665D01*
G75*
G02*
X163311228Y-121486525I-189430J-189430D01*
G01*
X162380525Y-122417228D01*
G75*
G02*
X162001665Y-122417228I-189430J189430D01*
G01*
X161300772Y-121716335D01*
G75*
G02*
X161300772Y-121337475I189430J189430D01*
G01*
G37*
G36*
G01*
X159197131Y-119233833D02*
X160127833Y-118303130D01*
G75*
G02*
X160506693Y-118303130I189430J-189430D01*
G01*
X161207586Y-119004023D01*
G75*
G02*
X161207586Y-119382883I-189430J-189430D01*
G01*
X160276883Y-120313586D01*
G75*
G02*
X159898023Y-120313586I-189430J189430D01*
G01*
X159197130Y-119612693D01*
G75*
G02*
X159197130Y-119233833I189430J189430D01*
G01*
G37*
G36*
G01*
X161853201Y-117064366D02*
X162530365Y-116387200D01*
G75*
G02*
X162915275Y-116387200I192455J-192455D01*
G01*
X163415664Y-116887589D01*
G75*
G02*
X163415664Y-117272499I-192455J-192455D01*
G01*
X162738499Y-117949664D01*
G75*
G02*
X162353589Y-117949664I-192455J192455D01*
G01*
X161853200Y-117449275D01*
G75*
G02*
X161853200Y-117064365I192455J192455D01*
G01*
G37*
G36*
G01*
X163302769Y-118513934D02*
X163979933Y-117836768D01*
G75*
G02*
X164364843Y-117836768I192455J-192455D01*
G01*
X164865232Y-118337157D01*
G75*
G02*
X164865232Y-118722067I-192455J-192455D01*
G01*
X164188067Y-119399232D01*
G75*
G02*
X163803157Y-119399232I-192455J192455D01*
G01*
X163302768Y-118898843D01*
G75*
G02*
X163302768Y-118513933I192455J192455D01*
G01*
G37*
D14*
X153968750Y-82521250D03*
D16*
X148888750Y-82521250D03*
X159048750Y-82521250D03*
D15*
X156508750Y-77441250D03*
X150158750Y-79981250D03*
D14*
X192068750Y-82521250D03*
D16*
X186988750Y-82521250D03*
X197148750Y-82521250D03*
D15*
X194608750Y-77441250D03*
X188258750Y-79981250D03*
G36*
G01*
X37724500Y-77679000D02*
X38475500Y-77679000D01*
G75*
G02*
X38751000Y-77954500I0J-275500D01*
G01*
X38751000Y-78505500D01*
G75*
G02*
X38475500Y-78781000I-275500J0D01*
G01*
X37724500Y-78781000D01*
G75*
G02*
X37449000Y-78505500I0J275500D01*
G01*
X37449000Y-77954500D01*
G75*
G02*
X37724500Y-77679000I275500J0D01*
G01*
G37*
G36*
G01*
X37724500Y-74379000D02*
X38475500Y-74379000D01*
G75*
G02*
X38751000Y-74654500I0J-275500D01*
G01*
X38751000Y-75205500D01*
G75*
G02*
X38475500Y-75481000I-275500J0D01*
G01*
X37724500Y-75481000D01*
G75*
G02*
X37449000Y-75205500I0J275500D01*
G01*
X37449000Y-74654500D01*
G75*
G02*
X37724500Y-74379000I275500J0D01*
G01*
G37*
D14*
X32525000Y-82521250D03*
D15*
X28715000Y-79981250D03*
X35065000Y-77441250D03*
D16*
X27445000Y-82521250D03*
X37605000Y-82521250D03*
D14*
X30143750Y-63471250D03*
D15*
X26333750Y-60931250D03*
X32683750Y-58391250D03*
D16*
X25063750Y-63471250D03*
X35223750Y-63471250D03*
G36*
G01*
X165893590Y-77658411D02*
X165893590Y-75858409D01*
G75*
G02*
X165944589Y-75807410I50999J0D01*
G01*
X167144591Y-75807410D01*
G75*
G02*
X167195590Y-75858409I0J-50999D01*
G01*
X167195590Y-77658411D01*
G75*
G02*
X167144591Y-77709410I-50999J0D01*
G01*
X165944589Y-77709410D01*
G75*
G02*
X165893590Y-77658411I0J50999D01*
G01*
G37*
G36*
G01*
X159693590Y-77658411D02*
X159693590Y-75858409D01*
G75*
G02*
X159744589Y-75807410I50999J0D01*
G01*
X160944591Y-75807410D01*
G75*
G02*
X160995590Y-75858409I0J-50999D01*
G01*
X160995590Y-77658411D01*
G75*
G02*
X160944591Y-77709410I-50999J0D01*
G01*
X159744589Y-77709410D01*
G75*
G02*
X159693590Y-77658411I0J50999D01*
G01*
G37*
G36*
G01*
X164593590Y-80108410D02*
X164593590Y-78558410D01*
G75*
G02*
X164644590Y-78507410I51000J0D01*
G01*
X165244590Y-78507410D01*
G75*
G02*
X165295590Y-78558410I0J-51000D01*
G01*
X165295590Y-80108410D01*
G75*
G02*
X165244590Y-80159410I-51000J0D01*
G01*
X164644590Y-80159410D01*
G75*
G02*
X164593590Y-80108410I0J51000D01*
G01*
G37*
G36*
G01*
X161593590Y-80108410D02*
X161593590Y-78558410D01*
G75*
G02*
X161644590Y-78507410I51000J0D01*
G01*
X162244590Y-78507410D01*
G75*
G02*
X162295590Y-78558410I0J-51000D01*
G01*
X162295590Y-80108410D01*
G75*
G02*
X162244590Y-80159410I-51000J0D01*
G01*
X161644590Y-80159410D01*
G75*
G02*
X161593590Y-80108410I0J51000D01*
G01*
G37*
G36*
G01*
X162593590Y-80108410D02*
X162593590Y-78558410D01*
G75*
G02*
X162644590Y-78507410I51000J0D01*
G01*
X163244590Y-78507410D01*
G75*
G02*
X163295590Y-78558410I0J-51000D01*
G01*
X163295590Y-80108410D01*
G75*
G02*
X163244590Y-80159410I-51000J0D01*
G01*
X162644590Y-80159410D01*
G75*
G02*
X162593590Y-80108410I0J51000D01*
G01*
G37*
G36*
G01*
X163593590Y-80108410D02*
X163593590Y-78558410D01*
G75*
G02*
X163644590Y-78507410I51000J0D01*
G01*
X164244590Y-78507410D01*
G75*
G02*
X164295590Y-78558410I0J-51000D01*
G01*
X164295590Y-80108410D01*
G75*
G02*
X164244590Y-80159410I-51000J0D01*
G01*
X163644590Y-80159410D01*
G75*
G02*
X163593590Y-80108410I0J51000D01*
G01*
G37*
D14*
X73006250Y-63471250D03*
D16*
X67926250Y-63471250D03*
X78086250Y-63471250D03*
D15*
X75546250Y-58391250D03*
X69196250Y-60931250D03*
G36*
G01*
X187659487Y-113431559D02*
X190059487Y-113431559D01*
G75*
G02*
X190110487Y-113482559I0J-51000D01*
G01*
X190110487Y-116982559D01*
G75*
G02*
X190059487Y-117033559I-51000J0D01*
G01*
X187659487Y-117033559D01*
G75*
G02*
X187608487Y-116982559I0J51000D01*
G01*
X187608487Y-113482559D01*
G75*
G02*
X187659487Y-113431559I51000J0D01*
G01*
G37*
G36*
G01*
X187659487Y-108231559D02*
X190059487Y-108231559D01*
G75*
G02*
X190110487Y-108282559I0J-51000D01*
G01*
X190110487Y-111782559D01*
G75*
G02*
X190059487Y-111833559I-51000J0D01*
G01*
X187659487Y-111833559D01*
G75*
G02*
X187608487Y-111782559I0J51000D01*
G01*
X187608487Y-108282559D01*
G75*
G02*
X187659487Y-108231559I51000J0D01*
G01*
G37*
G36*
G01*
X180120000Y-79049000D02*
X181220000Y-79049000D01*
G75*
G02*
X181271000Y-79100000I0J-51000D01*
G01*
X181271000Y-80900000D01*
G75*
G02*
X181220000Y-80951000I-51000J0D01*
G01*
X180120000Y-80951000D01*
G75*
G02*
X180069000Y-80900000I0J51000D01*
G01*
X180069000Y-79100000D01*
G75*
G02*
X180120000Y-79049000I51000J0D01*
G01*
G37*
G36*
G01*
X180120000Y-85249000D02*
X181220000Y-85249000D01*
G75*
G02*
X181271000Y-85300000I0J-51000D01*
G01*
X181271000Y-87100000D01*
G75*
G02*
X181220000Y-87151000I-51000J0D01*
G01*
X180120000Y-87151000D01*
G75*
G02*
X180069000Y-87100000I0J51000D01*
G01*
X180069000Y-85300000D01*
G75*
G02*
X180120000Y-85249000I51000J0D01*
G01*
G37*
G36*
G01*
X183820000Y-79049000D02*
X184920000Y-79049000D01*
G75*
G02*
X184971000Y-79100000I0J-51000D01*
G01*
X184971000Y-80900000D01*
G75*
G02*
X184920000Y-80951000I-51000J0D01*
G01*
X183820000Y-80951000D01*
G75*
G02*
X183769000Y-80900000I0J51000D01*
G01*
X183769000Y-79100000D01*
G75*
G02*
X183820000Y-79049000I51000J0D01*
G01*
G37*
G36*
G01*
X183820000Y-85249000D02*
X184920000Y-85249000D01*
G75*
G02*
X184971000Y-85300000I0J-51000D01*
G01*
X184971000Y-87100000D01*
G75*
G02*
X184920000Y-87151000I-51000J0D01*
G01*
X183820000Y-87151000D01*
G75*
G02*
X183769000Y-87100000I0J51000D01*
G01*
X183769000Y-85300000D01*
G75*
G02*
X183820000Y-85249000I51000J0D01*
G01*
G37*
G36*
G01*
X162874697Y-85307910D02*
X161558485Y-85307910D01*
G75*
G02*
X161290591Y-85040016I0J267894D01*
G01*
X161290591Y-84048804D01*
G75*
G02*
X161558485Y-83780910I267894J0D01*
G01*
X162874697Y-83780910D01*
G75*
G02*
X163142591Y-84048804I0J-267894D01*
G01*
X163142591Y-85040016D01*
G75*
G02*
X162874697Y-85307910I-267894J0D01*
G01*
G37*
G36*
G01*
X162874697Y-82332910D02*
X161558485Y-82332910D01*
G75*
G02*
X161290591Y-82065016I0J267894D01*
G01*
X161290591Y-81073804D01*
G75*
G02*
X161558485Y-80805910I267894J0D01*
G01*
X162874697Y-80805910D01*
G75*
G02*
X163142591Y-81073804I0J-267894D01*
G01*
X163142591Y-82065016D01*
G75*
G02*
X162874697Y-82332910I-267894J0D01*
G01*
G37*
G36*
G01*
X176971894Y-88371500D02*
X178288106Y-88371500D01*
G75*
G02*
X178556000Y-88639394I0J-267894D01*
G01*
X178556000Y-89630606D01*
G75*
G02*
X178288106Y-89898500I-267894J0D01*
G01*
X176971894Y-89898500D01*
G75*
G02*
X176704000Y-89630606I0J267894D01*
G01*
X176704000Y-88639394D01*
G75*
G02*
X176971894Y-88371500I267894J0D01*
G01*
G37*
G36*
G01*
X176971894Y-85396500D02*
X178288106Y-85396500D01*
G75*
G02*
X178556000Y-85664394I0J-267894D01*
G01*
X178556000Y-86655606D01*
G75*
G02*
X178288106Y-86923500I-267894J0D01*
G01*
X176971894Y-86923500D01*
G75*
G02*
X176704000Y-86655606I0J267894D01*
G01*
X176704000Y-85664394D01*
G75*
G02*
X176971894Y-85396500I267894J0D01*
G01*
G37*
G36*
G01*
X187918106Y-86923500D02*
X186601894Y-86923500D01*
G75*
G02*
X186334000Y-86655606I0J267894D01*
G01*
X186334000Y-85664394D01*
G75*
G02*
X186601894Y-85396500I267894J0D01*
G01*
X187918106Y-85396500D01*
G75*
G02*
X188186000Y-85664394I0J-267894D01*
G01*
X188186000Y-86655606D01*
G75*
G02*
X187918106Y-86923500I-267894J0D01*
G01*
G37*
G36*
G01*
X187918106Y-89898500D02*
X186601894Y-89898500D01*
G75*
G02*
X186334000Y-89630606I0J267894D01*
G01*
X186334000Y-88639394D01*
G75*
G02*
X186601894Y-88371500I267894J0D01*
G01*
X187918106Y-88371500D01*
G75*
G02*
X188186000Y-88639394I0J-267894D01*
G01*
X188186000Y-89630606D01*
G75*
G02*
X187918106Y-89898500I-267894J0D01*
G01*
G37*
G36*
G01*
X173771172Y-101754000D02*
X174728828Y-101754000D01*
G75*
G02*
X175001000Y-102026172I0J-272172D01*
G01*
X175001000Y-102733828D01*
G75*
G02*
X174728828Y-103006000I-272172J0D01*
G01*
X173771172Y-103006000D01*
G75*
G02*
X173499000Y-102733828I0J272172D01*
G01*
X173499000Y-102026172D01*
G75*
G02*
X173771172Y-101754000I272172J0D01*
G01*
G37*
G36*
G01*
X173771172Y-99704000D02*
X174728828Y-99704000D01*
G75*
G02*
X175001000Y-99976172I0J-272172D01*
G01*
X175001000Y-100683828D01*
G75*
G02*
X174728828Y-100956000I-272172J0D01*
G01*
X173771172Y-100956000D01*
G75*
G02*
X173499000Y-100683828I0J272172D01*
G01*
X173499000Y-99976172D01*
G75*
G02*
X173771172Y-99704000I272172J0D01*
G01*
G37*
G36*
G01*
X177654498Y-122288337D02*
X178331664Y-122965501D01*
G75*
G02*
X178331664Y-123350411I-192455J-192455D01*
G01*
X177831275Y-123850800D01*
G75*
G02*
X177446365Y-123850800I-192455J192455D01*
G01*
X176769200Y-123173635D01*
G75*
G02*
X176769200Y-122788725I192455J192455D01*
G01*
X177269589Y-122288336D01*
G75*
G02*
X177654499Y-122288336I192455J-192455D01*
G01*
G37*
G36*
G01*
X179104066Y-120838769D02*
X179781232Y-121515933D01*
G75*
G02*
X179781232Y-121900843I-192455J-192455D01*
G01*
X179280843Y-122401232D01*
G75*
G02*
X178895933Y-122401232I-192455J192455D01*
G01*
X178218768Y-121724067D01*
G75*
G02*
X178218768Y-121339157I192455J192455D01*
G01*
X178719157Y-120838768D01*
G75*
G02*
X179104067Y-120838768I192455J-192455D01*
G01*
G37*
G36*
G01*
X164069718Y-107969231D02*
X163392552Y-107292067D01*
G75*
G02*
X163392552Y-106907157I192455J192455D01*
G01*
X163892941Y-106406768D01*
G75*
G02*
X164277851Y-106406768I192455J-192455D01*
G01*
X164955016Y-107083933D01*
G75*
G02*
X164955016Y-107468843I-192455J-192455D01*
G01*
X164454627Y-107969232D01*
G75*
G02*
X164069717Y-107969232I-192455J192455D01*
G01*
G37*
G36*
G01*
X162620150Y-109418799D02*
X161942984Y-108741635D01*
G75*
G02*
X161942984Y-108356725I192455J192455D01*
G01*
X162443373Y-107856336D01*
G75*
G02*
X162828283Y-107856336I192455J-192455D01*
G01*
X163505448Y-108533501D01*
G75*
G02*
X163505448Y-108918411I-192455J-192455D01*
G01*
X163005059Y-109418800D01*
G75*
G02*
X162620149Y-109418800I-192455J192455D01*
G01*
G37*
G36*
G01*
X173003172Y-95640000D02*
X173960828Y-95640000D01*
G75*
G02*
X174233000Y-95912172I0J-272172D01*
G01*
X174233000Y-96619828D01*
G75*
G02*
X173960828Y-96892000I-272172J0D01*
G01*
X173003172Y-96892000D01*
G75*
G02*
X172731000Y-96619828I0J272172D01*
G01*
X172731000Y-95912172D01*
G75*
G02*
X173003172Y-95640000I272172J0D01*
G01*
G37*
G36*
G01*
X173003172Y-97690000D02*
X173960828Y-97690000D01*
G75*
G02*
X174233000Y-97962172I0J-272172D01*
G01*
X174233000Y-98669828D01*
G75*
G02*
X173960828Y-98942000I-272172J0D01*
G01*
X173003172Y-98942000D01*
G75*
G02*
X172731000Y-98669828I0J272172D01*
G01*
X172731000Y-97962172D01*
G75*
G02*
X173003172Y-97690000I272172J0D01*
G01*
G37*
G36*
G01*
X193358315Y-109488560D02*
X192400659Y-109488560D01*
G75*
G02*
X192128487Y-109216388I0J272172D01*
G01*
X192128487Y-108508732D01*
G75*
G02*
X192400659Y-108236560I272172J0D01*
G01*
X193358315Y-108236560D01*
G75*
G02*
X193630487Y-108508732I0J-272172D01*
G01*
X193630487Y-109216388D01*
G75*
G02*
X193358315Y-109488560I-272172J0D01*
G01*
G37*
G36*
G01*
X193358315Y-111538560D02*
X192400659Y-111538560D01*
G75*
G02*
X192128487Y-111266388I0J272172D01*
G01*
X192128487Y-110558732D01*
G75*
G02*
X192400659Y-110286560I272172J0D01*
G01*
X193358315Y-110286560D01*
G75*
G02*
X193630487Y-110558732I0J-272172D01*
G01*
X193630487Y-111266388D01*
G75*
G02*
X193358315Y-111538560I-272172J0D01*
G01*
G37*
G36*
G01*
X192400662Y-115786560D02*
X193358318Y-115786560D01*
G75*
G02*
X193630490Y-116058732I0J-272172D01*
G01*
X193630490Y-116766388D01*
G75*
G02*
X193358318Y-117038560I-272172J0D01*
G01*
X192400662Y-117038560D01*
G75*
G02*
X192128490Y-116766388I0J272172D01*
G01*
X192128490Y-116058732D01*
G75*
G02*
X192400662Y-115786560I272172J0D01*
G01*
G37*
G36*
G01*
X192400662Y-113736560D02*
X193358318Y-113736560D01*
G75*
G02*
X193630490Y-114008732I0J-272172D01*
G01*
X193630490Y-114716388D01*
G75*
G02*
X193358318Y-114988560I-272172J0D01*
G01*
X192400662Y-114988560D01*
G75*
G02*
X192128490Y-114716388I0J272172D01*
G01*
X192128490Y-114008732D01*
G75*
G02*
X192400662Y-113736560I272172J0D01*
G01*
G37*
G36*
G01*
X180909000Y-89828828D02*
X180909000Y-88871172D01*
G75*
G02*
X181181172Y-88599000I272172J0D01*
G01*
X181888828Y-88599000D01*
G75*
G02*
X182161000Y-88871172I0J-272172D01*
G01*
X182161000Y-89828828D01*
G75*
G02*
X181888828Y-90101000I-272172J0D01*
G01*
X181181172Y-90101000D01*
G75*
G02*
X180909000Y-89828828I0J272172D01*
G01*
G37*
G36*
G01*
X182959000Y-89828828D02*
X182959000Y-88871172D01*
G75*
G02*
X183231172Y-88599000I272172J0D01*
G01*
X183938828Y-88599000D01*
G75*
G02*
X184211000Y-88871172I0J-272172D01*
G01*
X184211000Y-89828828D01*
G75*
G02*
X183938828Y-90101000I-272172J0D01*
G01*
X183231172Y-90101000D01*
G75*
G02*
X182959000Y-89828828I0J272172D01*
G01*
G37*
D14*
X376536250Y-99158250D03*
X376536250Y-123034250D03*
D17*
X361296250Y-123034250D03*
X361296250Y-99158250D03*
D16*
X373361250Y-111096250D03*
X363201250Y-111096250D03*
D15*
X370821250Y-106016250D03*
X364471250Y-108556250D03*
D14*
X368281250Y-111096250D03*
X368281250Y-82521250D03*
D16*
X363201250Y-82521250D03*
X373361250Y-82521250D03*
D15*
X370821250Y-77441250D03*
X364471250Y-79981250D03*
D14*
X368281250Y-63471250D03*
D16*
X363201250Y-63471250D03*
X373361250Y-63471250D03*
D15*
X370821250Y-58391250D03*
X364471250Y-60931250D03*
D14*
X368281250Y-44421250D03*
D16*
X363201250Y-44421250D03*
X373361250Y-44421250D03*
D15*
X370821250Y-39341250D03*
X364471250Y-41881250D03*
D14*
X368281250Y-25371250D03*
D16*
X363201250Y-25371250D03*
X373361250Y-25371250D03*
D15*
X370821250Y-20291250D03*
X364471250Y-22831250D03*
D14*
X349231250Y-120621250D03*
D16*
X344151250Y-120621250D03*
X354311250Y-120621250D03*
D15*
X351771250Y-115541250D03*
X345421250Y-118081250D03*
D14*
X349231250Y-101571250D03*
D16*
X344151250Y-101571250D03*
X354311250Y-101571250D03*
D15*
X351771250Y-96491250D03*
X345421250Y-99031250D03*
D14*
X349231250Y-82521250D03*
D16*
X344151250Y-82521250D03*
X354311250Y-82521250D03*
D15*
X351771250Y-77441250D03*
X345421250Y-79981250D03*
D14*
X349231250Y-63471250D03*
D16*
X344151250Y-63471250D03*
X354311250Y-63471250D03*
D15*
X351771250Y-58391250D03*
X345421250Y-60931250D03*
D14*
X349231250Y-44421250D03*
D16*
X344151250Y-44421250D03*
X354311250Y-44421250D03*
D15*
X351771250Y-39341250D03*
X345421250Y-41881250D03*
D14*
X349231250Y-25371250D03*
D16*
X344151250Y-25371250D03*
X354311250Y-25371250D03*
D15*
X351771250Y-20291250D03*
X345421250Y-22831250D03*
D14*
X330181250Y-120621250D03*
D16*
X325101250Y-120621250D03*
X335261250Y-120621250D03*
D15*
X332721250Y-115541250D03*
X326371250Y-118081250D03*
D14*
X330181250Y-101571250D03*
D16*
X325101250Y-101571250D03*
X335261250Y-101571250D03*
D15*
X332721250Y-96491250D03*
X326371250Y-99031250D03*
D14*
X330181250Y-82521250D03*
D16*
X325101250Y-82521250D03*
X335261250Y-82521250D03*
D15*
X332721250Y-77441250D03*
X326371250Y-79981250D03*
D14*
X330181250Y-63471250D03*
D16*
X325101250Y-63471250D03*
X335261250Y-63471250D03*
D15*
X332721250Y-58391250D03*
X326371250Y-60931250D03*
D14*
X330181250Y-44421250D03*
D16*
X325101250Y-44421250D03*
X335261250Y-44421250D03*
D15*
X332721250Y-39341250D03*
X326371250Y-41881250D03*
D14*
X330181250Y-25371250D03*
D16*
X325101250Y-25371250D03*
X335261250Y-25371250D03*
D15*
X332721250Y-20291250D03*
X326371250Y-22831250D03*
D14*
X311131250Y-120621250D03*
D16*
X306051250Y-120621250D03*
X316211250Y-120621250D03*
D15*
X313671250Y-115541250D03*
X307321250Y-118081250D03*
D14*
X311131250Y-101571250D03*
D16*
X306051250Y-101571250D03*
X316211250Y-101571250D03*
D15*
X313671250Y-96491250D03*
X307321250Y-99031250D03*
D14*
X311131250Y-82521250D03*
D16*
X306051250Y-82521250D03*
X316211250Y-82521250D03*
D15*
X313671250Y-77441250D03*
X307321250Y-79981250D03*
D14*
X311131250Y-63471250D03*
D16*
X306051250Y-63471250D03*
X316211250Y-63471250D03*
D15*
X313671250Y-58391250D03*
X307321250Y-60931250D03*
D14*
X311131250Y-44421250D03*
D16*
X306051250Y-44421250D03*
X316211250Y-44421250D03*
D15*
X313671250Y-39341250D03*
X307321250Y-41881250D03*
D14*
X311131250Y-25371250D03*
D16*
X306051250Y-25371250D03*
X316211250Y-25371250D03*
D15*
X313671250Y-20291250D03*
X307321250Y-22831250D03*
D14*
X292081250Y-25371250D03*
D16*
X287001250Y-25371250D03*
X297161250Y-25371250D03*
D15*
X294621250Y-20291250D03*
X288271250Y-22831250D03*
D14*
X292081250Y-120621250D03*
D16*
X287001250Y-120621250D03*
X297161250Y-120621250D03*
D15*
X294621250Y-115541250D03*
X288271250Y-118081250D03*
D14*
X292081250Y-101571250D03*
D16*
X287001250Y-101571250D03*
X297161250Y-101571250D03*
D15*
X294621250Y-96491250D03*
X288271250Y-99031250D03*
D14*
X280175000Y-82521250D03*
D15*
X276365000Y-79981250D03*
X282715000Y-77441250D03*
D16*
X275095000Y-82521250D03*
X285255000Y-82521250D03*
D17*
X292113000Y-75536250D03*
X268237000Y-75536250D03*
D14*
X268237000Y-90776250D03*
X292113000Y-90776250D03*
X287318750Y-63471250D03*
D15*
X283508750Y-60931250D03*
X289858750Y-58391250D03*
D16*
X282238750Y-63471250D03*
X292398750Y-63471250D03*
D14*
X282556250Y-44421250D03*
D15*
X278746250Y-41881250D03*
X285096250Y-39341250D03*
D16*
X277476250Y-44421250D03*
X287636250Y-44421250D03*
D17*
X294494250Y-37436250D03*
X270618250Y-37436250D03*
D14*
X270618250Y-52676250D03*
X294494250Y-52676250D03*
X273031250Y-25371250D03*
D16*
X267951250Y-25371250D03*
X278111250Y-25371250D03*
D15*
X275571250Y-20291250D03*
X269221250Y-22831250D03*
D14*
X273031250Y-120621250D03*
D16*
X267951250Y-120621250D03*
X278111250Y-120621250D03*
D15*
X275571250Y-115541250D03*
X269221250Y-118081250D03*
D14*
X265887500Y-101571250D03*
D15*
X262077500Y-99031250D03*
X268427500Y-96491250D03*
D16*
X260807500Y-101571250D03*
X270967500Y-101571250D03*
D14*
X263506250Y-63471250D03*
D16*
X258426250Y-63471250D03*
X268586250Y-63471250D03*
D15*
X266046250Y-58391250D03*
X259696250Y-60931250D03*
D14*
X253981250Y-44421250D03*
D16*
X248901250Y-44421250D03*
X259061250Y-44421250D03*
D15*
X256521250Y-39341250D03*
X250171250Y-41881250D03*
D14*
X253981250Y-25371250D03*
D16*
X248901250Y-25371250D03*
X259061250Y-25371250D03*
D15*
X256521250Y-20291250D03*
X250171250Y-22831250D03*
D14*
X253981250Y-120621250D03*
D16*
X248901250Y-120621250D03*
X259061250Y-120621250D03*
D15*
X256521250Y-115541250D03*
X250171250Y-118081250D03*
D14*
X249218750Y-82521250D03*
D16*
X244138750Y-82521250D03*
X254298750Y-82521250D03*
D15*
X251758750Y-77441250D03*
X245408750Y-79981250D03*
D14*
X244456250Y-63471250D03*
D16*
X239376250Y-63471250D03*
X249536250Y-63471250D03*
D15*
X246996250Y-58391250D03*
X240646250Y-60931250D03*
D14*
X234931250Y-44421250D03*
D16*
X229851250Y-44421250D03*
X240011250Y-44421250D03*
D15*
X237471250Y-39341250D03*
X231121250Y-41881250D03*
D14*
X234931250Y-25371250D03*
D16*
X229851250Y-25371250D03*
X240011250Y-25371250D03*
D15*
X237471250Y-20291250D03*
X231121250Y-22831250D03*
D14*
X234931250Y-120621250D03*
D16*
X229851250Y-120621250D03*
X240011250Y-120621250D03*
D15*
X237471250Y-115541250D03*
X231121250Y-118081250D03*
D14*
X239693750Y-101571250D03*
D16*
X234613750Y-101571250D03*
X244773750Y-101571250D03*
D15*
X242233750Y-96491250D03*
X235883750Y-99031250D03*
D14*
X230168750Y-82521250D03*
D16*
X225088750Y-82521250D03*
X235248750Y-82521250D03*
D15*
X232708750Y-77441250D03*
X226358750Y-79981250D03*
D14*
X225406250Y-63471250D03*
D16*
X220326250Y-63471250D03*
X230486250Y-63471250D03*
D15*
X227946250Y-58391250D03*
X221596250Y-60931250D03*
D14*
X215881250Y-44421250D03*
D16*
X210801250Y-44421250D03*
X220961250Y-44421250D03*
D15*
X218421250Y-39341250D03*
X212071250Y-41881250D03*
D14*
X215881250Y-25371250D03*
D16*
X210801250Y-25371250D03*
X220961250Y-25371250D03*
D15*
X218421250Y-20291250D03*
X212071250Y-22831250D03*
D14*
X215881250Y-120621250D03*
D16*
X210801250Y-120621250D03*
X220961250Y-120621250D03*
D15*
X218421250Y-115541250D03*
X212071250Y-118081250D03*
D14*
X220643750Y-101571250D03*
D16*
X215563750Y-101571250D03*
X225723750Y-101571250D03*
D15*
X223183750Y-96491250D03*
X216833750Y-99031250D03*
D14*
X211118750Y-82521250D03*
D16*
X206038750Y-82521250D03*
X216198750Y-82521250D03*
D15*
X213658750Y-77441250D03*
X207308750Y-79981250D03*
D14*
X206356250Y-63471250D03*
D16*
X201276250Y-63471250D03*
X211436250Y-63471250D03*
D15*
X208896250Y-58391250D03*
X202546250Y-60931250D03*
D14*
X196831250Y-44421250D03*
D16*
X191751250Y-44421250D03*
X201911250Y-44421250D03*
D15*
X199371250Y-39341250D03*
X193021250Y-41881250D03*
D14*
X196831250Y-25371250D03*
D16*
X191751250Y-25371250D03*
X201911250Y-25371250D03*
D15*
X199371250Y-20291250D03*
X193021250Y-22831250D03*
D14*
X201593750Y-101571250D03*
D16*
X196513750Y-101571250D03*
X206673750Y-101571250D03*
D15*
X204133750Y-96491250D03*
X197783750Y-99031250D03*
D14*
X187306250Y-63471250D03*
D16*
X182226250Y-63471250D03*
X192386250Y-63471250D03*
D15*
X189846250Y-58391250D03*
X183496250Y-60931250D03*
D14*
X177781250Y-44421250D03*
D16*
X172701250Y-44421250D03*
X182861250Y-44421250D03*
D15*
X180321250Y-39341250D03*
X173971250Y-41881250D03*
D14*
X177781250Y-25371250D03*
D16*
X172701250Y-25371250D03*
X182861250Y-25371250D03*
D15*
X180321250Y-20291250D03*
X173971250Y-22831250D03*
D14*
X182543750Y-101571250D03*
D16*
X177463750Y-101571250D03*
X187623750Y-101571250D03*
D15*
X185083750Y-96491250D03*
X178733750Y-99031250D03*
D14*
X168256250Y-63471250D03*
D16*
X163176250Y-63471250D03*
X173336250Y-63471250D03*
D15*
X170796250Y-58391250D03*
X164446250Y-60931250D03*
D14*
X158731250Y-44421250D03*
D16*
X153651250Y-44421250D03*
X163811250Y-44421250D03*
D15*
X161271250Y-39341250D03*
X154921250Y-41881250D03*
D14*
X158731250Y-25371250D03*
D16*
X153651250Y-25371250D03*
X163811250Y-25371250D03*
D15*
X161271250Y-20291250D03*
X154921250Y-22831250D03*
D14*
X163493750Y-101571250D03*
D16*
X158413750Y-101571250D03*
X168573750Y-101571250D03*
D15*
X166033750Y-96491250D03*
X159683750Y-99031250D03*
D14*
X149206250Y-63471250D03*
D16*
X144126250Y-63471250D03*
X154286250Y-63471250D03*
D15*
X151746250Y-58391250D03*
X145396250Y-60931250D03*
D14*
X139681250Y-44421250D03*
D16*
X134601250Y-44421250D03*
X144761250Y-44421250D03*
D15*
X142221250Y-39341250D03*
X135871250Y-41881250D03*
D14*
X139681250Y-25371250D03*
D16*
X134601250Y-25371250D03*
X144761250Y-25371250D03*
D15*
X142221250Y-20291250D03*
X135871250Y-22831250D03*
D14*
X144443750Y-101571250D03*
D16*
X139363750Y-101571250D03*
X149523750Y-101571250D03*
D15*
X146983750Y-96491250D03*
X140633750Y-99031250D03*
D14*
X134918750Y-82521250D03*
D16*
X129838750Y-82521250D03*
X139998750Y-82521250D03*
D15*
X137458750Y-77441250D03*
X131108750Y-79981250D03*
D14*
X130156250Y-63471250D03*
D16*
X125076250Y-63471250D03*
X135236250Y-63471250D03*
D15*
X132696250Y-58391250D03*
X126346250Y-60931250D03*
D14*
X120631250Y-44421250D03*
D16*
X115551250Y-44421250D03*
X125711250Y-44421250D03*
D15*
X123171250Y-39341250D03*
X116821250Y-41881250D03*
D14*
X120631250Y-25371250D03*
D16*
X115551250Y-25371250D03*
X125711250Y-25371250D03*
D15*
X123171250Y-20291250D03*
X116821250Y-22831250D03*
D14*
X125393750Y-101571250D03*
D16*
X120313750Y-101571250D03*
X130473750Y-101571250D03*
D15*
X127933750Y-96491250D03*
X121583750Y-99031250D03*
D14*
X115868750Y-82521250D03*
D16*
X110788750Y-82521250D03*
X120948750Y-82521250D03*
D15*
X118408750Y-77441250D03*
X112058750Y-79981250D03*
D14*
X111106250Y-63471250D03*
D16*
X106026250Y-63471250D03*
X116186250Y-63471250D03*
D15*
X113646250Y-58391250D03*
X107296250Y-60931250D03*
D14*
X101581250Y-44421250D03*
D16*
X96501250Y-44421250D03*
X106661250Y-44421250D03*
D15*
X104121250Y-39341250D03*
X97771250Y-41881250D03*
D14*
X101581250Y-25371250D03*
D16*
X96501250Y-25371250D03*
X106661250Y-25371250D03*
D15*
X104121250Y-20291250D03*
X97771250Y-22831250D03*
D14*
X106343750Y-101571250D03*
D16*
X101263750Y-101571250D03*
X111423750Y-101571250D03*
D15*
X108883750Y-96491250D03*
X102533750Y-99031250D03*
D14*
X96818750Y-82521250D03*
D16*
X91738750Y-82521250D03*
X101898750Y-82521250D03*
D15*
X99358750Y-77441250D03*
X93008750Y-79981250D03*
D14*
X92056250Y-63471250D03*
D16*
X86976250Y-63471250D03*
X97136250Y-63471250D03*
D15*
X94596250Y-58391250D03*
X88246250Y-60931250D03*
D14*
X82531250Y-44421250D03*
D16*
X77451250Y-44421250D03*
X87611250Y-44421250D03*
D15*
X85071250Y-39341250D03*
X78721250Y-41881250D03*
D14*
X82531250Y-25371250D03*
D16*
X77451250Y-25371250D03*
X87611250Y-25371250D03*
D15*
X85071250Y-20291250D03*
X78721250Y-22831250D03*
D14*
X75387500Y-120621250D03*
D15*
X71577500Y-118081250D03*
X77927500Y-115541250D03*
D16*
X70307500Y-120621250D03*
X80467500Y-120621250D03*
D14*
X87293750Y-101571250D03*
D16*
X82213750Y-101571250D03*
X92373750Y-101571250D03*
D15*
X89833750Y-96491250D03*
X83483750Y-99031250D03*
D14*
X77768750Y-82521250D03*
D16*
X72688750Y-82521250D03*
X82848750Y-82521250D03*
D15*
X80308750Y-77441250D03*
X73958750Y-79981250D03*
D14*
X63481250Y-44421250D03*
D16*
X58401250Y-44421250D03*
X68561250Y-44421250D03*
D15*
X66021250Y-39341250D03*
X59671250Y-41881250D03*
D14*
X63481250Y-25371250D03*
D16*
X58401250Y-25371250D03*
X68561250Y-25371250D03*
D15*
X66021250Y-20291250D03*
X59671250Y-22831250D03*
D14*
X51575000Y-120621250D03*
D15*
X47765000Y-118081250D03*
X54115000Y-115541250D03*
D16*
X46495000Y-120621250D03*
X56655000Y-120621250D03*
D14*
X68243750Y-101571250D03*
D16*
X63163750Y-101571250D03*
X73323750Y-101571250D03*
D15*
X70783750Y-96491250D03*
X64433750Y-99031250D03*
D14*
X58718750Y-82521250D03*
D16*
X53638750Y-82521250D03*
X63798750Y-82521250D03*
D15*
X61258750Y-77441250D03*
X54908750Y-79981250D03*
D14*
X53956250Y-63471250D03*
D16*
X48876250Y-63471250D03*
X59036250Y-63471250D03*
D15*
X56496250Y-58391250D03*
X50146250Y-60931250D03*
D14*
X44431250Y-44421250D03*
D16*
X39351250Y-44421250D03*
X49511250Y-44421250D03*
D15*
X46971250Y-39341250D03*
X40621250Y-41881250D03*
D14*
X44431250Y-25371250D03*
D16*
X39351250Y-25371250D03*
X49511250Y-25371250D03*
D15*
X46971250Y-20291250D03*
X40621250Y-22831250D03*
D14*
X27762500Y-120621250D03*
D15*
X23952500Y-118081250D03*
X30302500Y-115541250D03*
D16*
X22682500Y-120621250D03*
X32842500Y-120621250D03*
D14*
X37287500Y-101571250D03*
D15*
X33477500Y-99031250D03*
X39827500Y-96491250D03*
D16*
X32207500Y-101571250D03*
X42367500Y-101571250D03*
D17*
X49225500Y-94586250D03*
X25349500Y-94586250D03*
D14*
X25349500Y-109826250D03*
X49225500Y-109826250D03*
X25381250Y-25371250D03*
D16*
X20301250Y-25371250D03*
X30461250Y-25371250D03*
D15*
X27921250Y-20291250D03*
X21571250Y-22831250D03*
G36*
G01*
X373468529Y-107830250D02*
X374219529Y-107830250D01*
G75*
G02*
X374495029Y-108105750I0J-275500D01*
G01*
X374495029Y-108656750D01*
G75*
G02*
X374219529Y-108932250I-275500J0D01*
G01*
X373468529Y-108932250D01*
G75*
G02*
X373193029Y-108656750I0J275500D01*
G01*
X373193029Y-108105750D01*
G75*
G02*
X373468529Y-107830250I275500J0D01*
G01*
G37*
G36*
G01*
X373468529Y-104530250D02*
X374219529Y-104530250D01*
G75*
G02*
X374495029Y-104805750I0J-275500D01*
G01*
X374495029Y-105356750D01*
G75*
G02*
X374219529Y-105632250I-275500J0D01*
G01*
X373468529Y-105632250D01*
G75*
G02*
X373193029Y-105356750I0J275500D01*
G01*
X373193029Y-104805750D01*
G75*
G02*
X373468529Y-104530250I275500J0D01*
G01*
G37*
G36*
G01*
X373475750Y-77679000D02*
X374226750Y-77679000D01*
G75*
G02*
X374502250Y-77954500I0J-275500D01*
G01*
X374502250Y-78505500D01*
G75*
G02*
X374226750Y-78781000I-275500J0D01*
G01*
X373475750Y-78781000D01*
G75*
G02*
X373200250Y-78505500I0J275500D01*
G01*
X373200250Y-77954500D01*
G75*
G02*
X373475750Y-77679000I275500J0D01*
G01*
G37*
G36*
G01*
X373475750Y-74379000D02*
X374226750Y-74379000D01*
G75*
G02*
X374502250Y-74654500I0J-275500D01*
G01*
X374502250Y-75205500D01*
G75*
G02*
X374226750Y-75481000I-275500J0D01*
G01*
X373475750Y-75481000D01*
G75*
G02*
X373200250Y-75205500I0J275500D01*
G01*
X373200250Y-74654500D01*
G75*
G02*
X373475750Y-74379000I275500J0D01*
G01*
G37*
G36*
G01*
X373475750Y-58639000D02*
X374226750Y-58639000D01*
G75*
G02*
X374502250Y-58914500I0J-275500D01*
G01*
X374502250Y-59465500D01*
G75*
G02*
X374226750Y-59741000I-275500J0D01*
G01*
X373475750Y-59741000D01*
G75*
G02*
X373200250Y-59465500I0J275500D01*
G01*
X373200250Y-58914500D01*
G75*
G02*
X373475750Y-58639000I275500J0D01*
G01*
G37*
G36*
G01*
X373475750Y-55339000D02*
X374226750Y-55339000D01*
G75*
G02*
X374502250Y-55614500I0J-275500D01*
G01*
X374502250Y-56165500D01*
G75*
G02*
X374226750Y-56441000I-275500J0D01*
G01*
X373475750Y-56441000D01*
G75*
G02*
X373200250Y-56165500I0J275500D01*
G01*
X373200250Y-55614500D01*
G75*
G02*
X373475750Y-55339000I275500J0D01*
G01*
G37*
G36*
G01*
X373485750Y-39507999D02*
X374236750Y-39507999D01*
G75*
G02*
X374512250Y-39783499I0J-275500D01*
G01*
X374512250Y-40334499D01*
G75*
G02*
X374236750Y-40609999I-275500J0D01*
G01*
X373485750Y-40609999D01*
G75*
G02*
X373210250Y-40334499I0J275500D01*
G01*
X373210250Y-39783499D01*
G75*
G02*
X373485750Y-39507999I275500J0D01*
G01*
G37*
G36*
G01*
X373485750Y-36207999D02*
X374236750Y-36207999D01*
G75*
G02*
X374512250Y-36483499I0J-275500D01*
G01*
X374512250Y-37034499D01*
G75*
G02*
X374236750Y-37309999I-275500J0D01*
G01*
X373485750Y-37309999D01*
G75*
G02*
X373210250Y-37034499I0J275500D01*
G01*
X373210250Y-36483499D01*
G75*
G02*
X373485750Y-36207999I275500J0D01*
G01*
G37*
G36*
G01*
X373495750Y-20331999D02*
X374246750Y-20331999D01*
G75*
G02*
X374522250Y-20607499I0J-275500D01*
G01*
X374522250Y-21158499D01*
G75*
G02*
X374246750Y-21433999I-275500J0D01*
G01*
X373495750Y-21433999D01*
G75*
G02*
X373220250Y-21158499I0J275500D01*
G01*
X373220250Y-20607499D01*
G75*
G02*
X373495750Y-20331999I275500J0D01*
G01*
G37*
G36*
G01*
X373495750Y-17031999D02*
X374246750Y-17031999D01*
G75*
G02*
X374522250Y-17307499I0J-275500D01*
G01*
X374522250Y-17858499D01*
G75*
G02*
X374246750Y-18133999I-275500J0D01*
G01*
X373495750Y-18133999D01*
G75*
G02*
X373220250Y-17858499I0J275500D01*
G01*
X373220250Y-17307499D01*
G75*
G02*
X373495750Y-17031999I275500J0D01*
G01*
G37*
G36*
G01*
X354425750Y-112607000D02*
X355176750Y-112607000D01*
G75*
G02*
X355452250Y-112882500I0J-275500D01*
G01*
X355452250Y-113433500D01*
G75*
G02*
X355176750Y-113709000I-275500J0D01*
G01*
X354425750Y-113709000D01*
G75*
G02*
X354150250Y-113433500I0J275500D01*
G01*
X354150250Y-112882500D01*
G75*
G02*
X354425750Y-112607000I275500J0D01*
G01*
G37*
G36*
G01*
X354425750Y-115907000D02*
X355176750Y-115907000D01*
G75*
G02*
X355452250Y-116182500I0J-275500D01*
G01*
X355452250Y-116733500D01*
G75*
G02*
X355176750Y-117009000I-275500J0D01*
G01*
X354425750Y-117009000D01*
G75*
G02*
X354150250Y-116733500I0J275500D01*
G01*
X354150250Y-116182500D01*
G75*
G02*
X354425750Y-115907000I275500J0D01*
G01*
G37*
G36*
G01*
X354428666Y-96729000D02*
X355179666Y-96729000D01*
G75*
G02*
X355455166Y-97004500I0J-275500D01*
G01*
X355455166Y-97555500D01*
G75*
G02*
X355179666Y-97831000I-275500J0D01*
G01*
X354428666Y-97831000D01*
G75*
G02*
X354153166Y-97555500I0J275500D01*
G01*
X354153166Y-97004500D01*
G75*
G02*
X354428666Y-96729000I275500J0D01*
G01*
G37*
G36*
G01*
X354428666Y-93429000D02*
X355179666Y-93429000D01*
G75*
G02*
X355455166Y-93704500I0J-275500D01*
G01*
X355455166Y-94255500D01*
G75*
G02*
X355179666Y-94531000I-275500J0D01*
G01*
X354428666Y-94531000D01*
G75*
G02*
X354153166Y-94255500I0J275500D01*
G01*
X354153166Y-93704500D01*
G75*
G02*
X354428666Y-93429000I275500J0D01*
G01*
G37*
G36*
G01*
X354415750Y-77679000D02*
X355166750Y-77679000D01*
G75*
G02*
X355442250Y-77954500I0J-275500D01*
G01*
X355442250Y-78505500D01*
G75*
G02*
X355166750Y-78781000I-275500J0D01*
G01*
X354415750Y-78781000D01*
G75*
G02*
X354140250Y-78505500I0J275500D01*
G01*
X354140250Y-77954500D01*
G75*
G02*
X354415750Y-77679000I275500J0D01*
G01*
G37*
G36*
G01*
X354415750Y-74379000D02*
X355166750Y-74379000D01*
G75*
G02*
X355442250Y-74654500I0J-275500D01*
G01*
X355442250Y-75205500D01*
G75*
G02*
X355166750Y-75481000I-275500J0D01*
G01*
X354415750Y-75481000D01*
G75*
G02*
X354140250Y-75205500I0J275500D01*
G01*
X354140250Y-74654500D01*
G75*
G02*
X354415750Y-74379000I275500J0D01*
G01*
G37*
G36*
G01*
X354415750Y-58639000D02*
X355166750Y-58639000D01*
G75*
G02*
X355442250Y-58914500I0J-275500D01*
G01*
X355442250Y-59465500D01*
G75*
G02*
X355166750Y-59741000I-275500J0D01*
G01*
X354415750Y-59741000D01*
G75*
G02*
X354140250Y-59465500I0J275500D01*
G01*
X354140250Y-58914500D01*
G75*
G02*
X354415750Y-58639000I275500J0D01*
G01*
G37*
G36*
G01*
X354415750Y-55339000D02*
X355166750Y-55339000D01*
G75*
G02*
X355442250Y-55614500I0J-275500D01*
G01*
X355442250Y-56165500D01*
G75*
G02*
X355166750Y-56441000I-275500J0D01*
G01*
X354415750Y-56441000D01*
G75*
G02*
X354140250Y-56165500I0J275500D01*
G01*
X354140250Y-55614500D01*
G75*
G02*
X354415750Y-55339000I275500J0D01*
G01*
G37*
G36*
G01*
X354445750Y-39507999D02*
X355196750Y-39507999D01*
G75*
G02*
X355472250Y-39783499I0J-275500D01*
G01*
X355472250Y-40334499D01*
G75*
G02*
X355196750Y-40609999I-275500J0D01*
G01*
X354445750Y-40609999D01*
G75*
G02*
X354170250Y-40334499I0J275500D01*
G01*
X354170250Y-39783499D01*
G75*
G02*
X354445750Y-39507999I275500J0D01*
G01*
G37*
G36*
G01*
X354445750Y-36207999D02*
X355196750Y-36207999D01*
G75*
G02*
X355472250Y-36483499I0J-275500D01*
G01*
X355472250Y-37034499D01*
G75*
G02*
X355196750Y-37309999I-275500J0D01*
G01*
X354445750Y-37309999D01*
G75*
G02*
X354170250Y-37034499I0J275500D01*
G01*
X354170250Y-36483499D01*
G75*
G02*
X354445750Y-36207999I275500J0D01*
G01*
G37*
G36*
G01*
X354445750Y-20331999D02*
X355196750Y-20331999D01*
G75*
G02*
X355472250Y-20607499I0J-275500D01*
G01*
X355472250Y-21158499D01*
G75*
G02*
X355196750Y-21433999I-275500J0D01*
G01*
X354445750Y-21433999D01*
G75*
G02*
X354170250Y-21158499I0J275500D01*
G01*
X354170250Y-20607499D01*
G75*
G02*
X354445750Y-20331999I275500J0D01*
G01*
G37*
G36*
G01*
X354445750Y-17031999D02*
X355196750Y-17031999D01*
G75*
G02*
X355472250Y-17307499I0J-275500D01*
G01*
X355472250Y-17858499D01*
G75*
G02*
X355196750Y-18133999I-275500J0D01*
G01*
X354445750Y-18133999D01*
G75*
G02*
X354170250Y-17858499I0J275500D01*
G01*
X354170250Y-17307499D01*
G75*
G02*
X354445750Y-17031999I275500J0D01*
G01*
G37*
G36*
G01*
X335375750Y-112617000D02*
X336126750Y-112617000D01*
G75*
G02*
X336402250Y-112892500I0J-275500D01*
G01*
X336402250Y-113443500D01*
G75*
G02*
X336126750Y-113719000I-275500J0D01*
G01*
X335375750Y-113719000D01*
G75*
G02*
X335100250Y-113443500I0J275500D01*
G01*
X335100250Y-112892500D01*
G75*
G02*
X335375750Y-112617000I275500J0D01*
G01*
G37*
G36*
G01*
X335375750Y-115917000D02*
X336126750Y-115917000D01*
G75*
G02*
X336402250Y-116192500I0J-275500D01*
G01*
X336402250Y-116743500D01*
G75*
G02*
X336126750Y-117019000I-275500J0D01*
G01*
X335375750Y-117019000D01*
G75*
G02*
X335100250Y-116743500I0J275500D01*
G01*
X335100250Y-116192500D01*
G75*
G02*
X335375750Y-115917000I275500J0D01*
G01*
G37*
G36*
G01*
X335375750Y-96729000D02*
X336126750Y-96729000D01*
G75*
G02*
X336402250Y-97004500I0J-275500D01*
G01*
X336402250Y-97555500D01*
G75*
G02*
X336126750Y-97831000I-275500J0D01*
G01*
X335375750Y-97831000D01*
G75*
G02*
X335100250Y-97555500I0J275500D01*
G01*
X335100250Y-97004500D01*
G75*
G02*
X335375750Y-96729000I275500J0D01*
G01*
G37*
G36*
G01*
X335375750Y-93429000D02*
X336126750Y-93429000D01*
G75*
G02*
X336402250Y-93704500I0J-275500D01*
G01*
X336402250Y-94255500D01*
G75*
G02*
X336126750Y-94531000I-275500J0D01*
G01*
X335375750Y-94531000D01*
G75*
G02*
X335100250Y-94255500I0J275500D01*
G01*
X335100250Y-93704500D01*
G75*
G02*
X335375750Y-93429000I275500J0D01*
G01*
G37*
G36*
G01*
X335375750Y-77679000D02*
X336126750Y-77679000D01*
G75*
G02*
X336402250Y-77954500I0J-275500D01*
G01*
X336402250Y-78505500D01*
G75*
G02*
X336126750Y-78781000I-275500J0D01*
G01*
X335375750Y-78781000D01*
G75*
G02*
X335100250Y-78505500I0J275500D01*
G01*
X335100250Y-77954500D01*
G75*
G02*
X335375750Y-77679000I275500J0D01*
G01*
G37*
G36*
G01*
X335375750Y-74379000D02*
X336126750Y-74379000D01*
G75*
G02*
X336402250Y-74654500I0J-275500D01*
G01*
X336402250Y-75205500D01*
G75*
G02*
X336126750Y-75481000I-275500J0D01*
G01*
X335375750Y-75481000D01*
G75*
G02*
X335100250Y-75205500I0J275500D01*
G01*
X335100250Y-74654500D01*
G75*
G02*
X335375750Y-74379000I275500J0D01*
G01*
G37*
G36*
G01*
X335375750Y-58639000D02*
X336126750Y-58639000D01*
G75*
G02*
X336402250Y-58914500I0J-275500D01*
G01*
X336402250Y-59465500D01*
G75*
G02*
X336126750Y-59741000I-275500J0D01*
G01*
X335375750Y-59741000D01*
G75*
G02*
X335100250Y-59465500I0J275500D01*
G01*
X335100250Y-58914500D01*
G75*
G02*
X335375750Y-58639000I275500J0D01*
G01*
G37*
G36*
G01*
X335375750Y-55339000D02*
X336126750Y-55339000D01*
G75*
G02*
X336402250Y-55614500I0J-275500D01*
G01*
X336402250Y-56165500D01*
G75*
G02*
X336126750Y-56441000I-275500J0D01*
G01*
X335375750Y-56441000D01*
G75*
G02*
X335100250Y-56165500I0J275500D01*
G01*
X335100250Y-55614500D01*
G75*
G02*
X335375750Y-55339000I275500J0D01*
G01*
G37*
G36*
G01*
X335385750Y-39507999D02*
X336136750Y-39507999D01*
G75*
G02*
X336412250Y-39783499I0J-275500D01*
G01*
X336412250Y-40334499D01*
G75*
G02*
X336136750Y-40609999I-275500J0D01*
G01*
X335385750Y-40609999D01*
G75*
G02*
X335110250Y-40334499I0J275500D01*
G01*
X335110250Y-39783499D01*
G75*
G02*
X335385750Y-39507999I275500J0D01*
G01*
G37*
G36*
G01*
X335385750Y-36207999D02*
X336136750Y-36207999D01*
G75*
G02*
X336412250Y-36483499I0J-275500D01*
G01*
X336412250Y-37034499D01*
G75*
G02*
X336136750Y-37309999I-275500J0D01*
G01*
X335385750Y-37309999D01*
G75*
G02*
X335110250Y-37034499I0J275500D01*
G01*
X335110250Y-36483499D01*
G75*
G02*
X335385750Y-36207999I275500J0D01*
G01*
G37*
G36*
G01*
X335395750Y-20331999D02*
X336146750Y-20331999D01*
G75*
G02*
X336422250Y-20607499I0J-275500D01*
G01*
X336422250Y-21158499D01*
G75*
G02*
X336146750Y-21433999I-275500J0D01*
G01*
X335395750Y-21433999D01*
G75*
G02*
X335120250Y-21158499I0J275500D01*
G01*
X335120250Y-20607499D01*
G75*
G02*
X335395750Y-20331999I275500J0D01*
G01*
G37*
G36*
G01*
X335395750Y-17031999D02*
X336146750Y-17031999D01*
G75*
G02*
X336422250Y-17307499I0J-275500D01*
G01*
X336422250Y-17858499D01*
G75*
G02*
X336146750Y-18133999I-275500J0D01*
G01*
X335395750Y-18133999D01*
G75*
G02*
X335120250Y-17858499I0J275500D01*
G01*
X335120250Y-17307499D01*
G75*
G02*
X335395750Y-17031999I275500J0D01*
G01*
G37*
G36*
G01*
X316315750Y-112617000D02*
X317066750Y-112617000D01*
G75*
G02*
X317342250Y-112892500I0J-275500D01*
G01*
X317342250Y-113443500D01*
G75*
G02*
X317066750Y-113719000I-275500J0D01*
G01*
X316315750Y-113719000D01*
G75*
G02*
X316040250Y-113443500I0J275500D01*
G01*
X316040250Y-112892500D01*
G75*
G02*
X316315750Y-112617000I275500J0D01*
G01*
G37*
G36*
G01*
X316315750Y-115917000D02*
X317066750Y-115917000D01*
G75*
G02*
X317342250Y-116192500I0J-275500D01*
G01*
X317342250Y-116743500D01*
G75*
G02*
X317066750Y-117019000I-275500J0D01*
G01*
X316315750Y-117019000D01*
G75*
G02*
X316040250Y-116743500I0J275500D01*
G01*
X316040250Y-116192500D01*
G75*
G02*
X316315750Y-115917000I275500J0D01*
G01*
G37*
G36*
G01*
X316315750Y-96729000D02*
X317066750Y-96729000D01*
G75*
G02*
X317342250Y-97004500I0J-275500D01*
G01*
X317342250Y-97555500D01*
G75*
G02*
X317066750Y-97831000I-275500J0D01*
G01*
X316315750Y-97831000D01*
G75*
G02*
X316040250Y-97555500I0J275500D01*
G01*
X316040250Y-97004500D01*
G75*
G02*
X316315750Y-96729000I275500J0D01*
G01*
G37*
G36*
G01*
X316315750Y-93429000D02*
X317066750Y-93429000D01*
G75*
G02*
X317342250Y-93704500I0J-275500D01*
G01*
X317342250Y-94255500D01*
G75*
G02*
X317066750Y-94531000I-275500J0D01*
G01*
X316315750Y-94531000D01*
G75*
G02*
X316040250Y-94255500I0J275500D01*
G01*
X316040250Y-93704500D01*
G75*
G02*
X316315750Y-93429000I275500J0D01*
G01*
G37*
G36*
G01*
X316325750Y-77679000D02*
X317076750Y-77679000D01*
G75*
G02*
X317352250Y-77954500I0J-275500D01*
G01*
X317352250Y-78505500D01*
G75*
G02*
X317076750Y-78781000I-275500J0D01*
G01*
X316325750Y-78781000D01*
G75*
G02*
X316050250Y-78505500I0J275500D01*
G01*
X316050250Y-77954500D01*
G75*
G02*
X316325750Y-77679000I275500J0D01*
G01*
G37*
G36*
G01*
X316325750Y-74379000D02*
X317076750Y-74379000D01*
G75*
G02*
X317352250Y-74654500I0J-275500D01*
G01*
X317352250Y-75205500D01*
G75*
G02*
X317076750Y-75481000I-275500J0D01*
G01*
X316325750Y-75481000D01*
G75*
G02*
X316050250Y-75205500I0J275500D01*
G01*
X316050250Y-74654500D01*
G75*
G02*
X316325750Y-74379000I275500J0D01*
G01*
G37*
G36*
G01*
X316325750Y-58639000D02*
X317076750Y-58639000D01*
G75*
G02*
X317352250Y-58914500I0J-275500D01*
G01*
X317352250Y-59465500D01*
G75*
G02*
X317076750Y-59741000I-275500J0D01*
G01*
X316325750Y-59741000D01*
G75*
G02*
X316050250Y-59465500I0J275500D01*
G01*
X316050250Y-58914500D01*
G75*
G02*
X316325750Y-58639000I275500J0D01*
G01*
G37*
G36*
G01*
X316325750Y-55339000D02*
X317076750Y-55339000D01*
G75*
G02*
X317352250Y-55614500I0J-275500D01*
G01*
X317352250Y-56165500D01*
G75*
G02*
X317076750Y-56441000I-275500J0D01*
G01*
X316325750Y-56441000D01*
G75*
G02*
X316050250Y-56165500I0J275500D01*
G01*
X316050250Y-55614500D01*
G75*
G02*
X316325750Y-55339000I275500J0D01*
G01*
G37*
G36*
G01*
X316345750Y-39507999D02*
X317096750Y-39507999D01*
G75*
G02*
X317372250Y-39783499I0J-275500D01*
G01*
X317372250Y-40334499D01*
G75*
G02*
X317096750Y-40609999I-275500J0D01*
G01*
X316345750Y-40609999D01*
G75*
G02*
X316070250Y-40334499I0J275500D01*
G01*
X316070250Y-39783499D01*
G75*
G02*
X316345750Y-39507999I275500J0D01*
G01*
G37*
G36*
G01*
X316345750Y-36207999D02*
X317096750Y-36207999D01*
G75*
G02*
X317372250Y-36483499I0J-275500D01*
G01*
X317372250Y-37034499D01*
G75*
G02*
X317096750Y-37309999I-275500J0D01*
G01*
X316345750Y-37309999D01*
G75*
G02*
X316070250Y-37034499I0J275500D01*
G01*
X316070250Y-36483499D01*
G75*
G02*
X316345750Y-36207999I275500J0D01*
G01*
G37*
G36*
G01*
X316335750Y-20331999D02*
X317086750Y-20331999D01*
G75*
G02*
X317362250Y-20607499I0J-275500D01*
G01*
X317362250Y-21158499D01*
G75*
G02*
X317086750Y-21433999I-275500J0D01*
G01*
X316335750Y-21433999D01*
G75*
G02*
X316060250Y-21158499I0J275500D01*
G01*
X316060250Y-20607499D01*
G75*
G02*
X316335750Y-20331999I275500J0D01*
G01*
G37*
G36*
G01*
X316335750Y-17031999D02*
X317086750Y-17031999D01*
G75*
G02*
X317362250Y-17307499I0J-275500D01*
G01*
X317362250Y-17858499D01*
G75*
G02*
X317086750Y-18133999I-275500J0D01*
G01*
X316335750Y-18133999D01*
G75*
G02*
X316060250Y-17858499I0J275500D01*
G01*
X316060250Y-17307499D01*
G75*
G02*
X316335750Y-17031999I275500J0D01*
G01*
G37*
G36*
G01*
X297285750Y-20331999D02*
X298036750Y-20331999D01*
G75*
G02*
X298312250Y-20607499I0J-275500D01*
G01*
X298312250Y-21158499D01*
G75*
G02*
X298036750Y-21433999I-275500J0D01*
G01*
X297285750Y-21433999D01*
G75*
G02*
X297010250Y-21158499I0J275500D01*
G01*
X297010250Y-20607499D01*
G75*
G02*
X297285750Y-20331999I275500J0D01*
G01*
G37*
G36*
G01*
X297285750Y-17031999D02*
X298036750Y-17031999D01*
G75*
G02*
X298312250Y-17307499I0J-275500D01*
G01*
X298312250Y-17858499D01*
G75*
G02*
X298036750Y-18133999I-275500J0D01*
G01*
X297285750Y-18133999D01*
G75*
G02*
X297010250Y-17858499I0J275500D01*
G01*
X297010250Y-17307499D01*
G75*
G02*
X297285750Y-17031999I275500J0D01*
G01*
G37*
G36*
G01*
X297265750Y-112617000D02*
X298016750Y-112617000D01*
G75*
G02*
X298292250Y-112892500I0J-275500D01*
G01*
X298292250Y-113443500D01*
G75*
G02*
X298016750Y-113719000I-275500J0D01*
G01*
X297265750Y-113719000D01*
G75*
G02*
X296990250Y-113443500I0J275500D01*
G01*
X296990250Y-112892500D01*
G75*
G02*
X297265750Y-112617000I275500J0D01*
G01*
G37*
G36*
G01*
X297265750Y-115917000D02*
X298016750Y-115917000D01*
G75*
G02*
X298292250Y-116192500I0J-275500D01*
G01*
X298292250Y-116743500D01*
G75*
G02*
X298016750Y-117019000I-275500J0D01*
G01*
X297265750Y-117019000D01*
G75*
G02*
X296990250Y-116743500I0J275500D01*
G01*
X296990250Y-116192500D01*
G75*
G02*
X297265750Y-115917000I275500J0D01*
G01*
G37*
G36*
G01*
X297265750Y-96729000D02*
X298016750Y-96729000D01*
G75*
G02*
X298292250Y-97004500I0J-275500D01*
G01*
X298292250Y-97555500D01*
G75*
G02*
X298016750Y-97831000I-275500J0D01*
G01*
X297265750Y-97831000D01*
G75*
G02*
X296990250Y-97555500I0J275500D01*
G01*
X296990250Y-97004500D01*
G75*
G02*
X297265750Y-96729000I275500J0D01*
G01*
G37*
G36*
G01*
X297265750Y-93429000D02*
X298016750Y-93429000D01*
G75*
G02*
X298292250Y-93704500I0J-275500D01*
G01*
X298292250Y-94255500D01*
G75*
G02*
X298016750Y-94531000I-275500J0D01*
G01*
X297265750Y-94531000D01*
G75*
G02*
X296990250Y-94255500I0J275500D01*
G01*
X296990250Y-93704500D01*
G75*
G02*
X297265750Y-93429000I275500J0D01*
G01*
G37*
G36*
G01*
X285375750Y-77679000D02*
X286126750Y-77679000D01*
G75*
G02*
X286402250Y-77954500I0J-275500D01*
G01*
X286402250Y-78505500D01*
G75*
G02*
X286126750Y-78781000I-275500J0D01*
G01*
X285375750Y-78781000D01*
G75*
G02*
X285100250Y-78505500I0J275500D01*
G01*
X285100250Y-77954500D01*
G75*
G02*
X285375750Y-77679000I275500J0D01*
G01*
G37*
G36*
G01*
X285375750Y-74379000D02*
X286126750Y-74379000D01*
G75*
G02*
X286402250Y-74654500I0J-275500D01*
G01*
X286402250Y-75205500D01*
G75*
G02*
X286126750Y-75481000I-275500J0D01*
G01*
X285375750Y-75481000D01*
G75*
G02*
X285100250Y-75205500I0J275500D01*
G01*
X285100250Y-74654500D01*
G75*
G02*
X285375750Y-74379000I275500J0D01*
G01*
G37*
G36*
G01*
X292515750Y-58639000D02*
X293266750Y-58639000D01*
G75*
G02*
X293542250Y-58914500I0J-275500D01*
G01*
X293542250Y-59465500D01*
G75*
G02*
X293266750Y-59741000I-275500J0D01*
G01*
X292515750Y-59741000D01*
G75*
G02*
X292240250Y-59465500I0J275500D01*
G01*
X292240250Y-58914500D01*
G75*
G02*
X292515750Y-58639000I275500J0D01*
G01*
G37*
G36*
G01*
X292515750Y-55339000D02*
X293266750Y-55339000D01*
G75*
G02*
X293542250Y-55614500I0J-275500D01*
G01*
X293542250Y-56165500D01*
G75*
G02*
X293266750Y-56441000I-275500J0D01*
G01*
X292515750Y-56441000D01*
G75*
G02*
X292240250Y-56165500I0J275500D01*
G01*
X292240250Y-55614500D01*
G75*
G02*
X292515750Y-55339000I275500J0D01*
G01*
G37*
G36*
G01*
X287765750Y-39507999D02*
X288516750Y-39507999D01*
G75*
G02*
X288792250Y-39783499I0J-275500D01*
G01*
X288792250Y-40334499D01*
G75*
G02*
X288516750Y-40609999I-275500J0D01*
G01*
X287765750Y-40609999D01*
G75*
G02*
X287490250Y-40334499I0J275500D01*
G01*
X287490250Y-39783499D01*
G75*
G02*
X287765750Y-39507999I275500J0D01*
G01*
G37*
G36*
G01*
X287765750Y-36207999D02*
X288516750Y-36207999D01*
G75*
G02*
X288792250Y-36483499I0J-275500D01*
G01*
X288792250Y-37034499D01*
G75*
G02*
X288516750Y-37309999I-275500J0D01*
G01*
X287765750Y-37309999D01*
G75*
G02*
X287490250Y-37034499I0J275500D01*
G01*
X287490250Y-36483499D01*
G75*
G02*
X287765750Y-36207999I275500J0D01*
G01*
G37*
G36*
G01*
X278235750Y-20331999D02*
X278986750Y-20331999D01*
G75*
G02*
X279262250Y-20607499I0J-275500D01*
G01*
X279262250Y-21158499D01*
G75*
G02*
X278986750Y-21433999I-275500J0D01*
G01*
X278235750Y-21433999D01*
G75*
G02*
X277960250Y-21158499I0J275500D01*
G01*
X277960250Y-20607499D01*
G75*
G02*
X278235750Y-20331999I275500J0D01*
G01*
G37*
G36*
G01*
X278235750Y-17031999D02*
X278986750Y-17031999D01*
G75*
G02*
X279262250Y-17307499I0J-275500D01*
G01*
X279262250Y-17858499D01*
G75*
G02*
X278986750Y-18133999I-275500J0D01*
G01*
X278235750Y-18133999D01*
G75*
G02*
X277960250Y-17858499I0J275500D01*
G01*
X277960250Y-17307499D01*
G75*
G02*
X278235750Y-17031999I275500J0D01*
G01*
G37*
G36*
G01*
X278225750Y-112617000D02*
X278976750Y-112617000D01*
G75*
G02*
X279252250Y-112892500I0J-275500D01*
G01*
X279252250Y-113443500D01*
G75*
G02*
X278976750Y-113719000I-275500J0D01*
G01*
X278225750Y-113719000D01*
G75*
G02*
X277950250Y-113443500I0J275500D01*
G01*
X277950250Y-112892500D01*
G75*
G02*
X278225750Y-112617000I275500J0D01*
G01*
G37*
G36*
G01*
X278225750Y-115917000D02*
X278976750Y-115917000D01*
G75*
G02*
X279252250Y-116192500I0J-275500D01*
G01*
X279252250Y-116743500D01*
G75*
G02*
X278976750Y-117019000I-275500J0D01*
G01*
X278225750Y-117019000D01*
G75*
G02*
X277950250Y-116743500I0J275500D01*
G01*
X277950250Y-116192500D01*
G75*
G02*
X278225750Y-115917000I275500J0D01*
G01*
G37*
G36*
G01*
X271075750Y-96729000D02*
X271826750Y-96729000D01*
G75*
G02*
X272102250Y-97004500I0J-275500D01*
G01*
X272102250Y-97555500D01*
G75*
G02*
X271826750Y-97831000I-275500J0D01*
G01*
X271075750Y-97831000D01*
G75*
G02*
X270800250Y-97555500I0J275500D01*
G01*
X270800250Y-97004500D01*
G75*
G02*
X271075750Y-96729000I275500J0D01*
G01*
G37*
G36*
G01*
X271075750Y-93429000D02*
X271826750Y-93429000D01*
G75*
G02*
X272102250Y-93704500I0J-275500D01*
G01*
X272102250Y-94255500D01*
G75*
G02*
X271826750Y-94531000I-275500J0D01*
G01*
X271075750Y-94531000D01*
G75*
G02*
X270800250Y-94255500I0J275500D01*
G01*
X270800250Y-93704500D01*
G75*
G02*
X271075750Y-93429000I275500J0D01*
G01*
G37*
G36*
G01*
X268705750Y-58639000D02*
X269456750Y-58639000D01*
G75*
G02*
X269732250Y-58914500I0J-275500D01*
G01*
X269732250Y-59465500D01*
G75*
G02*
X269456750Y-59741000I-275500J0D01*
G01*
X268705750Y-59741000D01*
G75*
G02*
X268430250Y-59465500I0J275500D01*
G01*
X268430250Y-58914500D01*
G75*
G02*
X268705750Y-58639000I275500J0D01*
G01*
G37*
G36*
G01*
X268705750Y-55339000D02*
X269456750Y-55339000D01*
G75*
G02*
X269732250Y-55614500I0J-275500D01*
G01*
X269732250Y-56165500D01*
G75*
G02*
X269456750Y-56441000I-275500J0D01*
G01*
X268705750Y-56441000D01*
G75*
G02*
X268430250Y-56165500I0J275500D01*
G01*
X268430250Y-55614500D01*
G75*
G02*
X268705750Y-55339000I275500J0D01*
G01*
G37*
G36*
G01*
X259185750Y-39507999D02*
X259936750Y-39507999D01*
G75*
G02*
X260212250Y-39783499I0J-275500D01*
G01*
X260212250Y-40334499D01*
G75*
G02*
X259936750Y-40609999I-275500J0D01*
G01*
X259185750Y-40609999D01*
G75*
G02*
X258910250Y-40334499I0J275500D01*
G01*
X258910250Y-39783499D01*
G75*
G02*
X259185750Y-39507999I275500J0D01*
G01*
G37*
G36*
G01*
X259185750Y-36207999D02*
X259936750Y-36207999D01*
G75*
G02*
X260212250Y-36483499I0J-275500D01*
G01*
X260212250Y-37034499D01*
G75*
G02*
X259936750Y-37309999I-275500J0D01*
G01*
X259185750Y-37309999D01*
G75*
G02*
X258910250Y-37034499I0J275500D01*
G01*
X258910250Y-36483499D01*
G75*
G02*
X259185750Y-36207999I275500J0D01*
G01*
G37*
G36*
G01*
X259185750Y-20331999D02*
X259936750Y-20331999D01*
G75*
G02*
X260212250Y-20607499I0J-275500D01*
G01*
X260212250Y-21158499D01*
G75*
G02*
X259936750Y-21433999I-275500J0D01*
G01*
X259185750Y-21433999D01*
G75*
G02*
X258910250Y-21158499I0J275500D01*
G01*
X258910250Y-20607499D01*
G75*
G02*
X259185750Y-20331999I275500J0D01*
G01*
G37*
G36*
G01*
X259185750Y-17031999D02*
X259936750Y-17031999D01*
G75*
G02*
X260212250Y-17307499I0J-275500D01*
G01*
X260212250Y-17858499D01*
G75*
G02*
X259936750Y-18133999I-275500J0D01*
G01*
X259185750Y-18133999D01*
G75*
G02*
X258910250Y-17858499I0J275500D01*
G01*
X258910250Y-17307499D01*
G75*
G02*
X259185750Y-17031999I275500J0D01*
G01*
G37*
G36*
G01*
X259175750Y-112617000D02*
X259926750Y-112617000D01*
G75*
G02*
X260202250Y-112892500I0J-275500D01*
G01*
X260202250Y-113443500D01*
G75*
G02*
X259926750Y-113719000I-275500J0D01*
G01*
X259175750Y-113719000D01*
G75*
G02*
X258900250Y-113443500I0J275500D01*
G01*
X258900250Y-112892500D01*
G75*
G02*
X259175750Y-112617000I275500J0D01*
G01*
G37*
G36*
G01*
X259175750Y-115917000D02*
X259926750Y-115917000D01*
G75*
G02*
X260202250Y-116192500I0J-275500D01*
G01*
X260202250Y-116743500D01*
G75*
G02*
X259926750Y-117019000I-275500J0D01*
G01*
X259175750Y-117019000D01*
G75*
G02*
X258900250Y-116743500I0J275500D01*
G01*
X258900250Y-116192500D01*
G75*
G02*
X259175750Y-115917000I275500J0D01*
G01*
G37*
G36*
G01*
X254405750Y-77659000D02*
X255156750Y-77659000D01*
G75*
G02*
X255432250Y-77934500I0J-275500D01*
G01*
X255432250Y-78485500D01*
G75*
G02*
X255156750Y-78761000I-275500J0D01*
G01*
X254405750Y-78761000D01*
G75*
G02*
X254130250Y-78485500I0J275500D01*
G01*
X254130250Y-77934500D01*
G75*
G02*
X254405750Y-77659000I275500J0D01*
G01*
G37*
G36*
G01*
X254405750Y-74359000D02*
X255156750Y-74359000D01*
G75*
G02*
X255432250Y-74634500I0J-275500D01*
G01*
X255432250Y-75185500D01*
G75*
G02*
X255156750Y-75461000I-275500J0D01*
G01*
X254405750Y-75461000D01*
G75*
G02*
X254130250Y-75185500I0J275500D01*
G01*
X254130250Y-74634500D01*
G75*
G02*
X254405750Y-74359000I275500J0D01*
G01*
G37*
G36*
G01*
X249645750Y-58639000D02*
X250396750Y-58639000D01*
G75*
G02*
X250672250Y-58914500I0J-275500D01*
G01*
X250672250Y-59465500D01*
G75*
G02*
X250396750Y-59741000I-275500J0D01*
G01*
X249645750Y-59741000D01*
G75*
G02*
X249370250Y-59465500I0J275500D01*
G01*
X249370250Y-58914500D01*
G75*
G02*
X249645750Y-58639000I275500J0D01*
G01*
G37*
G36*
G01*
X249645750Y-55339000D02*
X250396750Y-55339000D01*
G75*
G02*
X250672250Y-55614500I0J-275500D01*
G01*
X250672250Y-56165500D01*
G75*
G02*
X250396750Y-56441000I-275500J0D01*
G01*
X249645750Y-56441000D01*
G75*
G02*
X249370250Y-56165500I0J275500D01*
G01*
X249370250Y-55614500D01*
G75*
G02*
X249645750Y-55339000I275500J0D01*
G01*
G37*
G36*
G01*
X240135750Y-39507999D02*
X240886750Y-39507999D01*
G75*
G02*
X241162250Y-39783499I0J-275500D01*
G01*
X241162250Y-40334499D01*
G75*
G02*
X240886750Y-40609999I-275500J0D01*
G01*
X240135750Y-40609999D01*
G75*
G02*
X239860250Y-40334499I0J275500D01*
G01*
X239860250Y-39783499D01*
G75*
G02*
X240135750Y-39507999I275500J0D01*
G01*
G37*
G36*
G01*
X240135750Y-36207999D02*
X240886750Y-36207999D01*
G75*
G02*
X241162250Y-36483499I0J-275500D01*
G01*
X241162250Y-37034499D01*
G75*
G02*
X240886750Y-37309999I-275500J0D01*
G01*
X240135750Y-37309999D01*
G75*
G02*
X239860250Y-37034499I0J275500D01*
G01*
X239860250Y-36483499D01*
G75*
G02*
X240135750Y-36207999I275500J0D01*
G01*
G37*
G36*
G01*
X240135750Y-20331999D02*
X240886750Y-20331999D01*
G75*
G02*
X241162250Y-20607499I0J-275500D01*
G01*
X241162250Y-21158499D01*
G75*
G02*
X240886750Y-21433999I-275500J0D01*
G01*
X240135750Y-21433999D01*
G75*
G02*
X239860250Y-21158499I0J275500D01*
G01*
X239860250Y-20607499D01*
G75*
G02*
X240135750Y-20331999I275500J0D01*
G01*
G37*
G36*
G01*
X240135750Y-17031999D02*
X240886750Y-17031999D01*
G75*
G02*
X241162250Y-17307499I0J-275500D01*
G01*
X241162250Y-17858499D01*
G75*
G02*
X240886750Y-18133999I-275500J0D01*
G01*
X240135750Y-18133999D01*
G75*
G02*
X239860250Y-17858499I0J275500D01*
G01*
X239860250Y-17307499D01*
G75*
G02*
X240135750Y-17031999I275500J0D01*
G01*
G37*
G36*
G01*
X240125750Y-112617000D02*
X240876750Y-112617000D01*
G75*
G02*
X241152250Y-112892500I0J-275500D01*
G01*
X241152250Y-113443500D01*
G75*
G02*
X240876750Y-113719000I-275500J0D01*
G01*
X240125750Y-113719000D01*
G75*
G02*
X239850250Y-113443500I0J275500D01*
G01*
X239850250Y-112892500D01*
G75*
G02*
X240125750Y-112617000I275500J0D01*
G01*
G37*
G36*
G01*
X240125750Y-115917000D02*
X240876750Y-115917000D01*
G75*
G02*
X241152250Y-116192500I0J-275500D01*
G01*
X241152250Y-116743500D01*
G75*
G02*
X240876750Y-117019000I-275500J0D01*
G01*
X240125750Y-117019000D01*
G75*
G02*
X239850250Y-116743500I0J275500D01*
G01*
X239850250Y-116192500D01*
G75*
G02*
X240125750Y-115917000I275500J0D01*
G01*
G37*
G36*
G01*
X244875750Y-96729000D02*
X245626750Y-96729000D01*
G75*
G02*
X245902250Y-97004500I0J-275500D01*
G01*
X245902250Y-97555500D01*
G75*
G02*
X245626750Y-97831000I-275500J0D01*
G01*
X244875750Y-97831000D01*
G75*
G02*
X244600250Y-97555500I0J275500D01*
G01*
X244600250Y-97004500D01*
G75*
G02*
X244875750Y-96729000I275500J0D01*
G01*
G37*
G36*
G01*
X244875750Y-93429000D02*
X245626750Y-93429000D01*
G75*
G02*
X245902250Y-93704500I0J-275500D01*
G01*
X245902250Y-94255500D01*
G75*
G02*
X245626750Y-94531000I-275500J0D01*
G01*
X244875750Y-94531000D01*
G75*
G02*
X244600250Y-94255500I0J275500D01*
G01*
X244600250Y-93704500D01*
G75*
G02*
X244875750Y-93429000I275500J0D01*
G01*
G37*
G36*
G01*
X235365750Y-77679000D02*
X236116750Y-77679000D01*
G75*
G02*
X236392250Y-77954500I0J-275500D01*
G01*
X236392250Y-78505500D01*
G75*
G02*
X236116750Y-78781000I-275500J0D01*
G01*
X235365750Y-78781000D01*
G75*
G02*
X235090250Y-78505500I0J275500D01*
G01*
X235090250Y-77954500D01*
G75*
G02*
X235365750Y-77679000I275500J0D01*
G01*
G37*
G36*
G01*
X235365750Y-74379000D02*
X236116750Y-74379000D01*
G75*
G02*
X236392250Y-74654500I0J-275500D01*
G01*
X236392250Y-75205500D01*
G75*
G02*
X236116750Y-75481000I-275500J0D01*
G01*
X235365750Y-75481000D01*
G75*
G02*
X235090250Y-75205500I0J275500D01*
G01*
X235090250Y-74654500D01*
G75*
G02*
X235365750Y-74379000I275500J0D01*
G01*
G37*
G36*
G01*
X230595750Y-58639000D02*
X231346750Y-58639000D01*
G75*
G02*
X231622250Y-58914500I0J-275500D01*
G01*
X231622250Y-59465500D01*
G75*
G02*
X231346750Y-59741000I-275500J0D01*
G01*
X230595750Y-59741000D01*
G75*
G02*
X230320250Y-59465500I0J275500D01*
G01*
X230320250Y-58914500D01*
G75*
G02*
X230595750Y-58639000I275500J0D01*
G01*
G37*
G36*
G01*
X230595750Y-55339000D02*
X231346750Y-55339000D01*
G75*
G02*
X231622250Y-55614500I0J-275500D01*
G01*
X231622250Y-56165500D01*
G75*
G02*
X231346750Y-56441000I-275500J0D01*
G01*
X230595750Y-56441000D01*
G75*
G02*
X230320250Y-56165500I0J275500D01*
G01*
X230320250Y-55614500D01*
G75*
G02*
X230595750Y-55339000I275500J0D01*
G01*
G37*
G36*
G01*
X221095750Y-39507999D02*
X221846750Y-39507999D01*
G75*
G02*
X222122250Y-39783499I0J-275500D01*
G01*
X222122250Y-40334499D01*
G75*
G02*
X221846750Y-40609999I-275500J0D01*
G01*
X221095750Y-40609999D01*
G75*
G02*
X220820250Y-40334499I0J275500D01*
G01*
X220820250Y-39783499D01*
G75*
G02*
X221095750Y-39507999I275500J0D01*
G01*
G37*
G36*
G01*
X221095750Y-36207999D02*
X221846750Y-36207999D01*
G75*
G02*
X222122250Y-36483499I0J-275500D01*
G01*
X222122250Y-37034499D01*
G75*
G02*
X221846750Y-37309999I-275500J0D01*
G01*
X221095750Y-37309999D01*
G75*
G02*
X220820250Y-37034499I0J275500D01*
G01*
X220820250Y-36483499D01*
G75*
G02*
X221095750Y-36207999I275500J0D01*
G01*
G37*
G36*
G01*
X221085750Y-20331999D02*
X221836750Y-20331999D01*
G75*
G02*
X222112250Y-20607499I0J-275500D01*
G01*
X222112250Y-21158499D01*
G75*
G02*
X221836750Y-21433999I-275500J0D01*
G01*
X221085750Y-21433999D01*
G75*
G02*
X220810250Y-21158499I0J275500D01*
G01*
X220810250Y-20607499D01*
G75*
G02*
X221085750Y-20331999I275500J0D01*
G01*
G37*
G36*
G01*
X221085750Y-17031999D02*
X221836750Y-17031999D01*
G75*
G02*
X222112250Y-17307499I0J-275500D01*
G01*
X222112250Y-17858499D01*
G75*
G02*
X221836750Y-18133999I-275500J0D01*
G01*
X221085750Y-18133999D01*
G75*
G02*
X220810250Y-17858499I0J275500D01*
G01*
X220810250Y-17307499D01*
G75*
G02*
X221085750Y-17031999I275500J0D01*
G01*
G37*
G36*
G01*
X221075750Y-112607000D02*
X221826750Y-112607000D01*
G75*
G02*
X222102250Y-112882500I0J-275500D01*
G01*
X222102250Y-113433500D01*
G75*
G02*
X221826750Y-113709000I-275500J0D01*
G01*
X221075750Y-113709000D01*
G75*
G02*
X220800250Y-113433500I0J275500D01*
G01*
X220800250Y-112882500D01*
G75*
G02*
X221075750Y-112607000I275500J0D01*
G01*
G37*
G36*
G01*
X221075750Y-115907000D02*
X221826750Y-115907000D01*
G75*
G02*
X222102250Y-116182500I0J-275500D01*
G01*
X222102250Y-116733500D01*
G75*
G02*
X221826750Y-117009000I-275500J0D01*
G01*
X221075750Y-117009000D01*
G75*
G02*
X220800250Y-116733500I0J275500D01*
G01*
X220800250Y-116182500D01*
G75*
G02*
X221075750Y-115907000I275500J0D01*
G01*
G37*
G36*
G01*
X225845750Y-96729000D02*
X226596750Y-96729000D01*
G75*
G02*
X226872250Y-97004500I0J-275500D01*
G01*
X226872250Y-97555500D01*
G75*
G02*
X226596750Y-97831000I-275500J0D01*
G01*
X225845750Y-97831000D01*
G75*
G02*
X225570250Y-97555500I0J275500D01*
G01*
X225570250Y-97004500D01*
G75*
G02*
X225845750Y-96729000I275500J0D01*
G01*
G37*
G36*
G01*
X225845750Y-93429000D02*
X226596750Y-93429000D01*
G75*
G02*
X226872250Y-93704500I0J-275500D01*
G01*
X226872250Y-94255500D01*
G75*
G02*
X226596750Y-94531000I-275500J0D01*
G01*
X225845750Y-94531000D01*
G75*
G02*
X225570250Y-94255500I0J275500D01*
G01*
X225570250Y-93704500D01*
G75*
G02*
X225845750Y-93429000I275500J0D01*
G01*
G37*
G36*
G01*
X216305750Y-77679000D02*
X217056750Y-77679000D01*
G75*
G02*
X217332250Y-77954500I0J-275500D01*
G01*
X217332250Y-78505500D01*
G75*
G02*
X217056750Y-78781000I-275500J0D01*
G01*
X216305750Y-78781000D01*
G75*
G02*
X216030250Y-78505500I0J275500D01*
G01*
X216030250Y-77954500D01*
G75*
G02*
X216305750Y-77679000I275500J0D01*
G01*
G37*
G36*
G01*
X216305750Y-74379000D02*
X217056750Y-74379000D01*
G75*
G02*
X217332250Y-74654500I0J-275500D01*
G01*
X217332250Y-75205500D01*
G75*
G02*
X217056750Y-75481000I-275500J0D01*
G01*
X216305750Y-75481000D01*
G75*
G02*
X216030250Y-75205500I0J275500D01*
G01*
X216030250Y-74654500D01*
G75*
G02*
X216305750Y-74379000I275500J0D01*
G01*
G37*
G36*
G01*
X211555750Y-58639000D02*
X212306750Y-58639000D01*
G75*
G02*
X212582250Y-58914500I0J-275500D01*
G01*
X212582250Y-59465500D01*
G75*
G02*
X212306750Y-59741000I-275500J0D01*
G01*
X211555750Y-59741000D01*
G75*
G02*
X211280250Y-59465500I0J275500D01*
G01*
X211280250Y-58914500D01*
G75*
G02*
X211555750Y-58639000I275500J0D01*
G01*
G37*
G36*
G01*
X211555750Y-55339000D02*
X212306750Y-55339000D01*
G75*
G02*
X212582250Y-55614500I0J-275500D01*
G01*
X212582250Y-56165500D01*
G75*
G02*
X212306750Y-56441000I-275500J0D01*
G01*
X211555750Y-56441000D01*
G75*
G02*
X211280250Y-56165500I0J275500D01*
G01*
X211280250Y-55614500D01*
G75*
G02*
X211555750Y-55339000I275500J0D01*
G01*
G37*
G36*
G01*
X202035750Y-39507999D02*
X202786750Y-39507999D01*
G75*
G02*
X203062250Y-39783499I0J-275500D01*
G01*
X203062250Y-40334499D01*
G75*
G02*
X202786750Y-40609999I-275500J0D01*
G01*
X202035750Y-40609999D01*
G75*
G02*
X201760250Y-40334499I0J275500D01*
G01*
X201760250Y-39783499D01*
G75*
G02*
X202035750Y-39507999I275500J0D01*
G01*
G37*
G36*
G01*
X202035750Y-36207999D02*
X202786750Y-36207999D01*
G75*
G02*
X203062250Y-36483499I0J-275500D01*
G01*
X203062250Y-37034499D01*
G75*
G02*
X202786750Y-37309999I-275500J0D01*
G01*
X202035750Y-37309999D01*
G75*
G02*
X201760250Y-37034499I0J275500D01*
G01*
X201760250Y-36483499D01*
G75*
G02*
X202035750Y-36207999I275500J0D01*
G01*
G37*
G36*
G01*
X202045750Y-17031999D02*
X202796750Y-17031999D01*
G75*
G02*
X203072250Y-17307499I0J-275500D01*
G01*
X203072250Y-17858499D01*
G75*
G02*
X202796750Y-18133999I-275500J0D01*
G01*
X202045750Y-18133999D01*
G75*
G02*
X201770250Y-17858499I0J275500D01*
G01*
X201770250Y-17307499D01*
G75*
G02*
X202045750Y-17031999I275500J0D01*
G01*
G37*
G36*
G01*
X202045750Y-20331999D02*
X202796750Y-20331999D01*
G75*
G02*
X203072250Y-20607499I0J-275500D01*
G01*
X203072250Y-21158499D01*
G75*
G02*
X202796750Y-21433999I-275500J0D01*
G01*
X202045750Y-21433999D01*
G75*
G02*
X201770250Y-21158499I0J275500D01*
G01*
X201770250Y-20607499D01*
G75*
G02*
X202045750Y-20331999I275500J0D01*
G01*
G37*
G36*
G01*
X206785750Y-96729000D02*
X207536750Y-96729000D01*
G75*
G02*
X207812250Y-97004500I0J-275500D01*
G01*
X207812250Y-97555500D01*
G75*
G02*
X207536750Y-97831000I-275500J0D01*
G01*
X206785750Y-97831000D01*
G75*
G02*
X206510250Y-97555500I0J275500D01*
G01*
X206510250Y-97004500D01*
G75*
G02*
X206785750Y-96729000I275500J0D01*
G01*
G37*
G36*
G01*
X206785750Y-93429000D02*
X207536750Y-93429000D01*
G75*
G02*
X207812250Y-93704500I0J-275500D01*
G01*
X207812250Y-94255500D01*
G75*
G02*
X207536750Y-94531000I-275500J0D01*
G01*
X206785750Y-94531000D01*
G75*
G02*
X206510250Y-94255500I0J275500D01*
G01*
X206510250Y-93704500D01*
G75*
G02*
X206785750Y-93429000I275500J0D01*
G01*
G37*
G36*
G01*
X197274500Y-77679000D02*
X198025500Y-77679000D01*
G75*
G02*
X198301000Y-77954500I0J-275500D01*
G01*
X198301000Y-78505500D01*
G75*
G02*
X198025500Y-78781000I-275500J0D01*
G01*
X197274500Y-78781000D01*
G75*
G02*
X196999000Y-78505500I0J275500D01*
G01*
X196999000Y-77954500D01*
G75*
G02*
X197274500Y-77679000I275500J0D01*
G01*
G37*
G36*
G01*
X197274500Y-74379000D02*
X198025500Y-74379000D01*
G75*
G02*
X198301000Y-74654500I0J-275500D01*
G01*
X198301000Y-75205500D01*
G75*
G02*
X198025500Y-75481000I-275500J0D01*
G01*
X197274500Y-75481000D01*
G75*
G02*
X196999000Y-75205500I0J275500D01*
G01*
X196999000Y-74654500D01*
G75*
G02*
X197274500Y-74379000I275500J0D01*
G01*
G37*
G36*
G01*
X192515750Y-58629000D02*
X193266750Y-58629000D01*
G75*
G02*
X193542250Y-58904500I0J-275500D01*
G01*
X193542250Y-59455500D01*
G75*
G02*
X193266750Y-59731000I-275500J0D01*
G01*
X192515750Y-59731000D01*
G75*
G02*
X192240250Y-59455500I0J275500D01*
G01*
X192240250Y-58904500D01*
G75*
G02*
X192515750Y-58629000I275500J0D01*
G01*
G37*
G36*
G01*
X192515750Y-55329000D02*
X193266750Y-55329000D01*
G75*
G02*
X193542250Y-55604500I0J-275500D01*
G01*
X193542250Y-56155500D01*
G75*
G02*
X193266750Y-56431000I-275500J0D01*
G01*
X192515750Y-56431000D01*
G75*
G02*
X192240250Y-56155500I0J275500D01*
G01*
X192240250Y-55604500D01*
G75*
G02*
X192515750Y-55329000I275500J0D01*
G01*
G37*
G36*
G01*
X182995750Y-39507999D02*
X183746750Y-39507999D01*
G75*
G02*
X184022250Y-39783499I0J-275500D01*
G01*
X184022250Y-40334499D01*
G75*
G02*
X183746750Y-40609999I-275500J0D01*
G01*
X182995750Y-40609999D01*
G75*
G02*
X182720250Y-40334499I0J275500D01*
G01*
X182720250Y-39783499D01*
G75*
G02*
X182995750Y-39507999I275500J0D01*
G01*
G37*
G36*
G01*
X182995750Y-36207999D02*
X183746750Y-36207999D01*
G75*
G02*
X184022250Y-36483499I0J-275500D01*
G01*
X184022250Y-37034499D01*
G75*
G02*
X183746750Y-37309999I-275500J0D01*
G01*
X182995750Y-37309999D01*
G75*
G02*
X182720250Y-37034499I0J275500D01*
G01*
X182720250Y-36483499D01*
G75*
G02*
X182995750Y-36207999I275500J0D01*
G01*
G37*
G36*
G01*
X182995750Y-20331999D02*
X183746750Y-20331999D01*
G75*
G02*
X184022250Y-20607499I0J-275500D01*
G01*
X184022250Y-21158499D01*
G75*
G02*
X183746750Y-21433999I-275500J0D01*
G01*
X182995750Y-21433999D01*
G75*
G02*
X182720250Y-21158499I0J275500D01*
G01*
X182720250Y-20607499D01*
G75*
G02*
X182995750Y-20331999I275500J0D01*
G01*
G37*
G36*
G01*
X182995750Y-17031999D02*
X183746750Y-17031999D01*
G75*
G02*
X184022250Y-17307499I0J-275500D01*
G01*
X184022250Y-17858499D01*
G75*
G02*
X183746750Y-18133999I-275500J0D01*
G01*
X182995750Y-18133999D01*
G75*
G02*
X182720250Y-17858499I0J275500D01*
G01*
X182720250Y-17307499D01*
G75*
G02*
X182995750Y-17031999I275500J0D01*
G01*
G37*
G36*
G01*
X187735750Y-96729000D02*
X188486750Y-96729000D01*
G75*
G02*
X188762250Y-97004500I0J-275500D01*
G01*
X188762250Y-97555500D01*
G75*
G02*
X188486750Y-97831000I-275500J0D01*
G01*
X187735750Y-97831000D01*
G75*
G02*
X187460250Y-97555500I0J275500D01*
G01*
X187460250Y-97004500D01*
G75*
G02*
X187735750Y-96729000I275500J0D01*
G01*
G37*
G36*
G01*
X187735750Y-93429000D02*
X188486750Y-93429000D01*
G75*
G02*
X188762250Y-93704500I0J-275500D01*
G01*
X188762250Y-94255500D01*
G75*
G02*
X188486750Y-94531000I-275500J0D01*
G01*
X187735750Y-94531000D01*
G75*
G02*
X187460250Y-94255500I0J275500D01*
G01*
X187460250Y-93704500D01*
G75*
G02*
X187735750Y-93429000I275500J0D01*
G01*
G37*
G36*
G01*
X178213102Y-77659000D02*
X178964102Y-77659000D01*
G75*
G02*
X179239602Y-77934500I0J-275500D01*
G01*
X179239602Y-78485500D01*
G75*
G02*
X178964102Y-78761000I-275500J0D01*
G01*
X178213102Y-78761000D01*
G75*
G02*
X177937602Y-78485500I0J275500D01*
G01*
X177937602Y-77934500D01*
G75*
G02*
X178213102Y-77659000I275500J0D01*
G01*
G37*
G36*
G01*
X178213102Y-74359000D02*
X178964102Y-74359000D01*
G75*
G02*
X179239602Y-74634500I0J-275500D01*
G01*
X179239602Y-75185500D01*
G75*
G02*
X178964102Y-75461000I-275500J0D01*
G01*
X178213102Y-75461000D01*
G75*
G02*
X177937602Y-75185500I0J275500D01*
G01*
X177937602Y-74634500D01*
G75*
G02*
X178213102Y-74359000I275500J0D01*
G01*
G37*
G36*
G01*
X173455750Y-58629000D02*
X174206750Y-58629000D01*
G75*
G02*
X174482250Y-58904500I0J-275500D01*
G01*
X174482250Y-59455500D01*
G75*
G02*
X174206750Y-59731000I-275500J0D01*
G01*
X173455750Y-59731000D01*
G75*
G02*
X173180250Y-59455500I0J275500D01*
G01*
X173180250Y-58904500D01*
G75*
G02*
X173455750Y-58629000I275500J0D01*
G01*
G37*
G36*
G01*
X173455750Y-55329000D02*
X174206750Y-55329000D01*
G75*
G02*
X174482250Y-55604500I0J-275500D01*
G01*
X174482250Y-56155500D01*
G75*
G02*
X174206750Y-56431000I-275500J0D01*
G01*
X173455750Y-56431000D01*
G75*
G02*
X173180250Y-56155500I0J275500D01*
G01*
X173180250Y-55604500D01*
G75*
G02*
X173455750Y-55329000I275500J0D01*
G01*
G37*
G36*
G01*
X163935750Y-39507999D02*
X164686750Y-39507999D01*
G75*
G02*
X164962250Y-39783499I0J-275500D01*
G01*
X164962250Y-40334499D01*
G75*
G02*
X164686750Y-40609999I-275500J0D01*
G01*
X163935750Y-40609999D01*
G75*
G02*
X163660250Y-40334499I0J275500D01*
G01*
X163660250Y-39783499D01*
G75*
G02*
X163935750Y-39507999I275500J0D01*
G01*
G37*
G36*
G01*
X163935750Y-36207999D02*
X164686750Y-36207999D01*
G75*
G02*
X164962250Y-36483499I0J-275500D01*
G01*
X164962250Y-37034499D01*
G75*
G02*
X164686750Y-37309999I-275500J0D01*
G01*
X163935750Y-37309999D01*
G75*
G02*
X163660250Y-37034499I0J275500D01*
G01*
X163660250Y-36483499D01*
G75*
G02*
X163935750Y-36207999I275500J0D01*
G01*
G37*
G36*
G01*
X163945750Y-17031999D02*
X164696750Y-17031999D01*
G75*
G02*
X164972250Y-17307499I0J-275500D01*
G01*
X164972250Y-17858499D01*
G75*
G02*
X164696750Y-18133999I-275500J0D01*
G01*
X163945750Y-18133999D01*
G75*
G02*
X163670250Y-17858499I0J275500D01*
G01*
X163670250Y-17307499D01*
G75*
G02*
X163945750Y-17031999I275500J0D01*
G01*
G37*
G36*
G01*
X163945750Y-20331999D02*
X164696750Y-20331999D01*
G75*
G02*
X164972250Y-20607499I0J-275500D01*
G01*
X164972250Y-21158499D01*
G75*
G02*
X164696750Y-21433999I-275500J0D01*
G01*
X163945750Y-21433999D01*
G75*
G02*
X163670250Y-21158499I0J275500D01*
G01*
X163670250Y-20607499D01*
G75*
G02*
X163945750Y-20331999I275500J0D01*
G01*
G37*
G36*
G01*
X162438500Y-96729000D02*
X163189500Y-96729000D01*
G75*
G02*
X163465000Y-97004500I0J-275500D01*
G01*
X163465000Y-97555500D01*
G75*
G02*
X163189500Y-97831000I-275500J0D01*
G01*
X162438500Y-97831000D01*
G75*
G02*
X162163000Y-97555500I0J275500D01*
G01*
X162163000Y-97004500D01*
G75*
G02*
X162438500Y-96729000I275500J0D01*
G01*
G37*
G36*
G01*
X162438500Y-93429000D02*
X163189500Y-93429000D01*
G75*
G02*
X163465000Y-93704500I0J-275500D01*
G01*
X163465000Y-94255500D01*
G75*
G02*
X163189500Y-94531000I-275500J0D01*
G01*
X162438500Y-94531000D01*
G75*
G02*
X162163000Y-94255500I0J275500D01*
G01*
X162163000Y-93704500D01*
G75*
G02*
X162438500Y-93429000I275500J0D01*
G01*
G37*
G36*
G01*
X152786500Y-77679000D02*
X153537500Y-77679000D01*
G75*
G02*
X153813000Y-77954500I0J-275500D01*
G01*
X153813000Y-78505500D01*
G75*
G02*
X153537500Y-78781000I-275500J0D01*
G01*
X152786500Y-78781000D01*
G75*
G02*
X152511000Y-78505500I0J275500D01*
G01*
X152511000Y-77954500D01*
G75*
G02*
X152786500Y-77679000I275500J0D01*
G01*
G37*
G36*
G01*
X152786500Y-74379000D02*
X153537500Y-74379000D01*
G75*
G02*
X153813000Y-74654500I0J-275500D01*
G01*
X153813000Y-75205500D01*
G75*
G02*
X153537500Y-75481000I-275500J0D01*
G01*
X152786500Y-75481000D01*
G75*
G02*
X152511000Y-75205500I0J275500D01*
G01*
X152511000Y-74654500D01*
G75*
G02*
X152786500Y-74379000I275500J0D01*
G01*
G37*
G36*
G01*
X154415750Y-58629000D02*
X155166750Y-58629000D01*
G75*
G02*
X155442250Y-58904500I0J-275500D01*
G01*
X155442250Y-59455500D01*
G75*
G02*
X155166750Y-59731000I-275500J0D01*
G01*
X154415750Y-59731000D01*
G75*
G02*
X154140250Y-59455500I0J275500D01*
G01*
X154140250Y-58904500D01*
G75*
G02*
X154415750Y-58629000I275500J0D01*
G01*
G37*
G36*
G01*
X154415750Y-55329000D02*
X155166750Y-55329000D01*
G75*
G02*
X155442250Y-55604500I0J-275500D01*
G01*
X155442250Y-56155500D01*
G75*
G02*
X155166750Y-56431000I-275500J0D01*
G01*
X154415750Y-56431000D01*
G75*
G02*
X154140250Y-56155500I0J275500D01*
G01*
X154140250Y-55604500D01*
G75*
G02*
X154415750Y-55329000I275500J0D01*
G01*
G37*
G36*
G01*
X144885750Y-39507999D02*
X145636750Y-39507999D01*
G75*
G02*
X145912250Y-39783499I0J-275500D01*
G01*
X145912250Y-40334499D01*
G75*
G02*
X145636750Y-40609999I-275500J0D01*
G01*
X144885750Y-40609999D01*
G75*
G02*
X144610250Y-40334499I0J275500D01*
G01*
X144610250Y-39783499D01*
G75*
G02*
X144885750Y-39507999I275500J0D01*
G01*
G37*
G36*
G01*
X144885750Y-36207999D02*
X145636750Y-36207999D01*
G75*
G02*
X145912250Y-36483499I0J-275500D01*
G01*
X145912250Y-37034499D01*
G75*
G02*
X145636750Y-37309999I-275500J0D01*
G01*
X144885750Y-37309999D01*
G75*
G02*
X144610250Y-37034499I0J275500D01*
G01*
X144610250Y-36483499D01*
G75*
G02*
X144885750Y-36207999I275500J0D01*
G01*
G37*
G36*
G01*
X144885750Y-20331999D02*
X145636750Y-20331999D01*
G75*
G02*
X145912250Y-20607499I0J-275500D01*
G01*
X145912250Y-21158499D01*
G75*
G02*
X145636750Y-21433999I-275500J0D01*
G01*
X144885750Y-21433999D01*
G75*
G02*
X144610250Y-21158499I0J275500D01*
G01*
X144610250Y-20607499D01*
G75*
G02*
X144885750Y-20331999I275500J0D01*
G01*
G37*
G36*
G01*
X144885750Y-17031999D02*
X145636750Y-17031999D01*
G75*
G02*
X145912250Y-17307499I0J-275500D01*
G01*
X145912250Y-17858499D01*
G75*
G02*
X145636750Y-18133999I-275500J0D01*
G01*
X144885750Y-18133999D01*
G75*
G02*
X144610250Y-17858499I0J275500D01*
G01*
X144610250Y-17307499D01*
G75*
G02*
X144885750Y-17031999I275500J0D01*
G01*
G37*
G36*
G01*
X152015750Y-112607000D02*
X152766750Y-112607000D01*
G75*
G02*
X153042250Y-112882500I0J-275500D01*
G01*
X153042250Y-113433500D01*
G75*
G02*
X152766750Y-113709000I-275500J0D01*
G01*
X152015750Y-113709000D01*
G75*
G02*
X151740250Y-113433500I0J275500D01*
G01*
X151740250Y-112882500D01*
G75*
G02*
X152015750Y-112607000I275500J0D01*
G01*
G37*
G36*
G01*
X152015750Y-115907000D02*
X152766750Y-115907000D01*
G75*
G02*
X153042250Y-116182500I0J-275500D01*
G01*
X153042250Y-116733500D01*
G75*
G02*
X152766750Y-117009000I-275500J0D01*
G01*
X152015750Y-117009000D01*
G75*
G02*
X151740250Y-116733500I0J275500D01*
G01*
X151740250Y-116182500D01*
G75*
G02*
X152015750Y-115907000I275500J0D01*
G01*
G37*
G36*
G01*
X149635750Y-96729000D02*
X150386750Y-96729000D01*
G75*
G02*
X150662250Y-97004500I0J-275500D01*
G01*
X150662250Y-97555500D01*
G75*
G02*
X150386750Y-97831000I-275500J0D01*
G01*
X149635750Y-97831000D01*
G75*
G02*
X149360250Y-97555500I0J275500D01*
G01*
X149360250Y-97004500D01*
G75*
G02*
X149635750Y-96729000I275500J0D01*
G01*
G37*
G36*
G01*
X149635750Y-93429000D02*
X150386750Y-93429000D01*
G75*
G02*
X150662250Y-93704500I0J-275500D01*
G01*
X150662250Y-94255500D01*
G75*
G02*
X150386750Y-94531000I-275500J0D01*
G01*
X149635750Y-94531000D01*
G75*
G02*
X149360250Y-94255500I0J275500D01*
G01*
X149360250Y-93704500D01*
G75*
G02*
X149635750Y-93429000I275500J0D01*
G01*
G37*
G36*
G01*
X140105750Y-77679000D02*
X140856750Y-77679000D01*
G75*
G02*
X141132250Y-77954500I0J-275500D01*
G01*
X141132250Y-78505500D01*
G75*
G02*
X140856750Y-78781000I-275500J0D01*
G01*
X140105750Y-78781000D01*
G75*
G02*
X139830250Y-78505500I0J275500D01*
G01*
X139830250Y-77954500D01*
G75*
G02*
X140105750Y-77679000I275500J0D01*
G01*
G37*
G36*
G01*
X140105750Y-74379000D02*
X140856750Y-74379000D01*
G75*
G02*
X141132250Y-74654500I0J-275500D01*
G01*
X141132250Y-75205500D01*
G75*
G02*
X140856750Y-75481000I-275500J0D01*
G01*
X140105750Y-75481000D01*
G75*
G02*
X139830250Y-75205500I0J275500D01*
G01*
X139830250Y-74654500D01*
G75*
G02*
X140105750Y-74379000I275500J0D01*
G01*
G37*
G36*
G01*
X135355750Y-58629000D02*
X136106750Y-58629000D01*
G75*
G02*
X136382250Y-58904500I0J-275500D01*
G01*
X136382250Y-59455500D01*
G75*
G02*
X136106750Y-59731000I-275500J0D01*
G01*
X135355750Y-59731000D01*
G75*
G02*
X135080250Y-59455500I0J275500D01*
G01*
X135080250Y-58904500D01*
G75*
G02*
X135355750Y-58629000I275500J0D01*
G01*
G37*
G36*
G01*
X135355750Y-55329000D02*
X136106750Y-55329000D01*
G75*
G02*
X136382250Y-55604500I0J-275500D01*
G01*
X136382250Y-56155500D01*
G75*
G02*
X136106750Y-56431000I-275500J0D01*
G01*
X135355750Y-56431000D01*
G75*
G02*
X135080250Y-56155500I0J275500D01*
G01*
X135080250Y-55604500D01*
G75*
G02*
X135355750Y-55329000I275500J0D01*
G01*
G37*
G36*
G01*
X125835750Y-39507999D02*
X126586750Y-39507999D01*
G75*
G02*
X126862250Y-39783499I0J-275500D01*
G01*
X126862250Y-40334499D01*
G75*
G02*
X126586750Y-40609999I-275500J0D01*
G01*
X125835750Y-40609999D01*
G75*
G02*
X125560250Y-40334499I0J275500D01*
G01*
X125560250Y-39783499D01*
G75*
G02*
X125835750Y-39507999I275500J0D01*
G01*
G37*
G36*
G01*
X125835750Y-36207999D02*
X126586750Y-36207999D01*
G75*
G02*
X126862250Y-36483499I0J-275500D01*
G01*
X126862250Y-37034499D01*
G75*
G02*
X126586750Y-37309999I-275500J0D01*
G01*
X125835750Y-37309999D01*
G75*
G02*
X125560250Y-37034499I0J275500D01*
G01*
X125560250Y-36483499D01*
G75*
G02*
X125835750Y-36207999I275500J0D01*
G01*
G37*
G36*
G01*
X125835750Y-20331999D02*
X126586750Y-20331999D01*
G75*
G02*
X126862250Y-20607499I0J-275500D01*
G01*
X126862250Y-21158499D01*
G75*
G02*
X126586750Y-21433999I-275500J0D01*
G01*
X125835750Y-21433999D01*
G75*
G02*
X125560250Y-21158499I0J275500D01*
G01*
X125560250Y-20607499D01*
G75*
G02*
X125835750Y-20331999I275500J0D01*
G01*
G37*
G36*
G01*
X125835750Y-17031999D02*
X126586750Y-17031999D01*
G75*
G02*
X126862250Y-17307499I0J-275500D01*
G01*
X126862250Y-17858499D01*
G75*
G02*
X126586750Y-18133999I-275500J0D01*
G01*
X125835750Y-18133999D01*
G75*
G02*
X125560250Y-17858499I0J275500D01*
G01*
X125560250Y-17307499D01*
G75*
G02*
X125835750Y-17031999I275500J0D01*
G01*
G37*
G36*
G01*
X130585750Y-96729000D02*
X131336750Y-96729000D01*
G75*
G02*
X131612250Y-97004500I0J-275500D01*
G01*
X131612250Y-97555500D01*
G75*
G02*
X131336750Y-97831000I-275500J0D01*
G01*
X130585750Y-97831000D01*
G75*
G02*
X130310250Y-97555500I0J275500D01*
G01*
X130310250Y-97004500D01*
G75*
G02*
X130585750Y-96729000I275500J0D01*
G01*
G37*
G36*
G01*
X130585750Y-93429000D02*
X131336750Y-93429000D01*
G75*
G02*
X131612250Y-93704500I0J-275500D01*
G01*
X131612250Y-94255500D01*
G75*
G02*
X131336750Y-94531000I-275500J0D01*
G01*
X130585750Y-94531000D01*
G75*
G02*
X130310250Y-94255500I0J275500D01*
G01*
X130310250Y-93704500D01*
G75*
G02*
X130585750Y-93429000I275500J0D01*
G01*
G37*
G36*
G01*
X121065750Y-77679000D02*
X121816750Y-77679000D01*
G75*
G02*
X122092250Y-77954500I0J-275500D01*
G01*
X122092250Y-78505500D01*
G75*
G02*
X121816750Y-78781000I-275500J0D01*
G01*
X121065750Y-78781000D01*
G75*
G02*
X120790250Y-78505500I0J275500D01*
G01*
X120790250Y-77954500D01*
G75*
G02*
X121065750Y-77679000I275500J0D01*
G01*
G37*
G36*
G01*
X121065750Y-74379000D02*
X121816750Y-74379000D01*
G75*
G02*
X122092250Y-74654500I0J-275500D01*
G01*
X122092250Y-75205500D01*
G75*
G02*
X121816750Y-75481000I-275500J0D01*
G01*
X121065750Y-75481000D01*
G75*
G02*
X120790250Y-75205500I0J275500D01*
G01*
X120790250Y-74654500D01*
G75*
G02*
X121065750Y-74379000I275500J0D01*
G01*
G37*
G36*
G01*
X116315750Y-58629000D02*
X117066750Y-58629000D01*
G75*
G02*
X117342250Y-58904500I0J-275500D01*
G01*
X117342250Y-59455500D01*
G75*
G02*
X117066750Y-59731000I-275500J0D01*
G01*
X116315750Y-59731000D01*
G75*
G02*
X116040250Y-59455500I0J275500D01*
G01*
X116040250Y-58904500D01*
G75*
G02*
X116315750Y-58629000I275500J0D01*
G01*
G37*
G36*
G01*
X116315750Y-55329000D02*
X117066750Y-55329000D01*
G75*
G02*
X117342250Y-55604500I0J-275500D01*
G01*
X117342250Y-56155500D01*
G75*
G02*
X117066750Y-56431000I-275500J0D01*
G01*
X116315750Y-56431000D01*
G75*
G02*
X116040250Y-56155500I0J275500D01*
G01*
X116040250Y-55604500D01*
G75*
G02*
X116315750Y-55329000I275500J0D01*
G01*
G37*
G36*
G01*
X106785750Y-39507999D02*
X107536750Y-39507999D01*
G75*
G02*
X107812250Y-39783499I0J-275500D01*
G01*
X107812250Y-40334499D01*
G75*
G02*
X107536750Y-40609999I-275500J0D01*
G01*
X106785750Y-40609999D01*
G75*
G02*
X106510250Y-40334499I0J275500D01*
G01*
X106510250Y-39783499D01*
G75*
G02*
X106785750Y-39507999I275500J0D01*
G01*
G37*
G36*
G01*
X106785750Y-36207999D02*
X107536750Y-36207999D01*
G75*
G02*
X107812250Y-36483499I0J-275500D01*
G01*
X107812250Y-37034499D01*
G75*
G02*
X107536750Y-37309999I-275500J0D01*
G01*
X106785750Y-37309999D01*
G75*
G02*
X106510250Y-37034499I0J275500D01*
G01*
X106510250Y-36483499D01*
G75*
G02*
X106785750Y-36207999I275500J0D01*
G01*
G37*
G36*
G01*
X106785750Y-20331999D02*
X107536750Y-20331999D01*
G75*
G02*
X107812250Y-20607499I0J-275500D01*
G01*
X107812250Y-21158499D01*
G75*
G02*
X107536750Y-21433999I-275500J0D01*
G01*
X106785750Y-21433999D01*
G75*
G02*
X106510250Y-21158499I0J275500D01*
G01*
X106510250Y-20607499D01*
G75*
G02*
X106785750Y-20331999I275500J0D01*
G01*
G37*
G36*
G01*
X106785750Y-17031999D02*
X107536750Y-17031999D01*
G75*
G02*
X107812250Y-17307499I0J-275500D01*
G01*
X107812250Y-17858499D01*
G75*
G02*
X107536750Y-18133999I-275500J0D01*
G01*
X106785750Y-18133999D01*
G75*
G02*
X106510250Y-17858499I0J275500D01*
G01*
X106510250Y-17307499D01*
G75*
G02*
X106785750Y-17031999I275500J0D01*
G01*
G37*
G36*
G01*
X111525750Y-96729000D02*
X112276750Y-96729000D01*
G75*
G02*
X112552250Y-97004500I0J-275500D01*
G01*
X112552250Y-97555500D01*
G75*
G02*
X112276750Y-97831000I-275500J0D01*
G01*
X111525750Y-97831000D01*
G75*
G02*
X111250250Y-97555500I0J275500D01*
G01*
X111250250Y-97004500D01*
G75*
G02*
X111525750Y-96729000I275500J0D01*
G01*
G37*
G36*
G01*
X111525750Y-93429000D02*
X112276750Y-93429000D01*
G75*
G02*
X112552250Y-93704500I0J-275500D01*
G01*
X112552250Y-94255500D01*
G75*
G02*
X112276750Y-94531000I-275500J0D01*
G01*
X111525750Y-94531000D01*
G75*
G02*
X111250250Y-94255500I0J275500D01*
G01*
X111250250Y-93704500D01*
G75*
G02*
X111525750Y-93429000I275500J0D01*
G01*
G37*
G36*
G01*
X102015750Y-77669000D02*
X102766750Y-77669000D01*
G75*
G02*
X103042250Y-77944500I0J-275500D01*
G01*
X103042250Y-78495500D01*
G75*
G02*
X102766750Y-78771000I-275500J0D01*
G01*
X102015750Y-78771000D01*
G75*
G02*
X101740250Y-78495500I0J275500D01*
G01*
X101740250Y-77944500D01*
G75*
G02*
X102015750Y-77669000I275500J0D01*
G01*
G37*
G36*
G01*
X102015750Y-74369000D02*
X102766750Y-74369000D01*
G75*
G02*
X103042250Y-74644500I0J-275500D01*
G01*
X103042250Y-75195500D01*
G75*
G02*
X102766750Y-75471000I-275500J0D01*
G01*
X102015750Y-75471000D01*
G75*
G02*
X101740250Y-75195500I0J275500D01*
G01*
X101740250Y-74644500D01*
G75*
G02*
X102015750Y-74369000I275500J0D01*
G01*
G37*
G36*
G01*
X97265750Y-58629000D02*
X98016750Y-58629000D01*
G75*
G02*
X98292250Y-58904500I0J-275500D01*
G01*
X98292250Y-59455500D01*
G75*
G02*
X98016750Y-59731000I-275500J0D01*
G01*
X97265750Y-59731000D01*
G75*
G02*
X96990250Y-59455500I0J275500D01*
G01*
X96990250Y-58904500D01*
G75*
G02*
X97265750Y-58629000I275500J0D01*
G01*
G37*
G36*
G01*
X97265750Y-55329000D02*
X98016750Y-55329000D01*
G75*
G02*
X98292250Y-55604500I0J-275500D01*
G01*
X98292250Y-56155500D01*
G75*
G02*
X98016750Y-56431000I-275500J0D01*
G01*
X97265750Y-56431000D01*
G75*
G02*
X96990250Y-56155500I0J275500D01*
G01*
X96990250Y-55604500D01*
G75*
G02*
X97265750Y-55329000I275500J0D01*
G01*
G37*
G36*
G01*
X87745750Y-39507999D02*
X88496750Y-39507999D01*
G75*
G02*
X88772250Y-39783499I0J-275500D01*
G01*
X88772250Y-40334499D01*
G75*
G02*
X88496750Y-40609999I-275500J0D01*
G01*
X87745750Y-40609999D01*
G75*
G02*
X87470250Y-40334499I0J275500D01*
G01*
X87470250Y-39783499D01*
G75*
G02*
X87745750Y-39507999I275500J0D01*
G01*
G37*
G36*
G01*
X87745750Y-36207999D02*
X88496750Y-36207999D01*
G75*
G02*
X88772250Y-36483499I0J-275500D01*
G01*
X88772250Y-37034499D01*
G75*
G02*
X88496750Y-37309999I-275500J0D01*
G01*
X87745750Y-37309999D01*
G75*
G02*
X87470250Y-37034499I0J275500D01*
G01*
X87470250Y-36483499D01*
G75*
G02*
X87745750Y-36207999I275500J0D01*
G01*
G37*
G36*
G01*
X87735750Y-20331999D02*
X88486750Y-20331999D01*
G75*
G02*
X88762250Y-20607499I0J-275500D01*
G01*
X88762250Y-21158499D01*
G75*
G02*
X88486750Y-21433999I-275500J0D01*
G01*
X87735750Y-21433999D01*
G75*
G02*
X87460250Y-21158499I0J275500D01*
G01*
X87460250Y-20607499D01*
G75*
G02*
X87735750Y-20331999I275500J0D01*
G01*
G37*
G36*
G01*
X87735750Y-17031999D02*
X88486750Y-17031999D01*
G75*
G02*
X88762250Y-17307499I0J-275500D01*
G01*
X88762250Y-17858499D01*
G75*
G02*
X88486750Y-18133999I-275500J0D01*
G01*
X87735750Y-18133999D01*
G75*
G02*
X87460250Y-17858499I0J275500D01*
G01*
X87460250Y-17307499D01*
G75*
G02*
X87735750Y-17031999I275500J0D01*
G01*
G37*
G36*
G01*
X80585750Y-112607000D02*
X81336750Y-112607000D01*
G75*
G02*
X81612250Y-112882500I0J-275500D01*
G01*
X81612250Y-113433500D01*
G75*
G02*
X81336750Y-113709000I-275500J0D01*
G01*
X80585750Y-113709000D01*
G75*
G02*
X80310250Y-113433500I0J275500D01*
G01*
X80310250Y-112882500D01*
G75*
G02*
X80585750Y-112607000I275500J0D01*
G01*
G37*
G36*
G01*
X80585750Y-115907000D02*
X81336750Y-115907000D01*
G75*
G02*
X81612250Y-116182500I0J-275500D01*
G01*
X81612250Y-116733500D01*
G75*
G02*
X81336750Y-117009000I-275500J0D01*
G01*
X80585750Y-117009000D01*
G75*
G02*
X80310250Y-116733500I0J275500D01*
G01*
X80310250Y-116182500D01*
G75*
G02*
X80585750Y-115907000I275500J0D01*
G01*
G37*
G36*
G01*
X92475750Y-96729000D02*
X93226750Y-96729000D01*
G75*
G02*
X93502250Y-97004500I0J-275500D01*
G01*
X93502250Y-97555500D01*
G75*
G02*
X93226750Y-97831000I-275500J0D01*
G01*
X92475750Y-97831000D01*
G75*
G02*
X92200250Y-97555500I0J275500D01*
G01*
X92200250Y-97004500D01*
G75*
G02*
X92475750Y-96729000I275500J0D01*
G01*
G37*
G36*
G01*
X92475750Y-93429000D02*
X93226750Y-93429000D01*
G75*
G02*
X93502250Y-93704500I0J-275500D01*
G01*
X93502250Y-94255500D01*
G75*
G02*
X93226750Y-94531000I-275500J0D01*
G01*
X92475750Y-94531000D01*
G75*
G02*
X92200250Y-94255500I0J275500D01*
G01*
X92200250Y-93704500D01*
G75*
G02*
X92475750Y-93429000I275500J0D01*
G01*
G37*
G36*
G01*
X82955750Y-77679000D02*
X83706750Y-77679000D01*
G75*
G02*
X83982250Y-77954500I0J-275500D01*
G01*
X83982250Y-78505500D01*
G75*
G02*
X83706750Y-78781000I-275500J0D01*
G01*
X82955750Y-78781000D01*
G75*
G02*
X82680250Y-78505500I0J275500D01*
G01*
X82680250Y-77954500D01*
G75*
G02*
X82955750Y-77679000I275500J0D01*
G01*
G37*
G36*
G01*
X82955750Y-74379000D02*
X83706750Y-74379000D01*
G75*
G02*
X83982250Y-74654500I0J-275500D01*
G01*
X83982250Y-75205500D01*
G75*
G02*
X83706750Y-75481000I-275500J0D01*
G01*
X82955750Y-75481000D01*
G75*
G02*
X82680250Y-75205500I0J275500D01*
G01*
X82680250Y-74654500D01*
G75*
G02*
X82955750Y-74379000I275500J0D01*
G01*
G37*
G36*
G01*
X78205750Y-58629000D02*
X78956750Y-58629000D01*
G75*
G02*
X79232250Y-58904500I0J-275500D01*
G01*
X79232250Y-59455500D01*
G75*
G02*
X78956750Y-59731000I-275500J0D01*
G01*
X78205750Y-59731000D01*
G75*
G02*
X77930250Y-59455500I0J275500D01*
G01*
X77930250Y-58904500D01*
G75*
G02*
X78205750Y-58629000I275500J0D01*
G01*
G37*
G36*
G01*
X78205750Y-55329000D02*
X78956750Y-55329000D01*
G75*
G02*
X79232250Y-55604500I0J-275500D01*
G01*
X79232250Y-56155500D01*
G75*
G02*
X78956750Y-56431000I-275500J0D01*
G01*
X78205750Y-56431000D01*
G75*
G02*
X77930250Y-56155500I0J275500D01*
G01*
X77930250Y-55604500D01*
G75*
G02*
X78205750Y-55329000I275500J0D01*
G01*
G37*
G36*
G01*
X68685750Y-39507999D02*
X69436750Y-39507999D01*
G75*
G02*
X69712250Y-39783499I0J-275500D01*
G01*
X69712250Y-40334499D01*
G75*
G02*
X69436750Y-40609999I-275500J0D01*
G01*
X68685750Y-40609999D01*
G75*
G02*
X68410250Y-40334499I0J275500D01*
G01*
X68410250Y-39783499D01*
G75*
G02*
X68685750Y-39507999I275500J0D01*
G01*
G37*
G36*
G01*
X68685750Y-36207999D02*
X69436750Y-36207999D01*
G75*
G02*
X69712250Y-36483499I0J-275500D01*
G01*
X69712250Y-37034499D01*
G75*
G02*
X69436750Y-37309999I-275500J0D01*
G01*
X68685750Y-37309999D01*
G75*
G02*
X68410250Y-37034499I0J275500D01*
G01*
X68410250Y-36483499D01*
G75*
G02*
X68685750Y-36207999I275500J0D01*
G01*
G37*
G36*
G01*
X68685750Y-17031999D02*
X69436750Y-17031999D01*
G75*
G02*
X69712250Y-17307499I0J-275500D01*
G01*
X69712250Y-17858499D01*
G75*
G02*
X69436750Y-18133999I-275500J0D01*
G01*
X68685750Y-18133999D01*
G75*
G02*
X68410250Y-17858499I0J275500D01*
G01*
X68410250Y-17307499D01*
G75*
G02*
X68685750Y-17031999I275500J0D01*
G01*
G37*
G36*
G01*
X68685750Y-20331999D02*
X69436750Y-20331999D01*
G75*
G02*
X69712250Y-20607499I0J-275500D01*
G01*
X69712250Y-21158499D01*
G75*
G02*
X69436750Y-21433999I-275500J0D01*
G01*
X68685750Y-21433999D01*
G75*
G02*
X68410250Y-21158499I0J275500D01*
G01*
X68410250Y-20607499D01*
G75*
G02*
X68685750Y-20331999I275500J0D01*
G01*
G37*
G36*
G01*
X56775750Y-112607000D02*
X57526750Y-112607000D01*
G75*
G02*
X57802250Y-112882500I0J-275500D01*
G01*
X57802250Y-113433500D01*
G75*
G02*
X57526750Y-113709000I-275500J0D01*
G01*
X56775750Y-113709000D01*
G75*
G02*
X56500250Y-113433500I0J275500D01*
G01*
X56500250Y-112882500D01*
G75*
G02*
X56775750Y-112607000I275500J0D01*
G01*
G37*
G36*
G01*
X56775750Y-115907000D02*
X57526750Y-115907000D01*
G75*
G02*
X57802250Y-116182500I0J-275500D01*
G01*
X57802250Y-116733500D01*
G75*
G02*
X57526750Y-117009000I-275500J0D01*
G01*
X56775750Y-117009000D01*
G75*
G02*
X56500250Y-116733500I0J275500D01*
G01*
X56500250Y-116182500D01*
G75*
G02*
X56775750Y-115907000I275500J0D01*
G01*
G37*
G36*
G01*
X73435750Y-96729000D02*
X74186750Y-96729000D01*
G75*
G02*
X74462250Y-97004500I0J-275500D01*
G01*
X74462250Y-97555500D01*
G75*
G02*
X74186750Y-97831000I-275500J0D01*
G01*
X73435750Y-97831000D01*
G75*
G02*
X73160250Y-97555500I0J275500D01*
G01*
X73160250Y-97004500D01*
G75*
G02*
X73435750Y-96729000I275500J0D01*
G01*
G37*
G36*
G01*
X73435750Y-93429000D02*
X74186750Y-93429000D01*
G75*
G02*
X74462250Y-93704500I0J-275500D01*
G01*
X74462250Y-94255500D01*
G75*
G02*
X74186750Y-94531000I-275500J0D01*
G01*
X73435750Y-94531000D01*
G75*
G02*
X73160250Y-94255500I0J275500D01*
G01*
X73160250Y-93704500D01*
G75*
G02*
X73435750Y-93429000I275500J0D01*
G01*
G37*
G36*
G01*
X63915750Y-77679000D02*
X64666750Y-77679000D01*
G75*
G02*
X64942250Y-77954500I0J-275500D01*
G01*
X64942250Y-78505500D01*
G75*
G02*
X64666750Y-78781000I-275500J0D01*
G01*
X63915750Y-78781000D01*
G75*
G02*
X63640250Y-78505500I0J275500D01*
G01*
X63640250Y-77954500D01*
G75*
G02*
X63915750Y-77679000I275500J0D01*
G01*
G37*
G36*
G01*
X63915750Y-74379000D02*
X64666750Y-74379000D01*
G75*
G02*
X64942250Y-74654500I0J-275500D01*
G01*
X64942250Y-75205500D01*
G75*
G02*
X64666750Y-75481000I-275500J0D01*
G01*
X63915750Y-75481000D01*
G75*
G02*
X63640250Y-75205500I0J275500D01*
G01*
X63640250Y-74654500D01*
G75*
G02*
X63915750Y-74379000I275500J0D01*
G01*
G37*
G36*
G01*
X59165750Y-58629000D02*
X59916750Y-58629000D01*
G75*
G02*
X60192250Y-58904500I0J-275500D01*
G01*
X60192250Y-59455500D01*
G75*
G02*
X59916750Y-59731000I-275500J0D01*
G01*
X59165750Y-59731000D01*
G75*
G02*
X58890250Y-59455500I0J275500D01*
G01*
X58890250Y-58904500D01*
G75*
G02*
X59165750Y-58629000I275500J0D01*
G01*
G37*
G36*
G01*
X59165750Y-55329000D02*
X59916750Y-55329000D01*
G75*
G02*
X60192250Y-55604500I0J-275500D01*
G01*
X60192250Y-56155500D01*
G75*
G02*
X59916750Y-56431000I-275500J0D01*
G01*
X59165750Y-56431000D01*
G75*
G02*
X58890250Y-56155500I0J275500D01*
G01*
X58890250Y-55604500D01*
G75*
G02*
X59165750Y-55329000I275500J0D01*
G01*
G37*
G36*
G01*
X49645750Y-39507999D02*
X50396750Y-39507999D01*
G75*
G02*
X50672250Y-39783499I0J-275500D01*
G01*
X50672250Y-40334499D01*
G75*
G02*
X50396750Y-40609999I-275500J0D01*
G01*
X49645750Y-40609999D01*
G75*
G02*
X49370250Y-40334499I0J275500D01*
G01*
X49370250Y-39783499D01*
G75*
G02*
X49645750Y-39507999I275500J0D01*
G01*
G37*
G36*
G01*
X49645750Y-36207999D02*
X50396750Y-36207999D01*
G75*
G02*
X50672250Y-36483499I0J-275500D01*
G01*
X50672250Y-37034499D01*
G75*
G02*
X50396750Y-37309999I-275500J0D01*
G01*
X49645750Y-37309999D01*
G75*
G02*
X49370250Y-37034499I0J275500D01*
G01*
X49370250Y-36483499D01*
G75*
G02*
X49645750Y-36207999I275500J0D01*
G01*
G37*
G36*
G01*
X49635750Y-20331999D02*
X50386750Y-20331999D01*
G75*
G02*
X50662250Y-20607499I0J-275500D01*
G01*
X50662250Y-21158499D01*
G75*
G02*
X50386750Y-21433999I-275500J0D01*
G01*
X49635750Y-21433999D01*
G75*
G02*
X49360250Y-21158499I0J275500D01*
G01*
X49360250Y-20607499D01*
G75*
G02*
X49635750Y-20331999I275500J0D01*
G01*
G37*
G36*
G01*
X49635750Y-17031999D02*
X50386750Y-17031999D01*
G75*
G02*
X50662250Y-17307499I0J-275500D01*
G01*
X50662250Y-17858499D01*
G75*
G02*
X50386750Y-18133999I-275500J0D01*
G01*
X49635750Y-18133999D01*
G75*
G02*
X49360250Y-17858499I0J275500D01*
G01*
X49360250Y-17307499D01*
G75*
G02*
X49635750Y-17031999I275500J0D01*
G01*
G37*
G36*
G01*
X32945750Y-112607000D02*
X33696750Y-112607000D01*
G75*
G02*
X33972250Y-112882500I0J-275500D01*
G01*
X33972250Y-113433500D01*
G75*
G02*
X33696750Y-113709000I-275500J0D01*
G01*
X32945750Y-113709000D01*
G75*
G02*
X32670250Y-113433500I0J275500D01*
G01*
X32670250Y-112882500D01*
G75*
G02*
X32945750Y-112607000I275500J0D01*
G01*
G37*
G36*
G01*
X32945750Y-115907000D02*
X33696750Y-115907000D01*
G75*
G02*
X33972250Y-116182500I0J-275500D01*
G01*
X33972250Y-116733500D01*
G75*
G02*
X33696750Y-117009000I-275500J0D01*
G01*
X32945750Y-117009000D01*
G75*
G02*
X32670250Y-116733500I0J275500D01*
G01*
X32670250Y-116182500D01*
G75*
G02*
X32945750Y-115907000I275500J0D01*
G01*
G37*
G36*
G01*
X42485750Y-96719000D02*
X43236750Y-96719000D01*
G75*
G02*
X43512250Y-96994500I0J-275500D01*
G01*
X43512250Y-97545500D01*
G75*
G02*
X43236750Y-97821000I-275500J0D01*
G01*
X42485750Y-97821000D01*
G75*
G02*
X42210250Y-97545500I0J275500D01*
G01*
X42210250Y-96994500D01*
G75*
G02*
X42485750Y-96719000I275500J0D01*
G01*
G37*
G36*
G01*
X42485750Y-93419000D02*
X43236750Y-93419000D01*
G75*
G02*
X43512250Y-93694500I0J-275500D01*
G01*
X43512250Y-94245500D01*
G75*
G02*
X43236750Y-94521000I-275500J0D01*
G01*
X42485750Y-94521000D01*
G75*
G02*
X42210250Y-94245500I0J275500D01*
G01*
X42210250Y-93694500D01*
G75*
G02*
X42485750Y-93419000I275500J0D01*
G01*
G37*
G36*
G01*
X35345750Y-58629000D02*
X36096750Y-58629000D01*
G75*
G02*
X36372250Y-58904500I0J-275500D01*
G01*
X36372250Y-59455500D01*
G75*
G02*
X36096750Y-59731000I-275500J0D01*
G01*
X35345750Y-59731000D01*
G75*
G02*
X35070250Y-59455500I0J275500D01*
G01*
X35070250Y-58904500D01*
G75*
G02*
X35345750Y-58629000I275500J0D01*
G01*
G37*
G36*
G01*
X35345750Y-55329000D02*
X36096750Y-55329000D01*
G75*
G02*
X36372250Y-55604500I0J-275500D01*
G01*
X36372250Y-56155500D01*
G75*
G02*
X36096750Y-56431000I-275500J0D01*
G01*
X35345750Y-56431000D01*
G75*
G02*
X35070250Y-56155500I0J275500D01*
G01*
X35070250Y-55604500D01*
G75*
G02*
X35345750Y-55329000I275500J0D01*
G01*
G37*
G36*
G01*
X30585750Y-39507999D02*
X31336750Y-39507999D01*
G75*
G02*
X31612250Y-39783499I0J-275500D01*
G01*
X31612250Y-40334499D01*
G75*
G02*
X31336750Y-40609999I-275500J0D01*
G01*
X30585750Y-40609999D01*
G75*
G02*
X30310250Y-40334499I0J275500D01*
G01*
X30310250Y-39783499D01*
G75*
G02*
X30585750Y-39507999I275500J0D01*
G01*
G37*
G36*
G01*
X30585750Y-36207999D02*
X31336750Y-36207999D01*
G75*
G02*
X31612250Y-36483499I0J-275500D01*
G01*
X31612250Y-37034499D01*
G75*
G02*
X31336750Y-37309999I-275500J0D01*
G01*
X30585750Y-37309999D01*
G75*
G02*
X30310250Y-37034499I0J275500D01*
G01*
X30310250Y-36483499D01*
G75*
G02*
X30585750Y-36207999I275500J0D01*
G01*
G37*
G36*
G01*
X30585750Y-20331999D02*
X31336750Y-20331999D01*
G75*
G02*
X31612250Y-20607499I0J-275500D01*
G01*
X31612250Y-21158499D01*
G75*
G02*
X31336750Y-21433999I-275500J0D01*
G01*
X30585750Y-21433999D01*
G75*
G02*
X30310250Y-21158499I0J275500D01*
G01*
X30310250Y-20607499D01*
G75*
G02*
X30585750Y-20331999I275500J0D01*
G01*
G37*
G36*
G01*
X30585750Y-17031999D02*
X31336750Y-17031999D01*
G75*
G02*
X31612250Y-17307499I0J-275500D01*
G01*
X31612250Y-17858499D01*
G75*
G02*
X31336750Y-18133999I-275500J0D01*
G01*
X30585750Y-18133999D01*
G75*
G02*
X30310250Y-17858499I0J275500D01*
G01*
X30310250Y-17307499D01*
G75*
G02*
X30585750Y-17031999I275500J0D01*
G01*
G37*
M02*
